{
.appVersion = "3343";
copyright = "Copyright 2019 The Hanuman Project Authors (https://github.com/danhhong/Hanuman)";
customParameters = (
{
name = panose;
value = (
2,
2,
6,
0,
6,
5,
0,
2,
2,
0
);
},
{
name = unicodeRanges;
value = (
0,
1,
2,
3,
4,
5,
6,
7,
9,
29,
30,
31,
32,
33,
34,
35,
36,
37,
38,
39,
43,
44,
45,
46,
60,
62,
64,
67,
69
);
},
{
name = glyphOrder;
value = (
.notdef,
CR,
space,
uni0000,
exclam,
quotedbl,
numbersign,
dollar,
percent,
ampersand,
quotesingle,
parenleft,
parenright,
asterisk,
plus,
comma,
hyphen,
period,
slash,
zero,
one,
two,
three,
four,
five,
six,
seven,
eight,
nine,
colon,
semicolon,
less,
equal,
greater,
question,
at,
A,
B,
C,
D,
E,
F,
G,
H,
I,
J,
K,
L,
M,
N,
O,
P,
Q,
R,
S,
T,
U,
V,
W,
X,
Y,
Z,
bracketleft,
backslash,
bracketright,
asciicircum,
underscore,
grave,
a,
b,
c,
d,
e,
f,
g,
h,
i,
j,
k,
l,
m,
n,
o,
p,
q,
r,
s,
t,
u,
v,
w,
x,
y,
z,
braceleft,
bar,
braceright,
asciitilde,
guillemotleft,
guillemotright,
uni1780,
uni1781,
uni1782,
uni1783,
uni1784,
uni1785,
uni1786,
uni1787,
uni1788,
uni1789,
uni178A,
uni178B,
uni178C,
uni178D,
uni178E,
uni178F,
uni1790,
uni1791,
uni1792,
uni1793,
uni1794,
uni1795,
uni1796,
uni1797,
uni1798,
uni1799,
uni179A,
uni179B,
uni179C,
uni179D,
uni179E,
uni179F,
uni17A0,
uni17A1,
uni17A2,
uni17A3,
uni17A4,
uni17A5,
uni17A6,
uni17A7,
uni17A8,
uni17A9,
uni17AA,
uni17AB,
uni17AC,
uni17AD,
uni17AE,
uni17AF,
uni17B0,
uni17B1,
uni17B2,
uni17B3,
uni17B4,
uni17B5,
uni17B6,
uni17B7,
uni17B8,
uni17B9,
uni17BA,
uni17BB,
uni17BC,
uni17BD,
uni17BE,
uni17BF,
uni17C0,
uni17C1,
uni17C2,
uni17C3,
uni17C4,
uni17C5,
uni17C6,
uni17C7,
uni17C8,
uni17C9,
uni17CA,
uni17CB,
uni17CC,
uni17CD,
uni17CE,
uni17CF,
uni17D0,
uni17D1,
uni17D2,
uni17D3,
uni17D4,
uni17D5,
uni17D6,
uni17D7,
uni17D8,
uni17D9,
uni17DA,
uni17DB,
uni17DC,
uni17DD,
uni17E0,
uni17E1,
uni17E2,
uni17E3,
uni17E4,
uni17E5,
uni17E6,
uni17E7,
uni17E8,
uni17E9,
ta.half,
cho.half,
ru.half,
ruu.half,
uni17D2_1780,
uni17D2_1781,
uni17D2_1782,
uni17D21783,

glyphs = (
{
glyphname = .notdef;
lastChange = "2025-05-05 12:22:04 +0000";
layers = (
{
layerId = "1AFB1E35-9546-41E1-B92B-6969383A0DDD";
paths = (
{
closed = 1;
nodes = (
"922 0 LINE",
"922 1462 LINE",
"102 1462 LINE",
"102 0 LINE",
"102 0 LINE"
);
},
{
closed = 1;
nodes = (
"201 1364 LINE",
"823 1364 LINE",
"823 98 LINE",
"201 98 LINE",
"201 98 LINE"
);
}
);
userData = {
assembly = "NPUSHB[ ]	/* 39 values pushed */
4 1 1 0 2 3 1 2 103 0 3 0 0 3 87 0 3 3 0 95 0 0 3 0 79 0 0 7 6 5 4 0 3 0 3 17 5 6 23 
CALL[ ]	/* CallFunction */";
};
width = 1024;
},
{
layerId = "759DCBF5-126F-43AE-ABB8-3EC70824EECD";
paths = (
{
closed = 1;
nodes = (
"922 0 LINE",
"922 1462 LINE",
"102 1462 LINE",
"102 0 LINE",
"102 0 LINE"
);
},
{
closed = 1;
nodes = (
"201 1364 LINE",
"823 1364 LINE",
"823 98 LINE",
"201 98 LINE",
"201 98 LINE"
);
}
);
userData = {
assembly = "NPUSHB[ ]	/* 39 values pushed */
4 1 1 0 2 3 1 2 103 0 3 0 0 3 87 0 3 3 0 95 0 0 3 0 79 0 0 7 6 5 4 0 3 0 3 17 5 6 23 
CALL[ ]	/* CallFunction */";
};
width = 1024;
},
{
layerId = "CD48D813-7107-4EBE-8BC7-C661170EDB17";
paths = (
{
closed = 1;
nodes = (
"922 0 LINE",
"922 1462 LINE",
"102 1462 LINE",
"102 0 LINE",
"102 0 LINE"
);
},
{
closed = 1;
nodes = (
"201 1364 LINE",
"823 1364 LINE",
"823 98 LINE",
"201 98 LINE",
"201 98 LINE"
);
}
);
userData = {
assembly = "NPUSHB[ ]	/* 39 values pushed */
4 1 1 0 2 3 1 2 103 0 3 0 0 3 87 0 3 3 0 95 0 0 3 0 79 0 0 7 6 5 4 0 3 0 3 17 5 6 23 
CALL[ ]	/* CallFunction */";
};
width = 1024;
}
);
note = .notdef;
},
{
glyphname = exclam;
lastChange = "2025-05-05 12:22:04 +0000";
layers = (
{
layerId = "1AFB1E35-9546-41E1-B92B-6969383A0DDD";
paths = (
{
closed = 1;
nodes = (
"435 517 LINE",
"435 1456 LINE",
"84 1456 LINE",
"84 517 LINE",
"84 517 LINE"
);
},
{
closed = 1;
nodes = (
"435 0 LINE",
"435 288 LINE",
"84 288 LINE",
"84 0 LINE",
"84 0 LINE"
);
}
);
width = 483;
},
{
layerId = "759DCBF5-126F-43AE-ABB8-3EC70824EECD";
paths = (
{
closed = 1;
nodes = (
"340 478 LINE",
"340 1456 LINE",
"143 1456 LINE",
"143 478 LINE",
"143 478 LINE"
);
},
{
closed = 1;
nodes = (
"340 0 LINE",
"340 204 LINE",
"143 204 LINE",
"143 0 LINE",
"143 0 LINE"
);
}
);
userData = {
assembly = "NPUSHB[ ]	/* 41 values pushed */
0 0 0 1 95 4 1 1 1 31 77 5 1 3 3 2 95 0 2 2 32 2 78 4 4 0 0 4 7 4 7 6 5 0 3 0 3 17 6 8 23 
CALL[ ]	/* CallFunction */";
};
width = 483;
},
{
layerId = "CD48D813-7107-4EBE-8BC7-C661170EDB17";
paths = (
{
closed = 1;
nodes = (
"277 478 LINE",
"277 1456 LINE",
"223 1456 LINE",
"223 478 LINE",
"223 478 LINE"
);
},
{
closed = 1;
nodes = (
"298 0 LINE",
"298 134 LINE",
"203 134 LINE",
"203 0 LINE",
"203 0 LINE"
);
}
);
width = 483;
}
);
note = exclam;
unicode = 0021;
},
{
glyphname = quotedbl;
lastChange = "2025-05-05 12:22:04 +0000";
layers = (
{
layerId = "1AFB1E35-9546-41E1-B92B-6969383A0DDD";
paths = (
{
closed = 1;
nodes = (
"593 1017 LINE",
"697 1285 LINE",
"697 1560 LINE",
"444 1560 LINE",
"444 1017 LINE",
"444 1017 LINE"
);
},
{
closed = 1;
nodes = (
"239 1017 LINE",
"343 1285 LINE",
"343 1560 LINE",
"90 1560 LINE",
"90 1017 LINE",
"90 1017 LINE"
);
}
);
width = 770;
},
{
layerId = "759DCBF5-126F-43AE-ABB8-3EC70824EECD";
paths = (
{
closed = 1;
nodes = (
"573 1055 LINE",
"634 1337 LINE",
"634 1560 LINE",
"476 1560 LINE",
"476 1055 LINE",
"476 1055 LINE"
);
},
{
closed = 1;
nodes = (
"263 1055 LINE",
"324 1337 LINE",
"324 1560 LINE",
"166 1560 LINE",
"166 1055 LINE",
"166 1055 LINE"
);
}
);
userData = {
assembly = "NPUSHB[ ]	/* 27 values pushed */
5 0 2 0 1 1 76 2 1 0 0 1 95 3 1 1 1 33 0 78 17 18 17 17 4 8 26 
CALL[ ]	/* CallFunction */";
};
width = 770;
},
{
layerId = "CD48D813-7107-4EBE-8BC7-C661170EDB17";
paths = (
{
closed = 1;
nodes = (
"467 1122 LINE",
"487 1391 LINE",
"487 1560 LINE",
"432 1560 LINE",
"417 1122 LINE",
"417 1122 LINE"
);
},
{
closed = 1;
nodes = (
"286 1122 LINE",
"306 1391 LINE",
"306 1560 LINE",
"251 1560 LINE",
"236 1122 LINE",
"236 1122 LINE"
);
}
);
width = 770;
}
);
note = quotedbl;
unicode = 0022;
},
{
glyphname = numbersign;
lastChange = "2025-05-05 12:22:04 +0000";
layers = (
{
layerId = "1AFB1E35-9546-41E1-B92B-6969383A0DDD";
paths = (
{
closed = 1;
nodes = (
"434 0 LINE",
"501 410 LINE",
"653 410 LINE",
"586 0 LINE",
"789 0 LINE",
"856 410 LINE",
"1115 410 LINE",
"1115 597 LINE",
"885 597 LINE",
"926 851 LINE",
"1190 851 LINE",
"1190 1040 LINE",
"958 1040 LINE",
"1027 1456 LINE",
"822 1456 LINE",
"755 1040 LINE",
"602 1040 LINE",
"669 1456 LINE",
"466 1456 LINE",
"397 1040 LINE",
"150 1040 LINE",
"150 851 LINE",
"366 851 LINE",
"326 597 LINE",
"74 597 LINE",
"74 410 LINE",
"296 410 LINE",
"229 0 LINE",
"229 0 LINE"
);
},
{
closed = 1;
nodes = (
"571 851 LINE",
"723 851 LINE",
"682 597 LINE",
"530 597 LINE",
"530 597 LINE"
);
}
);
width = 1246;
},
{
layerId = "759DCBF5-126F-43AE-ABB8-3EC70824EECD";
paths = (
{
closed = 1;
nodes = (
"369 0 LINE",
"449 410 LINE",
"705 410 LINE",
"625 0 LINE",
"776 0 LINE",
"856 410 LINE",
"1104 410 LINE",
"1104 550 LINE",
"884 550 LINE",
"952 898 LINE",
"1179 898 LINE",
"1179 1040 LINE",
"979 1040 LINE",
"1061 1456 LINE",
"910 1456 LINE",
"828 1040 LINE",
"573 1040 LINE",
"655 1456 LINE",
"504 1456 LINE",
"422 1040 LINE",
"139 1040 LINE",
"139 898 LINE",
"394 898 LINE",
"326 550 LINE",
"63 550 LINE",
"63 410 LINE",
"298 410 LINE",
"218 0 LINE",
"218 0 LINE"
);
},
{
closed = 1;
nodes = (
"545 898 LINE",
"801 898 LINE",
"733 550 LINE",
"477 550 LINE",
"477 550 LINE"
);
}
);
userData = {
assembly = "MPPEM[ ]	/* MeasurePixelPerEm */
PUSHB[ ]	/* 1 value pushed */
23 
LT[ ]	/* LessThan */
IF[ ]	/* If */
NPUSHB[ ]	/* 40 values pushed */
15 10 2 2 16 13 11 3 1 0 2 1 103 7 1 5 5 31 77 14 9 2 3 3 4 95 8 6 2 4 4 34 77 12 1 0 0 32 0 78 
ELSE[ ]	/* Else */
NPUSHB[ ]	/* 38 values pushed */
8 6 2 4 14 9 2 3 2 4 3 104 15 10 2 2 16 13 11 3 1 0 2 1 103 7 1 5 5 31 77 12 1 0 0 32 0 78 
EIF[ ]	/* EndIf */
NPUSHB[ ]	/* 30 values pushed */
0 0 31 30 29 28 0 27 0 27 26 25 24 23 22 21 20 19 17 17 17 17 17 17 17 17 17 17 8 31 
CALL[ ]	/* CallFunction */";
};
width = 1246;
},
{
layerId = "CD48D813-7107-4EBE-8BC7-C661170EDB17";
paths = (
{
closed = 1;
nodes = (
"316 0 LINE",
"390 410 LINE",
"754 410 LINE",
"679 0 LINE",
"735 0 LINE",
"810 410 LINE",
"1104 410 LINE",
"1104 462 LINE",
"819 462 LINE",
"915 986 LINE",
"1179 986 LINE",
"1179 1040 LINE",
"925 1040 LINE",
"1001 1456 LINE",
"945 1456 LINE",
"869 1040 LINE",
"504 1040 LINE",
"580 1456 LINE",
"524 1456 LINE",
"449 1040 LINE",
"139 1040 LINE",
"139 986 LINE",
"439 986 LINE",
"344 462 LINE",
"63 462 LINE",
"63 410 LINE",
"334 410 LINE",
"260 0 LINE",
"260 0 LINE"
);
},
{
closed = 1;
nodes = (
"494 986 LINE",
"859 986 LINE",
"763 462 LINE",
"400 462 LINE",
"400 462 LINE"
);
}
);
width = 1246;
}
);
note = numbersign;
unicode = 0023;
},
{
glyphname = dollar;
lastChange = "2025-05-05 12:22:23 +0000";
layers = (
{
layerId = "1AFB1E35-9546-41E1-B92B-6969383A0DDD";
paths = (
{
closed = 1;
nodes = (
"659 -218 LINE",
"659 -15 LINE",
"905.667 10.333 OFFCURVE",
"1064 158.333 OFFCURVE",
"1064 389 CURVE SMOOTH",
"1064 553 OFFCURVE",
"998.667 655.667 OFFCURVE",
"864 741 CURVE SMOOTH",
"796.667 783.667 OFFCURVE",
"711.667 827.333 OFFCURVE",
"609 872 CURVE SMOOTH",
"525 909.333 OFFCURVE",
"478.833 943.167 OFFCURVE",
"459.5 986.5 CURVE SMOOTH",
"449.833 1008.167 OFFCURVE",
"445 1033.667 OFFCURVE",
"445 1063 CURVE SMOOTH",
"445 1152.333 OFFCURVE",
"486.667 1214 OFFCURVE",
"576 1214 CURVE SMOOTH",
"662.667 1214 OFFCURVE",
"722 1146.667 OFFCURVE",
"722 1004 CURVE",
"1069 1004 LINE",
"1066 1012 LINE",
"1070 1262.667 OFFCURVE",
"918 1433 OFFCURVE",
"678 1469 CURVE",
"678 1685 LINE",
"518 1685 LINE",
"518 1474 LINE",
"262 1450 OFFCURVE",
"96 1293.667 OFFCURVE",
"96 1067 CURVE SMOOTH",
"96 900.333 OFFCURVE",
"158.5 796.667 OFFCURVE",
"292.5 714 CURVE SMOOTH",
"359.5 672.667 OFFCURVE",
"445 631.333 OFFCURVE",
"549 590 CURVE SMOOTH",
"631.667 554 OFFCURVE",
"676.833 519.667 OFFCURVE",
"697.5 473 CURVE SMOOTH",
"707.833 449.667 OFFCURVE",
"713 421 OFFCURVE",
"713 387 CURVE SMOOTH",
"713 299.717 OFFCURVE",
"667.59 241 OFFCURVE",
"578 241 CURVE SMOOTH",
"504.667 241 OFFCURVE",
"447 271.167 OFFCURVE",
"415 338.5 CURVE SMOOTH",
"399 372.167 OFFCURVE",
"391 416 OFFCURVE",
"391 470 CURVE",
"48 470 LINE",
"46 465 LINE",
"43.333 262.333 OFFCURVE",
"126.667 126.667 OFFCURVE",
"264 52 CURVE SMOOTH",
"332.667 14.667 OFFCURVE",
"410.667 -8.333 OFFCURVE",
"498 -17 CURVE",
"498 -218 LINE",
"498 -218 LINE"
);
}
);
width = 1110;
},
{
layerId = "759DCBF5-126F-43AE-ABB8-3EC70824EECD";
paths = (
{
closed = 1;
nodes = (
"626 -208 LINE",
"626 -17 LINE",
"866 8.333 OFFCURVE",
"1012 148.667 OFFCURVE",
"1012 378 CURVE SMOOTH",
"1012 528.667 OFFCURVE",
"953.667 631.833 OFFCURVE",
"835 708.5 CURVE SMOOTH",
"775.667 746.833 OFFCURVE",
"700.667 780.667 OFFCURVE",
"610 810 CURVE SMOOTH",
"468.667 858 OFFCURVE",
"390.667 906.167 OFFCURVE",
"356 969.5 CURVE SMOOTH",
"338.667 1001.167 OFFCURVE",
"330 1038.333 OFFCURVE",
"330 1081 CURVE SMOOTH",
"330 1223.667 OFFCURVE",
"408.667 1311 OFFCURVE",
"566 1311 CURVE SMOOTH",
"715.333 1311 OFFCURVE",
"803 1188.333 OFFCURVE",
"803 1007 CURVE",
"985 1007 LINE",
"999 1007 LINE",
"999 1275 OFFCURVE",
"869.667 1439 OFFCURVE",
"647 1471 CURVE",
"647 1693 LINE",
"489 1693 LINE",
"489 1472 LINE",
"267.667 1444 OFFCURVE",
"133 1298 OFFCURVE",
"133 1078 CURVE SMOOTH",
"133 927.333 OFFCURVE",
"194.667 819.333 OFFCURVE",
"316 742 CURVE SMOOTH",
"376.667 703.333 OFFCURVE",
"451.667 670.333 OFFCURVE",
"541 643 CURVE SMOOTH",
"660 603 OFFCURVE",
"737 557 OFFCURVE",
"778 498 CURVE SMOOTH",
"803 463 OFFCURVE",
"815 422 OFFCURVE",
"815 376 CURVE SMOOTH",
"815 234.051 OFFCURVE",
"715.836 144 OFFCURVE",
"542 144 CURVE SMOOTH",
"442 144 OFFCURVE",
"356.833 180 OFFCURVE",
"309.5 264 CURVE SMOOTH",
"285.833 306 OFFCURVE",
"274 361 OFFCURVE",
"274 429 CURVE",
"84 429 LINE",
"82 424 LINE",
"79.333 240 OFFCURVE",
"148.333 115.167 OFFCURVE",
"267 46.5 CURVE SMOOTH",
"326.333 12.167 OFFCURVE",
"394 -9 OFFCURVE",
"470 -17 CURVE",
"470 -208 LINE",
"470 -208 LINE"
);
}
);
userData = {
assembly = "NPUSHB[ ]	/* 60 values pushed */
30 27 2 5 3 52 2 2 0 2 2 76 0 4 5 1 5 4 1 128 0 1 2 5 1 2 126 0 3 0 5 4 3 5 105 0 2 0 0 2 89 0 2 2 0 95 0 0 2 0 79 34 36 31 35 37 16 6 8 28 
CALL[ ]	/* CallFunction */";
};
width = 1110;
},
{
layerId = "CD48D813-7107-4EBE-8BC7-C661170EDB17";
paths = (
{
closed = 1;
nodes = (
"614 -208 LINE",
"614 -20 LINE",
"844.667 -6.667 OFFCURVE",
"995 131.333 OFFCURVE",
"995 346 CURVE SMOOTH",
"995 492.667 OFFCURVE",
"938.167 583.667 OFFCURVE",
"817.5 653 CURVE SMOOTH",
"757.167 687.667 OFFCURVE",
"680.333 721.333 OFFCURVE",
"587 754 CURVE SMOOTH",
"388.333 819.333 OFFCURVE",
"287.167 880.333 OFFCURVE",
"246.5 963 CURVE SMOOTH",
"226.167 1004.333 OFFCURVE",
"216 1054 OFFCURVE",
"216 1112 CURVE SMOOTH",
"216 1284 OFFCURVE",
"341 1424 OFFCURVE",
"573 1424 CURVE SMOOTH",
"799.667 1424 OFFCURVE",
"933 1268.333 OFFCURVE",
"933 1047 CURVE",
"980 1047 LINE",
"982 1052 LINE",
"986 1309.333 OFFCURVE",
"844.333 1462.667 OFFCURVE",
"603 1476 CURVE",
"603 1663 LINE",
"548 1663 LINE",
"548 1476 LINE",
"312 1466.667 OFFCURVE",
"162 1323.333 OFFCURVE",
"162 1110 CURVE SMOOTH",
"162 962 OFFCURVE",
"217 870.333 OFFCURVE",
"337 801 CURVE SMOOTH",
"397 766.333 OFFCURVE",
"474.667 733.333 OFFCURVE",
"570 702 CURVE SMOOTH",
"759.333 634 OFFCURVE",
"862.833 572.167 OFFCURVE",
"907.5 491.5 CURVE SMOOTH",
"929.833 451.167 OFFCURVE",
"941 402 OFFCURVE",
"941 344 CURVE SMOOTH",
"941 230.667 OFFCURVE",
"878 131.167 OFFCURVE",
"770 74.5 CURVE SMOOTH",
"716 46.167 OFFCURVE",
"652.667 32 OFFCURVE",
"580 32 CURVE SMOOTH",
"342.751 32 OFFCURVE",
"169 153.042 OFFCURVE",
"169 409 CURVE",
"123 409 LINE",
"121 403 LINE",
"117 212.333 OFFCURVE",
"198.5 90.333 OFFCURVE",
"332.5 29 CURVE SMOOTH",
"399.5 -1.667 OFFCURVE",
"475 -18.333 OFFCURVE",
"559 -21 CURVE",
"559 -208 LINE",
"559 -208 LINE"
);
}
);
width = 1110;
}
);
note = dollar;
unicode = 0024;
},
{
glyphname = percent;
lastChange = "2025-05-05 12:23:01 +0000";
layers = (
{
layerId = "1AFB1E35-9546-41E1-B92B-6969383A0DDD";
paths = (
{
closed = 1;
nodes = (
"1171 1246 LINE",
"1009 1326 LINE",
"298 188 LINE",
"460 108 LINE",
"460 108 LINE"
);
},
{
closed = 1;
nodes = (
"1222 -19 OFFCURVE",
"1318.5 35.333 OFFCURVE",
"1368.5 126 CURVE SMOOTH",
"1393.5 171.333 OFFCURVE",
"1406 223 OFFCURVE",
"1406 281 CURVE SMOOTH",
"1406 357 LINE SMOOTH",
"1406 473 OFFCURVE",
"1354.167 567.167 OFFCURVE",
"1257.5 618.5 CURVE SMOOTH",
"1209.167 644.167 OFFCURVE",
"1150 657 OFFCURVE",
"1080 657 CURVE SMOOTH",
"940 657 OFFCURVE",
"840.667 601.667 OFFCURVE",
"790 511 CURVE SMOOTH",
"764.667 465.667 OFFCURVE",
"752 414.333 OFFCURVE",
"752 357 CURVE SMOOTH",
"752 281 LINE SMOOTH",
"752 166.333 OFFCURVE",
"805.5 72 OFFCURVE",
"903.5 20 CURVE SMOOTH",
"952.5 -6 OFFCURVE",
"1012 -19 OFFCURVE",
"1082 -19 CURVE SMOOTH"
);
},
{
closed = 1;
nodes = (
"1023.333 167 OFFCURVE",
"976 219.667 OFFCURVE",
"976 281 CURVE SMOOTH",
"976 357 LINE SMOOTH",
"976 419.667 OFFCURVE",
"1010.667 470 OFFCURVE",
"1080 470 CURVE SMOOTH",
"1146.667 470 OFFCURVE",
"1182 419.667 OFFCURVE",
"1182 357 CURVE SMOOTH",
"1182 281 LINE SMOOTH",
"1182 207.667 OFFCURVE",
"1160.667 167 OFFCURVE",
"1082 167 CURVE SMOOTH"
);
},
{
closed = 1;
nodes = (
"530 800 OFFCURVE",
"626.5 854.5 OFFCURVE",
"676.5 944.5 CURVE SMOOTH",
"701.5 989.5 OFFCURVE",
"714 1041 OFFCURVE",
"714 1099 CURVE SMOOTH",
"714 1176 LINE SMOOTH",
"714 1299 OFFCURVE",
"657 1399 OFFCURVE",
"548 1447 CURVE SMOOTH",
"504 1466 OFFCURVE",
"450 1477 OFFCURVE",
"388 1477 CURVE SMOOTH",
"248 1477 OFFCURVE",
"150.667 1421.667 OFFCURVE",
"100 1331 CURVE SMOOTH",
"74.667 1285.667 OFFCURVE",
"62 1234 OFFCURVE",
"62 1176 CURVE SMOOTH",
"62 1099 LINE SMOOTH",
"62 983 OFFCURVE",
"113.5 889.833 OFFCURVE",
"211.5 838.5 CURVE SMOOTH",
"260.5 812.833 OFFCURVE",
"320 800 OFFCURVE",
"390 800 CURVE SMOOTH"
);
},
{
closed = 1;
nodes = (
"322 987 OFFCURVE",
"285 1035 OFFCURVE",
"285 1099 CURVE SMOOTH",
"285 1176 LINE SMOOTH",
"285 1240 OFFCURVE",
"321.333 1290 OFFCURVE",
"388 1290 CURVE SMOOTH",
"454.667 1290 OFFCURVE",
"492 1240 OFFCURVE",
"492 1176 CURVE SMOOTH",
"492 1099 LINE SMOOTH",
"492 1036.333 OFFCURVE",
"454 987 OFFCURVE",
"390 987 CURVE SMOOTH"
);
}
);
width = 1460;
},
{
layerId = "759DCBF5-126F-43AE-ABB8-3EC70824EECD";
paths = (
{
closed = 1;
nodes = (
"1133 1248 LINE",
"1024 1315 LINE",
"313 177 LINE",
"422 110 LINE",
"422 110 LINE"
);
},
{
closed = 1;
nodes = (
"1205.333 -21 OFFCURVE",
"1297.667 35.333 OFFCURVE",
"1347 126 CURVE SMOOTH",
"1371.667 171.333 OFFCURVE",
"1384 222.333 OFFCURVE",
"1384 279 CURVE SMOOTH",
"1384 357 LINE SMOOTH",
"1384 470.333 OFFCURVE",
"1331.667 564.833 OFFCURVE",
"1241 617.5 CURVE SMOOTH",
"1195.667 643.833 OFFCURVE",
"1142.667 657 OFFCURVE",
"1082 657 CURVE SMOOTH",
"960.667 657 OFFCURVE",
"868.333 599.667 OFFCURVE",
"819 509 CURVE SMOOTH",
"794.333 463.667 OFFCURVE",
"782 413 OFFCURVE",
"782 357 CURVE SMOOTH",
"782 279 LINE SMOOTH",
"782 165.667 OFFCURVE",
"833.333 71.167 OFFCURVE",
"924 18.5 CURVE SMOOTH",
"969.333 -7.833 OFFCURVE",
"1022.667 -21 OFFCURVE",
"1084 -21 CURVE SMOOTH"
);
},
{
closed = 1;
nodes = (
"984 101 OFFCURVE",
"928 179 OFFCURVE",
"928 279 CURVE SMOOTH",
"928 357 LINE SMOOTH",
"928 455.667 OFFCURVE",
"983.333 535 OFFCURVE",
"1082 535 CURVE SMOOTH",
"1180.667 535 OFFCURVE",
"1238 455.667 OFFCURVE",
"1238 357 CURVE SMOOTH",
"1238 279 LINE SMOOTH",
"1238 179 OFFCURVE",
"1182.667 101 OFFCURVE",
"1084 101 CURVE SMOOTH"
);
},
{
closed = 1;
nodes = (
"500.333 800 OFFCURVE",
"592.667 856.5 OFFCURVE",
"642 946.5 CURVE SMOOTH",
"666.667 991.5 OFFCURVE",
"679 1042.333 OFFCURVE",
"679 1099 CURVE SMOOTH",
"679 1176 LINE SMOOTH",
"679 1289.333 OFFCURVE",
"627.667 1384.833 OFFCURVE",
"537 1437.5 CURVE SMOOTH",
"491.667 1463.833 OFFCURVE",
"438.333 1477 OFFCURVE",
"377 1477 CURVE SMOOTH",
"255.667 1477 OFFCURVE",
"163.333 1419.667 OFFCURVE",
"114 1329 CURVE SMOOTH",
"89.333 1283.667 OFFCURVE",
"77 1232.667 OFFCURVE",
"77 1176 CURVE SMOOTH",
"77 1099 LINE SMOOTH",
"77 985.667 OFFCURVE",
"129.333 892.167 OFFCURVE",
"220 839.5 CURVE SMOOTH",
"265.333 813.167 OFFCURVE",
"318.333 800 OFFCURVE",
"379 800 CURVE SMOOTH"
);
},
{
closed = 1;
nodes = (
"279 922 OFFCURVE",
"223 1000.333 OFFCURVE",
"223 1099 CURVE SMOOTH",
"223 1176 LINE SMOOTH",
"223 1274.667 OFFCURVE",
"278.333 1355 OFFCURVE",
"377 1355 CURVE SMOOTH",
"475.667 1355 OFFCURVE",
"533 1274.667 OFFCURVE",
"533 1176 CURVE SMOOTH",
"533 1099 LINE SMOOTH",
"533 999 OFFCURVE",
"476.333 922 OFFCURVE",
"379 922 CURVE SMOOTH"
);
}
);
userData = {
assembly = "NPUSHB[ ]	/* 87 values pushed */
65 1 6 7 67 66 2 2 3 2 76 11 1 6 10 1 4 1 6 4 105 0 1 0 3 2 1 3 105 0 7 7 5 97 0 5 5 37 77 9 1 2 2 0 97 8 1 0 0 38 0 78 51 50 33 32 19 18 1 0 58 56 50 63 51 63 42 40 32 49 33 49 26 24 18 31 19 31 10 8 0 17 1 17 12 8 22 
CALL[ ]	/* CallFunction */";
};
width = 1460;
},
{
layerId = "CD48D813-7107-4EBE-8BC7-C661170EDB17";
paths = (
{
closed = 1;
nodes = (
"1108 1269 LINE",
"1063 1300 LINE",
"352 162 LINE",
"397 131 LINE",
"397 131 LINE"
);
},
{
closed = 1;
nodes = (
"1220.333 -21 OFFCURVE",
"1304.5 36.333 OFFCURVE",
"1350.5 127 CURVE SMOOTH",
"1373.5 172.333 OFFCURVE",
"1385 223 OFFCURVE",
"1385 279 CURVE SMOOTH",
"1385 357 LINE SMOOTH",
"1385 469 OFFCURVE",
"1336.5 563.667 OFFCURVE",
"1254.5 617 CURVE SMOOTH",
"1213.5 643.667 OFFCURVE",
"1166.333 657 OFFCURVE",
"1113 657 CURVE SMOOTH",
"1006.333 657 OFFCURVE",
"922.5 598.667 OFFCURVE",
"876.5 508 CURVE SMOOTH",
"853.5 462.667 OFFCURVE",
"842 412.333 OFFCURVE",
"842 357 CURVE SMOOTH",
"842 279 LINE SMOOTH",
"842 167 OFFCURVE",
"890.5 72.333 OFFCURVE",
"972.5 19 CURVE SMOOTH",
"1013.5 -7.667 OFFCURVE",
"1061 -21 OFFCURVE",
"1115 -21 CURVE SMOOTH"
);
},
{
closed = 1;
nodes = (
"973.667 34 OFFCURVE",
"897 144.333 OFFCURVE",
"897 279 CURVE SMOOTH",
"897 357 LINE SMOOTH",
"897 497 OFFCURVE",
"975.667 602 OFFCURVE",
"1113 602 CURVE SMOOTH",
"1253 602 OFFCURVE",
"1330 498.333 OFFCURVE",
"1330 357 CURVE SMOOTH",
"1330 279 LINE SMOOTH",
"1330 144.333 OFFCURVE",
"1252.333 34 OFFCURVE",
"1115 34 CURVE SMOOTH"
);
},
{
closed = 1;
nodes = (
"463 800 OFFCURVE",
"547 856 OFFCURVE",
"592 942 CURVE SMOOTH",
"616 987 OFFCURVE",
"629 1041 OFFCURVE",
"629 1099 CURVE SMOOTH",
"629 1176 LINE SMOOTH",
"629 1288 OFFCURVE",
"580.5 1383.667 OFFCURVE",
"498.5 1437 CURVE SMOOTH",
"457.5 1463.667 OFFCURVE",
"410.667 1477 OFFCURVE",
"358 1477 CURVE SMOOTH",
"251.333 1477 OFFCURVE",
"166.5 1419.833 OFFCURVE",
"120.5 1328.5 CURVE SMOOTH",
"97.5 1282.833 OFFCURVE",
"86 1232 OFFCURVE",
"86 1176 CURVE SMOOTH",
"86 1099 LINE SMOOTH",
"86 987 OFFCURVE",
"134.333 893.333 OFFCURVE",
"217 840 CURVE SMOOTH",
"258.333 813.333 OFFCURVE",
"306 800 OFFCURVE",
"360 800 CURVE SMOOTH"
);
},
{
closed = 1;
nodes = (
"218.667 855 OFFCURVE",
"141 965.667 OFFCURVE",
"141 1099 CURVE SMOOTH",
"141 1176 LINE SMOOTH",
"141 1308 OFFCURVE",
"220.667 1422 OFFCURVE",
"358 1422 CURVE SMOOTH",
"495.333 1422 OFFCURVE",
"574 1309.333 OFFCURVE",
"574 1176 CURVE SMOOTH",
"574 1099 LINE SMOOTH",
"574 965.667 OFFCURVE",
"496 855 OFFCURVE",
"360 855 CURVE SMOOTH"
);
}
);
width = 1460;
}
);
note = percent;
unicode = 0025;
},
{
glyphname = ampersand;
lastChange = "2025-05-05 12:25:00 +0000";
layers = (
{
layerId = "1AFB1E35-9546-41E1-B92B-6969383A0DDD";
paths = (
{
closed = 1;
nodes = (
"1321 0 LINE",
"1323 5 LINE",
"1101 261 LINE",
"1190 382 OFFCURVE",
"1230 542 OFFCURVE",
"1230 731 CURVE",
"986 731 LINE",
"986 635 OFFCURVE",
"959 549 OFFCURVE",
"917 474 CURVE",
"681 742 LINE",
"764 799 LINE SMOOTH",
"862 868 OFFCURVE",
"931 992 OFFCURVE",
"931 1123 CURVE SMOOTH",
"931 1255 OFFCURVE",
"868 1366 OFFCURVE",
"759 1430 CURVE SMOOTH",
"706 1461 OFFCURVE",
"643 1477 OFFCURVE",
"572 1477 CURVE SMOOTH",
"329 1477 OFFCURVE",
"156 1321 OFFCURVE",
"156 1080 CURVE SMOOTH",
"156 977 OFFCURVE",
"196 883 OFFCURVE",
"279 765 CURVE",
"251 744 LINE SMOOTH",
"98 630 OFFCURVE",
"27 537 OFFCURVE",
"27 392 CURVE SMOOTH",
"27 228 OFFCURVE",
"109 100 OFFCURVE",
"251 31 CURVE SMOOTH",
"323 -4 OFFCURVE",
"407 -21 OFFCURVE",
"504 -21 CURVE SMOOTH",
"640 -21 OFFCURVE",
"749 12 OFFCURVE",
"866 81 CURVE",
"938 0 LINE"
);
},
{
closed = 1;
nodes = (
"448 246 OFFCURVE",
"378 319 OFFCURVE",
"378 416 CURVE SMOOTH",
"378 475 OFFCURVE",
"393 517 OFFCURVE",
"427 566 CURVE",
"433 569 LINE",
"696 275 LINE",
"641 255 OFFCURVE",
"584 246 OFFCURVE",
"529 246 CURVE SMOOTH"
);
},
{
closed = 1;
nodes = (
"480 985 OFFCURVE",
"456 1034 OFFCURVE",
"456 1083 CURVE SMOOTH",
"456 1156 OFFCURVE",
"497 1209 OFFCURVE",
"570 1209 CURVE SMOOTH",
"633 1209 OFFCURVE",
"676 1156 OFFCURVE",
"676 1097 CURVE SMOOTH",
"676 1045 OFFCURVE",
"657 1002 OFFCURVE",
"582 955 CURVE SMOOTH",
"529 923 LINE"
);
}
);
width = 1289;
},
{
layerId = "759DCBF5-126F-43AE-ABB8-3EC70824EECD";
paths = (
{
closed = 1;
nodes = (
"1240 0 LINE",
"1242 5 LINE",
"1057 229 LINE",
"1156 348 OFFCURVE",
"1209 498 OFFCURVE",
"1209 673 CURVE",
"1033 673 LINE",
"1033 556 OFFCURVE",
"1001 449 OFFCURVE",
"946 362 CURVE",
"606 771 LINE",
"715 851 LINE SMOOTH",
"852 951 OFFCURVE",
"923 1036 OFFCURVE",
"923 1167 CURVE SMOOTH",
"923 1282 OFFCURVE",
"860 1379 OFFCURVE",
"753 1435 CURVE SMOOTH",
"700 1463 OFFCURVE",
"638 1477 OFFCURVE",
"567 1477 CURVE SMOOTH",
"335 1477 OFFCURVE",
"201 1348 OFFCURVE",
"201 1125 CURVE SMOOTH",
"201 1016 OFFCURVE",
"251 921 OFFCURVE",
"355 789 CURVE",
"345 783 LINE SMOOTH",
"164 661 OFFCURVE",
"74 552 OFFCURVE",
"74 392 CURVE SMOOTH",
"74 229 OFFCURVE",
"156 102 OFFCURVE",
"298 32 CURVE SMOOTH",
"369 -3 OFFCURVE",
"452 -21 OFFCURVE",
"548 -21 CURVE SMOOTH",
"687 -21 OFFCURVE",
"819 22 OFFCURVE",
"926 102 CURVE",
"1011 0 LINE"
);
},
{
closed = 1;
nodes = (
"368 133 OFFCURVE",
"271 241 OFFCURVE",
"271 392 CURVE SMOOTH",
"271 459 OFFCURVE",
"299 543 OFFCURVE",
"421 634 CURVE SMOOTH",
"461 663 LINE",
"822 228 LINE",
"740 167 OFFCURVE",
"644 133 OFFCURVE",
"548 133 CURVE SMOOTH"
);
},
{
closed = 1;
nodes = (
"434 982 OFFCURVE",
"398 1056 OFFCURVE",
"398 1127 CURVE SMOOTH",
"398 1236 OFFCURVE",
"459 1322 OFFCURVE",
"567 1322 CURVE SMOOTH",
"671 1322 OFFCURVE",
"742 1248 OFFCURVE",
"742 1167 CURVE SMOOTH",
"742 1095 OFFCURVE",
"719 1036 OFFCURVE",
"644 986 CURVE SMOOTH",
"506 891 LINE"
);
}
);
userData = {
assembly = "MPPEM[ ]	/* MeasurePixelPerEm */
PUSHB[ ]	/* 1 value pushed */
22 
LT[ ]	/* LessThan */
IF[ ]	/* If */
NPUSHB[ ]	/* 18 values pushed */
25 7 2 2 5 44 43 33 26 4 4 2 37 1 0 4 3 76 
ELSE[ ]	/* Else */
NPUSHB[ ]	/* 18 values pushed */
25 7 2 2 5 44 43 33 26 4 4 2 37 1 3 4 3 76 
EIF[ ]	/* EndIf */
MPPEM[ ]	/* MeasurePixelPerEm */
PUSHB[ ]	/* 1 value pushed */
22 
LT[ ]	/* LessThan */
IF[ ]	/* If */
NPUSHB[ ]	/* 36 values pushed */
0 5 5 1 97 0 1 1 37 77 0 2 2 0 97 3 6 2 0 0 38 77 7 1 4 4 0 97 3 6 2 0 0 38 0 78 
ELSE[ ]	/* Else */
NPUSHB[ ]	/* 33 values pushed */
0 5 5 1 97 0 1 1 37 77 0 2 2 3 95 0 3 3 32 77 7 1 4 4 0 97 6 1 0 0 38 0 78 
EIF[ ]	/* EndIf */
NPUSHB[ ]	/* 23 values pushed */
41 40 1 0 59 57 40 50 41 50 36 34 30 29 18 16 0 39 1 39 8 8 22 
CALL[ ]	/* CallFunction */";
};
width = 1289;
},
{
layerId = "CD48D813-7107-4EBE-8BC7-C661170EDB17";
paths = (
{
closed = 1;
nodes = (
"1190 0 LINE",
"1192 5 LINE",
"1007 216 LINE",
"1091 331 OFFCURVE",
"1140 465 OFFCURVE",
"1140 632 CURVE",
"1085 632 LINE",
"1085 487 OFFCURVE",
"1042 358 OFFCURVE",
"970 257 CURVE",
"495 797 LINE",
"697 958 LINE SMOOTH",
"791 1033 OFFCURVE",
"844 1103 OFFCURVE",
"844 1215 CURVE SMOOTH",
"844 1311 OFFCURVE",
"807 1389 OFFCURVE",
"736 1434 CURVE SMOOTH",
"692 1461 OFFCURVE",
"636 1477 OFFCURVE",
"568 1477 CURVE SMOOTH",
"376 1477 OFFCURVE",
"263 1363 OFFCURVE",
"263 1167 CURVE SMOOTH",
"263 1046 OFFCURVE",
"314 940 OFFCURVE",
"423 803 CURVE",
"372 762 LINE SMOOTH",
"211 626 OFFCURVE",
"116 504 OFFCURVE",
"116 352 CURVE SMOOTH",
"116 199 OFFCURVE",
"188 86 OFFCURVE",
"318 25 CURVE SMOOTH",
"382 -5 OFFCURVE",
"460 -21 OFFCURVE",
"550 -21 CURVE SMOOTH",
"745 -21 OFFCURVE",
"872 72 OFFCURVE",
"973 177 CURVE",
"1130 0 LINE"
);
},
{
closed = 1;
nodes = (
"305 33 OFFCURVE",
"170 173 OFFCURVE",
"170 352 CURVE SMOOTH",
"170 456 OFFCURVE",
"221 566 OFFCURVE",
"403 723 CURVE",
"455 764 LINE",
"938 216 LINE",
"837 99 OFFCURVE",
"697 33 OFFCURVE",
"550 33 CURVE SMOOTH"
);
},
{
closed = 1;
nodes = (
"363 951 OFFCURVE",
"318 1064 OFFCURVE",
"318 1169 CURVE SMOOTH",
"318 1314 OFFCURVE",
"408 1423 OFFCURVE",
"568 1423 CURVE SMOOTH",
"711 1423 OFFCURVE",
"788 1340 OFFCURVE",
"788 1215 CURVE SMOOTH",
"788 1138 OFFCURVE",
"751 1066 OFFCURVE",
"672 1000 CURVE SMOOTH",
"463 834 LINE"
);
}
);
width = 1289;
}
);
note = ampersand;
unicode = 0026;
},
{
glyphname = quotesingle;
lastChange = "2025-05-05 12:22:04 +0000";
layers = (
{
layerId = "1AFB1E35-9546-41E1-B92B-6969383A0DDD";
paths = (
{
closed = 1;
nodes = (
"271 1017 LINE",
"375 1285 LINE",
"375 1560 LINE",
"122 1560 LINE",
"122 1017 LINE",
"122 1017 LINE"
);
}
);
width = 460;
},
{
layerId = "759DCBF5-126F-43AE-ABB8-3EC70824EECD";
paths = (
{
closed = 1;
nodes = (
"263 1055 LINE",
"324 1337 LINE",
"324 1560 LINE",
"166 1560 LINE",
"166 1055 LINE",
"166 1055 LINE"
);
}
);
userData = {
assembly = "NPUSHB[ ]	/* 22 values pushed */
0 1 0 1 1 76 0 0 0 1 95 0 1 1 33 0 78 17 17 2 8 24 
CALL[ ]	/* CallFunction */";
};
width = 460;
},
{
layerId = "CD48D813-7107-4EBE-8BC7-C661170EDB17";
paths = (
{
closed = 1;
nodes = (
"246 1122 LINE",
"266 1391 LINE",
"266 1560 LINE",
"211 1560 LINE",
"196 1122 LINE",
"196 1122 LINE"
);
}
);
width = 460;
}
);
note = quotesingle;
unicode = 0027;
},
{
glyphname = parenleft;
lastChange = "2025-05-05 12:22:04 +0000";
layers = (
{
layerId = "1AFB1E35-9546-41E1-B92B-6969383A0DDD";
paths = (
{
closed = 1;
nodes = (
"577 -442 LINE",
"640 -277 LINE",
"556 -215.667 OFFCURVE",
"484 -117.667 OFFCURVE",
"432 21 CURVE SMOOTH",
"380 159.667 OFFCURVE",
"350 338.333 OFFCURVE",
"350 561 CURVE SMOOTH",
"350 595 LINE SMOOTH",
"350 816.333 OFFCURVE",
"380 995.333 OFFCURVE",
"432 1134 CURVE SMOOTH",
"484 1272.667 OFFCURVE",
"556 1371.667 OFFCURVE",
"640 1433 CURVE",
"577 1598 LINE",
"571 1597 LINE",
"436.333 1547.667 OFFCURVE",
"313 1428.667 OFFCURVE",
"221 1254 CURVE SMOOTH",
"129 1079.333 OFFCURVE",
"73 853 OFFCURVE",
"73 593 CURVE SMOOTH",
"73 563 LINE SMOOTH",
"73 301.667 OFFCURVE",
"129 75.667 OFFCURVE",
"221 -99 CURVE SMOOTH",
"313 -273.667 OFFCURVE",
"436.333 -392.667 OFFCURVE",
"571 -442 CURVE"
);
}
);
width = 662;
},
{
layerId = "759DCBF5-126F-43AE-ABB8-3EC70824EECD";
paths = (
{
closed = 1;
nodes = (
"613 -463 LINE",
"650 -355 LINE",
"558 -277.667 OFFCURVE",
"473.5 -160.167 OFFCURVE",
"411.5 -3.5 CURVE SMOOTH",
"349.5 153.167 OFFCURVE",
"311 348 OFFCURVE",
"311 580 CURVE SMOOTH",
"311 593 LINE SMOOTH",
"311 825 OFFCURVE",
"349.333 1020 OFFCURVE",
"412 1176 CURVE SMOOTH",
"474.667 1332 OFFCURVE",
"558 1447 OFFCURVE",
"650 1519 CURVE",
"613 1635 LINE",
"607 1636 LINE",
"491 1574.667 OFFCURVE",
"369 1445.333 OFFCURVE",
"273 1264 CURVE SMOOTH",
"177 1082.667 OFFCURVE",
"114 853.667 OFFCURVE",
"114 591 CURVE SMOOTH",
"114 582 LINE SMOOTH",
"114 318 OFFCURVE",
"177 89.167 OFFCURVE",
"273 -91.5 CURVE SMOOTH",
"369 -272.167 OFFCURVE",
"491 -400.333 OFFCURVE",
"607 -463 CURVE"
);
}
);
userData = {
assembly = "PUSHB[ ]	/* 4 values pushed */
12 0 1 50 
CALL[ ]	/* CallFunction */";
};
width = 662;
},
{
layerId = "CD48D813-7107-4EBE-8BC7-C661170EDB17";
paths = (
{
closed = 1;
nodes = (
"551 -463 LINE",
"567 -427 LINE",
"465.667 -359 OFFCURVE",
"371.667 -220.167 OFFCURVE",
"301 -39.5 CURVE SMOOTH",
"230.333 141.167 OFFCURVE",
"188 352 OFFCURVE",
"188 564 CURVE SMOOTH",
"188 590 LINE SMOOTH",
"188 800.667 OFFCURVE",
"230.333 1011.833 OFFCURVE",
"301 1192.5 CURVE SMOOTH",
"371.667 1373.167 OFFCURVE",
"465.667 1512 OFFCURVE",
"567 1580 CURVE",
"551 1616 LINE",
"545 1616 LINE",
"431.667 1548 OFFCURVE",
"329.833 1404.5 OFFCURVE",
"254.5 1218.5 CURVE SMOOTH",
"179.167 1032.5 OFFCURVE",
"134 811.333 OFFCURVE",
"134 586 CURVE SMOOTH",
"134 566 LINE SMOOTH",
"134 330 OFFCURVE",
"178.167 109.5 OFFCURVE",
"253.5 -72.5 CURVE SMOOTH",
"328.833 -254.5 OFFCURVE",
"430.333 -392.333 OFFCURVE",
"545 -463 CURVE"
);
}
);
width = 662;
}
);
note = parenleft;
unicode = 0028;
},
{
glyphname = parenright;
lastChange = "2025-05-05 12:22:04 +0000";
layers = (
{
layerId = "1AFB1E35-9546-41E1-B92B-6969383A0DDD";
paths = (
{
closed = 1;
nodes = (
"103 -442 LINE",
"240.333 -394 OFFCURVE",
"368.667 -269.5 OFFCURVE",
"466 -91.5 CURVE SMOOTH",
"563.333 86.5 OFFCURVE",
"623 312.333 OFFCURVE",
"623 563 CURVE SMOOTH",
"623 593 LINE SMOOTH",
"623 842.333 OFFCURVE",
"563.333 1067.333 OFFCURVE",
"466 1246 CURVE SMOOTH",
"368.667 1424.667 OFFCURVE",
"240.333 1549 OFFCURVE",
"103 1597 CURVE",
"97 1597 LINE",
"32 1434 LINE",
"116 1372.667 OFFCURVE",
"188 1272.667 OFFCURVE",
"240 1134 CURVE SMOOTH",
"292 995.333 OFFCURVE",
"322 816.333 OFFCURVE",
"322 595 CURVE SMOOTH",
"322 561 LINE SMOOTH",
"322 339.667 OFFCURVE",
"292.167 160.5 OFFCURVE",
"239.5 22.5 CURVE SMOOTH",
"186.833 -115.5 OFFCURVE",
"116 -214.333 OFFCURVE",
"32 -277 CURVE",
"97 -442 LINE",
"97 -442 LINE"
);
}
);
width = 662;
},
{
layerId = "759DCBF5-126F-43AE-ABB8-3EC70824EECD";
paths = (
{
closed = 1;
nodes = (
"61 -463 LINE",
"177 -400.333 OFFCURVE",
"297.833 -272.167 OFFCURVE",
"394.5 -91.5 CURVE SMOOTH",
"491.167 89.167 OFFCURVE",
"554 318 OFFCURVE",
"554 582 CURVE SMOOTH",
"554 591 LINE SMOOTH",
"554 853.667 OFFCURVE",
"491.167 1082.667 OFFCURVE",
"394.5 1264 CURVE SMOOTH",
"297.833 1445.333 OFFCURVE",
"177 1574.667 OFFCURVE",
"61 1636 CURVE",
"55 1636 LINE",
"18 1528 LINE",
"104.667 1454.667 OFFCURVE",
"188 1335.667 OFFCURVE",
"252 1177 CURVE SMOOTH",
"316 1018.333 OFFCURVE",
"357 821 OFFCURVE",
"357 593 CURVE SMOOTH",
"357 580 LINE SMOOTH",
"357 348 OFFCURVE",
"317.667 148.5 OFFCURVE",
"255 -9.5 CURVE SMOOTH",
"192.333 -167.5 OFFCURVE",
"108.667 -284.333 OFFCURVE",
"18 -355 CURVE",
"55 -463 LINE",
"55 -463 LINE"
);
}
);
userData = {
assembly = "PUSHB[ ]	/* 4 values pushed */
14 0 1 50 
CALL[ ]	/* CallFunction */";
};
width = 662;
},
{
layerId = "CD48D813-7107-4EBE-8BC7-C661170EDB17";
paths = (
{
closed = 1;
nodes = (
"103 -463 LINE",
"217.667 -392.333 OFFCURVE",
"319.333 -254.5 OFFCURVE",
"394 -72.5 CURVE SMOOTH",
"468.667 109.5 OFFCURVE",
"514 330 OFFCURVE",
"514 566 CURVE SMOOTH",
"514 586 LINE SMOOTH",
"514 811.333 OFFCURVE",
"469 1032.5 OFFCURVE",
"393 1218.5 CURVE SMOOTH",
"317 1404.5 OFFCURVE",
"215 1548 OFFCURVE",
"103 1616 CURVE",
"97 1616 LINE",
"81 1580 LINE",
"182.333 1512 OFFCURVE",
"276.5 1373.167 OFFCURVE",
"346.5 1192.5 CURVE SMOOTH",
"416.5 1011.833 OFFCURVE",
"460 800.667 OFFCURVE",
"460 590 CURVE SMOOTH",
"460 564 LINE SMOOTH",
"460 352 OFFCURVE",
"416.5 141.167 OFFCURVE",
"346.5 -39.5 CURVE SMOOTH",
"276.5 -220.167 OFFCURVE",
"182.333 -359 OFFCURVE",
"81 -427 CURVE",
"97 -463 LINE",
"97 -463 LINE"
);
}
);
width = 662;
}
);
note = parenright;
unicode = 0029;
},
{
glyphname = asterisk;
lastChange = "2025-05-05 12:43:34 +0000";
layers = (
{
layerId = "1AFB1E35-9546-41E1-B92B-6969383A0DDD";
paths = (
{
closed = 1;
nodes = (
"806 680 LINE",
"602 942 LINE",
"910 1031 LINE",
"849 1226 LINE",
"559 1100 LINE",
"586 1456 LINE",
"381 1456 LINE",
"404 1106 LINE",
"106 1236 LINE",
"44 1045 LINE",
"350 956 LINE",
"136 685 LINE",
"300 571 LINE",
"471 853 LINE",
"642 562 LINE"
);
}
);
width = 958;
},
{
layerId = "759DCBF5-126F-43AE-ABB8-3EC70824EECD";
paths = (
{
closed = 1;
nodes = (
"784 703 LINE",
"591 973 LINE",
"893 1062 LINE",
"845 1218 LINE",
"552 1108 LINE",
"562 1456 LINE",
"401 1456 LINE",
"411 1114 LINE",
"115 1225 LINE",
"66 1071 LINE",
"362 982 LINE",
"164 708 LINE",
"296 615 LINE",
"472 894 LINE",
"653 607 LINE"
);
}
);
userData = {
assembly = "NPUSHB[ ]	/* 25 values pushed */
14 13 12 9 8 7 6 5 4 3 2 1 12 0 73 0 0 0 31 0 78 26 1 8 23 
CALL[ ]	/* CallFunction */";
};
width = 958;
},
{
layerId = "CD48D813-7107-4EBE-8BC7-C661170EDB17";
paths = (
{
closed = 1;
nodes = (
"766 697 LINE",
"517 1014 LINE",
"877 1151 LINE",
"857 1204 LINE",
"505 1061 LINE",
"512 1456 LINE",
"456 1456 LINE",
"455 1062 LINE",
"93 1195 LINE",
"75 1141 LINE",
"438 1017 LINE",
"204 693 LINE",
"249 661 LINE",
"477 986 LINE",
"719 664 LINE"
);
}
);
width = 958;
}
);
note = asterisk;
unicode = 002A;
},
{
glyphname = plus;
lastChange = "2025-05-05 12:22:04 +0000";
layers = (
{
layerId = "1AFB1E35-9546-41E1-B92B-6969383A0DDD";
paths = (
{
closed = 1;
nodes = (
"749 146 LINE",
"749 532 LINE",
"1082 532 LINE",
"1082 830 LINE",
"749 830 LINE",
"749 1206 LINE",
"422 1206 LINE",
"422 830 LINE",
"84 830 LINE",
"84 532 LINE",
"422 532 LINE",
"422 146 LINE",
"422 146 LINE"
);
}
);
width = 1145;
},
{
layerId = "759DCBF5-126F-43AE-ABB8-3EC70824EECD";
paths = (
{
closed = 1;
nodes = (
"671 146 LINE",
"671 605 LINE",
"1071 605 LINE",
"1071 783 LINE",
"671 783 LINE",
"671 1206 LINE",
"474 1206 LINE",
"474 783 LINE",
"73 783 LINE",
"73 605 LINE",
"474 605 LINE",
"474 146 LINE",
"474 146 LINE"
);
}
);
userData = {
assembly = "NPUSHB[ ]	/* 41 values pushed */
0 3 2 0 3 87 4 1 2 6 5 2 1 0 2 1 103 0 3 3 0 95 0 0 3 0 79 0 0 0 11 0 11 17 17 17 17 17 7 8 27 
CALL[ ]	/* CallFunction */";
};
width = 1145;
},
{
layerId = "CD48D813-7107-4EBE-8BC7-C661170EDB17";
paths = (
{
closed = 1;
nodes = (
"590 146 LINE",
"590 649 LINE",
"1071 649 LINE",
"1071 702 LINE",
"590 702 LINE",
"590 1206 LINE",
"535 1206 LINE",
"535 702 LINE",
"73 702 LINE",
"73 649 LINE",
"535 649 LINE",
"535 146 LINE",
"535 146 LINE"
);
}
);
width = 1145;
}
);
note = plus;
unicode = 002B;
},
{
glyphname = comma;
lastChange = "2025-05-05 12:22:04 +0000";
layers = (
{
layerId = "1AFB1E35-9546-41E1-B92B-6969383A0DDD";
paths = (
{
closed = 1;
nodes = (
"277.667 -298.333 OFFCURVE",
"376 -154.333 OFFCURVE",
"376 19 CURVE SMOOTH",
"377 257 LINE",
"75 257 LINE",
"75 -2 LINE SMOOTH",
"75 -131.333 OFFCURVE",
"48.333 -225.333 OFFCURVE",
"3 -316 CURVE",
"167 -397 LINE",
"167 -397 LINE"
);
}
);
width = 404;
},
{
layerId = "759DCBF5-126F-43AE-ABB8-3EC70824EECD";
paths = (
{
closed = 1;
nodes = (
"244.667 -216.333 OFFCURVE",
"315 -58.667 OFFCURVE",
"315 72 CURVE SMOOTH",
"315 221 LINE",
"118 221 LINE",
"118 69 LINE SMOOTH",
"118 -43 OFFCURVE",
"85.667 -141 OFFCURVE",
"23 -237 CURVE",
"134 -311 LINE",
"134 -311 LINE"
);
}
);
userData = {
assembly = "NPUSHB[ ]	/* 12 values pushed */
1 1 0 73 0 0 0 118 21 1 8 23 
CALL[ ]	/* CallFunction */";
};
width = 404;
},
{
layerId = "CD48D813-7107-4EBE-8BC7-C661170EDB17";
paths = (
{
closed = 1;
nodes = (
"195.667 -183 OFFCURVE",
"235 -90.333 OFFCURVE",
"235 27 CURVE SMOOTH",
"235 159 LINE",
"181 159 LINE",
"181 25 LINE SMOOTH",
"181 -73.667 OFFCURVE",
"153.333 -141.667 OFFCURVE",
"92 -223 CURVE",
"129 -255 LINE",
"129 -255 LINE"
);
}
);
width = 404;
}
);
note = comma;
unicode = 002C;
},
{
glyphname = hyphen;
lastChange = "2025-05-05 12:22:04 +0000";
layers = (
{
layerId = "1AFB1E35-9546-41E1-B92B-6969383A0DDD";
paths = (
{
closed = 1;
nodes = (
"705 493 LINE",
"705 762 LINE",
"95 762 LINE",
"95 493 LINE",
"95 493 LINE"
);
}
);
width = 797;
},
{
layerId = "759DCBF5-126F-43AE-ABB8-3EC70824EECD";
paths = (
{
closed = 1;
nodes = (
"643 538 LINE",
"643 692 LINE",
"154 692 LINE",
"154 538 LINE",
"154 538 LINE"
);
}
);
userData = {
assembly = "NPUSHB[ ]	/* 28 values pushed */
2 1 1 0 0 1 87 2 1 1 1 0 95 0 0 1 0 79 0 0 0 3 0 3 17 3 8 23 
CALL[ ]	/* CallFunction */";
};
width = 797;
},
{
layerId = "CD48D813-7107-4EBE-8BC7-C661170EDB17";
paths = (
{
closed = 1;
nodes = (
"629 599 LINE",
"629 653 LINE",
"159 653 LINE",
"159 599 LINE",
"159 599 LINE"
);
}
);
width = 797;
}
);
note = hyphen;
unicode = 002D;
},
{
glyphname = period;
lastChange = "2025-05-05 12:22:04 +0000";
layers = (
{
layerId = "1AFB1E35-9546-41E1-B92B-6969383A0DDD";
paths = (
{
closed = 1;
nodes = (
"427 0 LINE",
"427 290 LINE",
"78 290 LINE",
"78 0 LINE",
"78 0 LINE"
);
}
);
width = 493;
},
{
layerId = "759DCBF5-126F-43AE-ABB8-3EC70824EECD";
paths = (
{
closed = 1;
nodes = (
"342 0 LINE",
"342 202 LINE",
"145 202 LINE",
"145 0 LINE",
"145 0 LINE"
);
}
);
userData = {
assembly = "NPUSHB[ ]	/* 22 values pushed */
2 1 1 1 0 95 0 0 0 32 0 78 0 0 0 3 0 3 17 3 8 23 
CALL[ ]	/* CallFunction */";
};
width = 493;
},
{
layerId = "CD48D813-7107-4EBE-8BC7-C661170EDB17";
paths = (
{
closed = 1;
nodes = (
"291 0 LINE",
"291 130 LINE",
"205 130 LINE",
"205 0 LINE",
"205 0 LINE"
);
}
);
width = 493;
}
);
note = period;
unicode = 002E;
},
{
glyphname = slash;
lastChange = "2025-05-05 12:22:04 +0000";
layers = (
{
layerId = "1AFB1E35-9546-41E1-B92B-6969383A0DDD";
paths = (
{
closed = 1;
nodes = (
"275 -125 LINE",
"872 1456 LINE",
"539 1456 LINE",
"-57 -125 LINE",
"-57 -125 LINE"
);
}
);
width = 824;
},
{
layerId = "759DCBF5-126F-43AE-ABB8-3EC70824EECD";
paths = (
{
closed = 1;
nodes = (
"187 -125 LINE",
"794 1456 LINE",
"628 1456 LINE",
"20 -125 LINE",
"20 -125 LINE"
);
}
);
userData = {
assembly = "NPUSHB[ ]	/* 22 values pushed */
0 0 1 0 134 2 1 1 1 31 1 78 0 0 0 3 0 3 17 3 8 23 
CALL[ ]	/* CallFunction */";
};
width = 824;
},
{
layerId = "CD48D813-7107-4EBE-8BC7-C661170EDB17";
paths = (
{
closed = 1;
nodes = (
"133 -125 LINE",
"741 1456 LINE",
"682 1456 LINE",
"74 -125 LINE",
"74 -125 LINE"
);
}
);
width = 824;
}
);
note = slash;
unicode = 002F;
},
{
glyphname = zero;
lastChange = "2025-05-05 12:25:14 +0000";
layers = (
{
layerId = "1AFB1E35-9546-41E1-B92B-6969383A0DDD";
paths = (
{
closed = 1;
nodes = (
"897.667 -21 OFFCURVE",
"1095 180.667 OFFCURVE",
"1095 574 CURVE SMOOTH",
"1095 881 LINE SMOOTH",
"1095 1273 OFFCURVE",
"895.667 1477 OFFCURVE",
"585 1477 CURVE SMOOTH",
"271.667 1477 OFFCURVE",
"74 1273 OFFCURVE",
"74 881 CURVE SMOOTH",
"74 574 LINE SMOOTH",
"74 180.667 OFFCURVE",
"271 -21 OFFCURVE",
"587 -21 CURVE SMOOTH"
);
},
{
closed = 1;
nodes = (
"477.667 246 OFFCURVE",
"423 330 OFFCURVE",
"423 554 CURVE SMOOTH",
"423 903 LINE SMOOTH",
"423 1123 OFFCURVE",
"478.333 1209 OFFCURVE",
"585 1209 CURVE SMOOTH",
"687.667 1209 OFFCURVE",
"746 1121.667 OFFCURVE",
"746 903 CURVE SMOOTH",
"746 554 LINE SMOOTH",
"746 414 OFFCURVE",
"727 246 OFFCURVE",
"587 246 CURVE SMOOTH"
);
}
);
width = 1168;
},
{
layerId = "759DCBF5-126F-43AE-ABB8-3EC70824EECD";
paths = (
{
closed = 1;
nodes = (
"871.667 -21 OFFCURVE",
"1048 183 OFFCURVE",
"1048 555 CURVE SMOOTH",
"1048 900 LINE SMOOTH",
"1048 1270.667 OFFCURVE",
"869.667 1477 OFFCURVE",
"583 1477 CURVE SMOOTH",
"297.667 1477 OFFCURVE",
"121 1270.667 OFFCURVE",
"121 900 CURVE SMOOTH",
"121 555 LINE SMOOTH",
"121 184.333 OFFCURVE",
"299.667 -21 OFFCURVE",
"585 -21 CURVE SMOOTH"
);
},
{
closed = 1;
nodes = (
"413 133 OFFCURVE",
"318 263 OFFCURVE",
"318 515 CURVE SMOOTH",
"318 942 LINE SMOOTH",
"318 1194 OFFCURVE",
"411 1322 OFFCURVE",
"583 1322 CURVE SMOOTH",
"757.667 1322 OFFCURVE",
"851 1194 OFFCURVE",
"851 942 CURVE SMOOTH",
"851 515 LINE SMOOTH",
"851 261.667 OFFCURVE",
"759.667 133 OFFCURVE",
"585 133 CURVE SMOOTH"
);
}
);
userData = {
assembly = "NPUSHB[ ]	/* 42 values pushed */
0 3 3 1 97 0 1 1 37 77 5 1 2 2 0 97 4 1 0 0 38 0 78 15 14 1 0 22 20 14 27 15 27 8 6 0 13 1 13 6 8 22 
CALL[ ]	/* CallFunction */";
};
width = 1168;
},
{
layerId = "CD48D813-7107-4EBE-8BC7-C661170EDB17";
paths = (
{
closed = 1;
nodes = (
"866.333 -21 OFFCURVE",
"1027 194 OFFCURVE",
"1027 574 CURVE SMOOTH",
"1027 882 LINE SMOOTH",
"1027 1260.667 OFFCURVE",
"864.333 1477 OFFCURVE",
"583 1477 CURVE SMOOTH",
"301.667 1477 OFFCURVE",
"140 1260.667 OFFCURVE",
"140 882 CURVE SMOOTH",
"140 574 LINE SMOOTH",
"140 195.333 OFFCURVE",
"303.667 -21 OFFCURVE",
"585 -21 CURVE SMOOTH"
);
},
{
closed = 1;
nodes = (
"331.667 33 OFFCURVE",
"194 240 OFFCURVE",
"194 576 CURVE SMOOTH",
"194 882 LINE SMOOTH",
"194 1220.667 OFFCURVE",
"329.667 1423 OFFCURVE",
"583 1423 CURVE SMOOTH",
"836.333 1423 OFFCURVE",
"973 1220.667 OFFCURVE",
"973 882 CURVE SMOOTH",
"973 576 LINE SMOOTH",
"973 238.667 OFFCURVE",
"837 33 OFFCURVE",
"585 33 CURVE SMOOTH"
);
}
);
width = 1168;
}
);
note = zero;
unicode = 0030;
},
{
glyphname = one;
lastChange = "2025-05-05 12:22:04 +0000";
layers = (
{
layerId = "1AFB1E35-9546-41E1-B92B-6969383A0DDD";
paths = (
{
closed = 1;
nodes = (
"816 0 LINE",
"816 205 LINE",
"582 237 LINE",
"582 1456 LINE",
"28 1354 LINE",
"28 1160 LINE",
"264 1157 LINE",
"264 237 LINE",
"30 205 LINE",
"30 0 LINE",
"30 0 LINE"
);
}
);
width = 844;
},
{
layerId = "759DCBF5-126F-43AE-ABB8-3EC70824EECD";
paths = (
{
closed = 1;
nodes = (
"767 0 LINE",
"767 126 LINE",
"543 154 LINE",
"543 1456 LINE",
"117 1364 LINE",
"117 1241 LINE",
"346 1245 LINE",
"346 154 LINE",
"121 126 LINE",
"121 0 LINE",
"121 0 LINE"
);
}
);
userData = {
assembly = "NPUSHB[ ]	/* 30 values pushed */
9 4 3 0 4 0 1 1 76 8 7 2 1 74 0 1 0 1 133 0 0 0 32 0 78 19 17 2 8 24 
CALL[ ]	/* CallFunction */";
};
width = 844;
},
{
layerId = "CD48D813-7107-4EBE-8BC7-C661170EDB17";
paths = (
{
closed = 1;
nodes = (
"764 0 LINE",
"764 54 LINE",
"471 54 LINE",
"471 1464 LINE",
"79 1380 LINE",
"79 1330 LINE",
"417 1406 LINE",
"417 54 LINE",
"124 54 LINE",
"124 0 LINE",
"124 0 LINE"
);
}
);
width = 844;
}
);
note = one;
unicode = 0031;
},
{
glyphname = two;
lastChange = "2025-05-05 12:25:40 +0000";
layers = (
{
layerId = "1AFB1E35-9546-41E1-B92B-6969383A0DDD";
paths = (
{
closed = 1;
nodes = (
"1089 0 LINE",
"1089 387 LINE",
"826 387 LINE",
"811 266 LINE",
"522 266 LINE",
"520 271 LINE",
"740 504 LINE SMOOTH",
"894.667 666.667 OFFCURVE",
"984.833 772.833 OFFCURVE",
"1025.5 873.5 CURVE SMOOTH",
"1045.833 923.833 OFFCURVE",
"1056 979 OFFCURVE",
"1056 1039 CURVE SMOOTH",
"1056 1215 OFFCURVE",
"972.5 1349.833 OFFCURVE",
"822.5 1422.5 CURVE SMOOTH",
"747.5 1458.833 OFFCURVE",
"657.667 1477 OFFCURVE",
"553 1477 CURVE SMOOTH",
"343.667 1477 OFFCURVE",
"184.5 1385.333 OFFCURVE",
"102.5 1240 CURVE SMOOTH",
"61.5 1167.333 OFFCURVE",
"42 1086 OFFCURVE",
"44 996 CURVE",
"46 990 LINE",
"389 990 LINE",
"389 1122 OFFCURVE",
"441.333 1206 OFFCURVE",
"552 1206 CURVE SMOOTH",
"653.333 1206 OFFCURVE",
"704 1130.667 OFFCURVE",
"704 1036 CURVE SMOOTH",
"704 945.887 OFFCURVE",
"658 849 OFFCURVE",
"534 719 CURVE SMOOTH",
"65 225 LINE",
"65 0 LINE",
"65 0 LINE"
);
}
);
width = 1131;
},
{
layerId = "759DCBF5-126F-43AE-ABB8-3EC70824EECD";
paths = (
{
closed = 1;
nodes = (
"1040 0 LINE",
"1040 321 LINE",
"873 321 LINE",
"857 154 LINE",
"340 154 LINE",
"338 159 LINE",
"721 576 LINE SMOOTH",
"834.333 698.667 OFFCURVE",
"916.5 807.667 OFFCURVE",
"958.5 913 CURVE SMOOTH",
"979.5 965.667 OFFCURVE",
"990 1018.667 OFFCURVE",
"990 1072 CURVE SMOOTH",
"990 1229.333 OFFCURVE",
"915.167 1354.5 OFFCURVE",
"782.5 1424.5 CURVE SMOOTH",
"716.167 1459.5 OFFCURVE",
"637 1477 OFFCURVE",
"545 1477 CURVE SMOOTH",
"349 1477 OFFCURVE",
"203.667 1393.5 OFFCURVE",
"129 1259.5 CURVE SMOOTH",
"91.667 1192.5 OFFCURVE",
"74 1117 OFFCURVE",
"76 1033 CURVE",
"78 1027 LINE",
"267 1027 LINE",
"267 1215 OFFCURVE",
"367.333 1322 OFFCURVE",
"538 1322 CURVE SMOOTH",
"702 1322 OFFCURVE",
"793 1209.333 OFFCURVE",
"793 1064 CURVE SMOOTH",
"793 902 OFFCURVE",
"666 768 OFFCURVE",
"574 665 CURVE SMOOTH",
"97 135 LINE",
"97 0 LINE",
"97 0 LINE"
);
}
);
userData = {
assembly = "PUSHB[ ]	/* 6 values pushed */
2 1 0 4 1 76 
MPPEM[ ]	/* MeasurePixelPerEm */
PUSHB[ ]	/* 1 value pushed */
16 
LT[ ]	/* LessThan */
IF[ ]	/* If */
NPUSHB[ ]	/* 35 values pushed */
0 2 1 5 1 2 5 128 0 5 4 4 5 112 0 1 1 3 97 0 3 3 37 77 0 4 4 0 96 0 0 0 32 0 78 
ELSE[ ]	/* Else */
NPUSHB[ ]	/* 36 values pushed */
0 2 1 5 1 2 5 128 0 5 4 1 5 4 126 0 1 1 3 97 0 3 3 37 77 0 4 4 0 96 0 0 0 32 0 78 
EIF[ ]	/* EndIf */
NPUSHB[ ]	/* 9 values pushed */
17 40 36 18 40 16 6 8 28 
CALL[ ]	/* CallFunction */";
};
width = 1131;
},
{
layerId = "CD48D813-7107-4EBE-8BC7-C661170EDB17";
paths = (
{
closed = 1;
nodes = (
"1016 0 LINE",
"1016 293 LINE",
"962 293 LINE",
"962 54 LINE",
"223 54 LINE",
"221 59 LINE",
"638 546 LINE SMOOTH",
"764.667 694 OFFCURVE",
"855.167 814.833 OFFCURVE",
"902.5 923.5 CURVE SMOOTH",
"926.167 977.833 OFFCURVE",
"938 1032 OFFCURVE",
"938 1086 CURVE SMOOTH",
"938 1243 OFFCURVE",
"875 1358 OFFCURVE",
"768 1421 CURVE SMOOTH",
"705 1458 OFFCURVE",
"627 1477 OFFCURVE",
"538 1477 CURVE SMOOTH",
"364.667 1477 OFFCURVE",
"232.167 1395.167 OFFCURVE",
"163.5 1266.5 CURVE SMOOTH",
"129.167 1202.167 OFFCURVE",
"113 1130.667 OFFCURVE",
"115 1052 CURVE",
"117 1046 LINE",
"163 1046 LINE",
"163 1268.667 OFFCURVE",
"299.333 1423 OFFCURVE",
"538 1423 CURVE SMOOTH",
"763.333 1423 OFFCURVE",
"883 1298 OFFCURVE",
"883 1086 CURVE SMOOTH",
"883 913 OFFCURVE",
"725 723 OFFCURVE",
"622 604 CURVE SMOOTH",
"145 54 LINE",
"145 0 LINE",
"145 0 LINE"
);
}
);
width = 1131;
}
);
note = two;
unicode = 0032;
},
{
glyphname = three;
lastChange = "2025-05-05 12:26:15 +0000";
layers = (
{
layerId = "1AFB1E35-9546-41E1-B92B-6969383A0DDD";
paths = (
{
closed = 1;
nodes = (
"747.667 -21 OFFCURVE",
"909.667 50.833 OFFCURVE",
"999 179.5 CURVE SMOOTH",
"1043.667 243.833 OFFCURVE",
"1066 320.333 OFFCURVE",
"1066 409 CURVE SMOOTH",
"1066 570.333 OFFCURVE",
"972 689.667 OFFCURVE",
"824 747 CURVE",
"970.667 820.333 OFFCURVE",
"1044 920.667 OFFCURVE",
"1044 1066 CURVE SMOOTH",
"1044 1327.333 OFFCURVE",
"845 1477 OFFCURVE",
"545 1477 CURVE SMOOTH",
"359.667 1477 OFFCURVE",
"206.333 1406.333 OFFCURVE",
"125 1285 CURVE SMOOTH",
"84.333 1224.333 OFFCURVE",
"65.333 1154 OFFCURVE",
"68 1074 CURVE",
"70 1068 LINE",
"398 1068 LINE",
"398 1153.914 OFFCURVE",
"464.536 1209 OFFCURVE",
"549 1209 CURVE SMOOTH",
"650.333 1209 OFFCURVE",
"707 1139 OFFCURVE",
"707 1043 CURVE SMOOTH",
"707 980 OFFCURVE",
"684 932 OFFCURVE",
"642 903 CURVE SMOOTH",
"613 883 OFFCURVE",
"576 872 OFFCURVE",
"532 872 CURVE SMOOTH",
"379 872 LINE",
"379 613 LINE",
"522 613 LINE SMOOTH",
"656.667 613 OFFCURVE",
"729 535.333 OFFCURVE",
"729 426 CURVE SMOOTH",
"729 319.333 OFFCURVE",
"659.667 246 OFFCURVE",
"549 246 CURVE SMOOTH",
"443.306 246 OFFCURVE",
"376 321.314 OFFCURVE",
"376 415 CURVE",
"47 415 LINE",
"46 409 LINE",
"40.041 132.919 OFFCURVE",
"267.71 -21 OFFCURVE",
"549 -21 CURVE SMOOTH"
);
}
);
width = 1106;
},
{
layerId = "759DCBF5-126F-43AE-ABB8-3EC70824EECD";
paths = (
{
closed = 1;
nodes = (
"710 -21 OFFCURVE",
"855.167 50.167 OFFCURVE",
"934.5 177.5 CURVE SMOOTH",
"974.167 241.167 OFFCURVE",
"994 317.333 OFFCURVE",
"994 406 CURVE SMOOTH",
"994 558 OFFCURVE",
"928.667 689.667 OFFCURVE",
"754 747 CURVE",
"899.333 809.667 OFFCURVE",
"972 943 OFFCURVE",
"972 1063 CURVE SMOOTH",
"972 1328.333 OFFCURVE",
"799.333 1477 OFFCURVE",
"530 1477 CURVE SMOOTH",
"351.333 1477 OFFCURVE",
"211.5 1401 OFFCURVE",
"137.5 1281 CURVE SMOOTH",
"100.5 1221 OFFCURVE",
"83 1154.333 OFFCURVE",
"85 1081 CURVE",
"87 1075 LINE",
"276 1075 LINE",
"276 1225.243 OFFCURVE",
"375.812 1322 OFFCURVE",
"530 1322 CURVE SMOOTH",
"691.333 1322 OFFCURVE",
"775 1233.667 OFFCURVE",
"775 1067 CURVE SMOOTH",
"775 963 OFFCURVE",
"745.667 887.833 OFFCURVE",
"675 848.5 CURVE SMOOTH",
"639.667 828.833 OFFCURVE",
"593 819 OFFCURVE",
"535 819 CURVE SMOOTH",
"363 819 LINE",
"363 665 LINE",
"535 665 LINE SMOOTH",
"716.333 665 OFFCURVE",
"797 582 OFFCURVE",
"797 402 CURVE SMOOTH",
"797 224.667 OFFCURVE",
"696.667 133 OFFCURVE",
"530 133 CURVE SMOOTH",
"366.659 133 OFFCURVE",
"266 230.029 OFFCURVE",
"266 384 CURVE",
"78 384 LINE",
"75 378 LINE",
"69 124 OFFCURVE",
"272 -21 OFFCURVE",
"530 -21 CURVE SMOOTH"
);
}
);
userData = {
assembly = "NPUSHB[ ]	/* 75 values pushed */
42 1 3 4 1 76 0 6 5 4 5 6 4 128 0 1 3 2 3 1 2 128 0 4 0 3 1 4 3 103 0 5 5 7 97 0 7 7 37 77 0 2 2 0 97 8 1 0 0 38 0 78 1 0 37 35 31 30 27 25 20 18 17 15 11 9 6 4 0 48 1 48 9 8 22 
CALL[ ]	/* CallFunction */";
};
width = 1106;
},
{
layerId = "CD48D813-7107-4EBE-8BC7-C661170EDB17";
paths = (
{
closed = 1;
nodes = (
"739.667 -21 OFFCURVE",
"874.667 46.667 OFFCURVE",
"948 168 CURVE SMOOTH",
"984.667 228.667 OFFCURVE",
"1003 301.333 OFFCURVE",
"1003 386 CURVE SMOOTH",
"1003 572.667 OFFCURVE",
"892.333 698.333 OFFCURVE",
"703 745 CURVE",
"867 798.333 OFFCURVE",
"971 928.667 OFFCURVE",
"971 1082 CURVE SMOOTH",
"971 1324.667 OFFCURVE",
"810.667 1477 OFFCURVE",
"560 1477 CURVE SMOOTH",
"398.667 1477 OFFCURVE",
"262.5 1406.667 OFFCURVE",
"188.5 1288 CURVE SMOOTH",
"151.5 1228.667 OFFCURVE",
"134 1159.667 OFFCURVE",
"136 1081 CURVE",
"138 1075 LINE",
"184 1075 LINE",
"184 1292 OFFCURVE",
"350 1423 OFFCURVE",
"560 1423 CURVE SMOOTH",
"794.667 1423 OFFCURVE",
"917 1282 OFFCURVE",
"917 1086 CURVE SMOOTH",
"917 967.333 OFFCURVE",
"851.333 869 OFFCURVE",
"734 813 CURVE SMOOTH",
"675.333 785 OFFCURVE",
"605.333 771 OFFCURVE",
"524 771 CURVE SMOOTH",
"413 771 LINE",
"413 715 LINE",
"524 715 LINE SMOOTH",
"785.333 715 OFFCURVE",
"949 608.667 OFFCURVE",
"949 382 CURVE SMOOTH",
"949 163.333 OFFCURVE",
"809 33 OFFCURVE",
"569 33 CURVE SMOOTH",
"339 33 OFFCURVE",
"153 181 OFFCURVE",
"153 405 CURVE",
"107 405 LINE",
"105 399 LINE",
"98.901 126.596 OFFCURVE",
"323.44 -21 OFFCURVE",
"569 -21 CURVE SMOOTH"
);
}
);
width = 1106;
}
);
note = three;
unicode = 0033;
},
{
glyphname = four;
lastChange = "2025-05-05 12:22:04 +0000";
layers = (
{
layerId = "1AFB1E35-9546-41E1-B92B-6969383A0DDD";
paths = (
{
closed = 1;
nodes = (
"1135 0 LINE",
"1135 205 LINE",
"985 237 LINE",
"985 355 LINE",
"1127 355 LINE",
"1127 574 LINE",
"985 574 LINE",
"985 1456 LINE",
"637 1456 LINE",
"55 518 LINE",
"78 355 LINE",
"635 355 LINE",
"635 237 LINE",
"483 205 LINE",
"483 0 LINE",
"483 0 LINE"
);
},
{
closed = 1;
nodes = (
"602 967 LINE",
"629 1002 LINE",
"635 1000 LINE",
"635 574 LINE",
"367 574 LINE",
"367 574 LINE"
);
}
);
width = 1187;
},
{
layerId = "759DCBF5-126F-43AE-ABB8-3EC70824EECD";
paths = (
{
closed = 1;
nodes = (
"1083 0 LINE",
"1083 126 LINE",
"920 154 LINE",
"920 336 LINE",
"1121 336 LINE",
"1121 490 LINE",
"920 490 LINE",
"920 1456 LINE",
"712 1456 LINE",
"70 447 LINE",
"70 336 LINE",
"724 336 LINE",
"724 154 LINE",
"561 126 LINE",
"561 0 LINE",
"561 0 LINE"
);
},
{
closed = 1;
nodes = (
"698 1124 LINE",
"718 1177 LINE",
"724 1175 LINE",
"724 490 LINE",
"280 490 LINE",
"280 490 LINE"
);
}
);
userData = {
assembly = "NPUSHB[ ]	/* 47 values pushed */
19 1 3 2 7 1 1 3 14 4 3 0 4 0 1 3 76 5 1 3 4 1 1 0 3 1 104 0 2 2 31 77 0 0 0 32 0 78 20 17 17 18 19 17 6 8 28 
CALL[ ]	/* CallFunction */";
};
width = 1187;
},
{
layerId = "CD48D813-7107-4EBE-8BC7-C661170EDB17";
paths = (
{
closed = 1;
nodes = (
"1016 0 LINE",
"1016 54 LINE",
"853 54 LINE",
"853 397 LINE",
"1105 397 LINE",
"1105 451 LINE",
"853 451 LINE",
"853 1456 LINE",
"788 1456 LINE",
"93 427 LINE",
"93 397 LINE",
"799 397 LINE",
"799 54 LINE",
"636 54 LINE",
"636 0 LINE",
"636 0 LINE"
);
},
{
closed = 1;
nodes = (
"715 1253 LINE",
"793 1382 LINE",
"799 1380 LINE",
"799 451 LINE",
"177 451 LINE",
"177 451 LINE"
);
}
);
width = 1187;
}
);
note = four;
unicode = 0034;
},
{
glyphname = five;
lastChange = "2025-05-05 12:26:39 +0000";
layers = (
{
layerId = "1AFB1E35-9546-41E1-B92B-6969383A0DDD";
paths = (
{
closed = 1;
nodes = (
"845 -21 OFFCURVE",
"1035 181 OFFCURVE",
"1035 469 CURVE SMOOTH",
"1035 787.986 OFFCURVE",
"881.001 963.957 OFFCURVE",
"607 958 CURVE SMOOTH",
"526.006 958 OFFCURVE",
"446.238 931.171 OFFCURVE",
"396 895 CURVE",
"433 1185 LINE",
"784 1185 LINE",
"813 1097 LINE",
"1005 1097 LINE",
"1005 1456 LINE",
"158 1456 LINE",
"77 638 LINE",
"382 621 LINE",
"402 675.667 OFFCURVE",
"453 719 OFFCURVE",
"533 719 CURVE SMOOTH",
"649 719 OFFCURVE",
"699 621.667 OFFCURVE",
"699 467 CURVE SMOOTH",
"699 343 OFFCURVE",
"657.333 246 OFFCURVE",
"544 246 CURVE SMOOTH",
"445.333 246 OFFCURVE",
"381 313 OFFCURVE",
"381 425 CURVE",
"50 402 LINE",
"48 398 LINE",
"42 135 OFFCURVE",
"288 -21 OFFCURVE",
"544 -21 CURVE SMOOTH"
);
}
);
width = 1081;
},
{
layerId = "759DCBF5-126F-43AE-ABB8-3EC70824EECD";
paths = (
{
closed = 1;
nodes = (
"815.771 -21 OFFCURVE",
"982 163.694 OFFCURVE",
"982 464 CURVE SMOOTH",
"982 755 OFFCURVE",
"828 955 OFFCURVE",
"550 953 CURVE SMOOTH",
"456.231 951.086 OFFCURVE",
"377.525 917.636 OFFCURVE",
"318 872 CURVE",
"365 1281 LINE",
"800 1281 LINE",
"819 1168 LINE",
"967 1168 LINE",
"967 1456 LINE",
"198 1456 LINE",
"114 657 LINE",
"278 640 LINE",
"310 736 OFFCURVE",
"368.333 782 OFFCURVE",
"523 782 CURVE SMOOTH",
"687 782 OFFCURVE",
"785 650 OFFCURVE",
"785 462 CURVE SMOOTH",
"785 258 OFFCURVE",
"688.667 133 OFFCURVE",
"522 133 CURVE SMOOTH",
"378 133 OFFCURVE",
"277 225.667 OFFCURVE",
"277 383 CURVE",
"99 383 LINE",
"97 377 LINE",
"91.144 121.292 OFFCURVE",
"265.744 -21 OFFCURVE",
"522 -21 CURVE SMOOTH"
);
}
);
userData = {
assembly = "NPUSHB[ ]	/* 11 values pushed */
26 1 3 7 19 18 2 1 3 2 76 
MPPEM[ ]	/* MeasurePixelPerEm */
PUSHB[ ]	/* 1 value pushed */
23 
LT[ ]	/* LessThan */
IF[ ]	/* If */
NPUSHB[ ]	/* 45 values pushed */
0 5 6 7 6 5 114 0 1 3 2 3 1 2 128 0 7 0 3 1 7 3 105 0 6 6 4 95 0 4 4 31 77 0 2 2 0 97 8 1 0 0 38 0 78 
ELSE[ ]	/* Else */
NPUSHB[ ]	/* 46 values pushed */
0 5 6 7 6 5 7 128 0 1 3 2 3 1 2 128 0 7 0 3 1 7 3 105 0 6 6 4 95 0 4 4 31 77 0 2 2 0 97 8 1 0 0 38 0 78 
EIF[ ]	/* EndIf */
NPUSHB[ ]	/* 23 values pushed */
1 0 31 29 25 24 23 22 21 20 16 14 10 8 6 4 0 37 1 37 9 8 22 
CALL[ ]	/* CallFunction */";
};
width = 1081;
},
{
layerId = "CD48D813-7107-4EBE-8BC7-C661170EDB17";
paths = (
{
closed = 1;
nodes = (
"831.443 -21 OFFCURVE",
"973 159.931 OFFCURVE",
"973 464 CURVE SMOOTH",
"973 724 OFFCURVE",
"823 922 OFFCURVE",
"573 916 CURVE SMOOTH",
"393.403 910.445 OFFCURVE",
"306.814 875.814 OFFCURVE",
"216 785 CURVE",
"277 1403 LINE",
"874 1403 LINE",
"874 1265 LINE",
"928 1265 LINE",
"928 1456 LINE",
"228 1456 LINE",
"150 662 LINE",
"191 646 LINE",
"244.333 786 OFFCURVE",
"360.667 858 OFFCURVE",
"574 858 CURVE SMOOTH",
"791.333 858 OFFCURVE",
"918 707.333 OFFCURVE",
"918 462 CURVE SMOOTH",
"918 175.333 OFFCURVE",
"801.667 33 OFFCURVE",
"543 33 CURVE SMOOTH",
"323 33 OFFCURVE",
"186 153.667 OFFCURVE",
"186 383 CURVE",
"139 383 LINE",
"137 377 LINE",
"130.985 114.348 OFFCURVE",
"305.718 -21 OFFCURVE",
"543 -21 CURVE SMOOTH"
);
}
);
width = 1081;
}
);
note = five;
unicode = 0035;
},
{
glyphname = six;
lastChange = "2025-05-05 12:27:25 +0000";
layers = (
{
layerId = "1AFB1E35-9546-41E1-B92B-6969383A0DDD";
paths = (
{
closed = 1;
nodes = (
"809 -21 OFFCURVE",
"968.833 73 OFFCURVE",
"1057.5 225 CURVE SMOOTH",
"1101.833 301 OFFCURVE",
"1124 387 OFFCURVE",
"1124 483 CURVE SMOOTH",
"1124 699 OFFCURVE",
"1044 860 OFFCURVE",
"906 936 CURVE SMOOTH",
"849 967 OFFCURVE",
"783 983 OFFCURVE",
"709 983 CURVE SMOOTH",
"590.333 983 OFFCURVE",
"490.667 943.667 OFFCURVE",
"432 877 CURVE",
"429 882 LINE",
"427.667 1088.667 OFFCURVE",
"510 1202 OFFCURVE",
"694 1202 CURVE SMOOTH",
"768.667 1202 OFFCURVE",
"849.667 1183.667 OFFCURVE",
"927 1161 CURVE",
"986 1415 LINE",
"875.333 1459 OFFCURVE",
"798 1477 OFFCURVE",
"682 1477 CURVE SMOOTH",
"443.333 1477 OFFCURVE",
"254 1373 OFFCURVE",
"150 1189 CURVE SMOOTH",
"98 1097 OFFCURVE",
"72 987.333 OFFCURVE",
"72 860 CURVE SMOOTH",
"72 567 LINE SMOOTH",
"72 324.333 OFFCURVE",
"166.667 144.667 OFFCURVE",
"328 50 CURVE SMOOTH",
"408.667 2.667 OFFCURVE",
"502.333 -21 OFFCURVE",
"609 -21 CURVE SMOOTH"
);
},
{
closed = 1;
nodes = (
"490.667 246 OFFCURVE",
"422 361.667 OFFCURVE",
"422 567 CURVE SMOOTH",
"422 652 LINE",
"457.001 690.686 OFFCURVE",
"518.039 716 OFFCURVE",
"585 716 CURVE SMOOTH",
"707.667 716 OFFCURVE",
"773 624.667 OFFCURVE",
"773 490 CURVE SMOOTH",
"773 402 OFFCURVE",
"743 323 OFFCURVE",
"691 280 CURVE SMOOTH",
"666 258 OFFCURVE",
"635 246 OFFCURVE",
"600 246 CURVE SMOOTH"
);
}
);
width = 1144;
},
{
layerId = "759DCBF5-126F-43AE-ABB8-3EC70824EECD";
paths = (
{
closed = 1;
nodes = (
"776.667 -21 OFFCURVE",
"916.333 70.667 OFFCURVE",
"991 224 CURVE SMOOTH",
"1028.333 300.667 OFFCURVE",
"1047 389.333 OFFCURVE",
"1047 490 CURVE SMOOTH",
"1047 674 OFFCURVE",
"974 823.5 OFFCURVE",
"846 905.5 CURVE SMOOTH",
"782 946.5 OFFCURVE",
"706.667 967 OFFCURVE",
"620 967 CURVE SMOOTH",
"494.667 967 OFFCURVE",
"382.667 923.333 OFFCURVE",
"308 854 CURVE",
"304 858 LINE",
"312 1168.667 OFFCURVE",
"440 1322 OFFCURVE",
"644 1322 CURVE SMOOTH",
"740 1322 OFFCURVE",
"812.333 1300.667 OFFCURVE",
"875 1270 CURVE",
"913 1417 LINE",
"849 1451.667 OFFCURVE",
"742.667 1477 OFFCURVE",
"644 1477 CURVE SMOOTH",
"432 1477 OFFCURVE",
"263.167 1367.5 OFFCURVE",
"170.5 1157.5 CURVE SMOOTH",
"124.167 1052.5 OFFCURVE",
"101 923 OFFCURVE",
"101 769 CURVE SMOOTH",
"101 573 LINE SMOOTH",
"101 321 OFFCURVE",
"191.833 141.167 OFFCURVE",
"340.5 48.5 CURVE SMOOTH",
"414.833 2.167 OFFCURVE",
"499.333 -21 OFFCURVE",
"594 -21 CURVE SMOOTH"
);
},
{
closed = 1;
nodes = (
"423.333 133 OFFCURVE",
"297 283.333 OFFCURVE",
"297 554 CURVE SMOOTH",
"297 671 LINE",
"346.703 760.465 OFFCURVE",
"441.126 820 OFFCURVE",
"577 820 CURVE SMOOTH",
"747.667 820 OFFCURVE",
"850 682 OFFCURVE",
"850 490 CURVE SMOOTH",
"850 355.333 OFFCURVE",
"808 242.667 OFFCURVE",
"732 180 CURVE SMOOTH",
"694 148.667 OFFCURVE",
"648 133 OFFCURVE",
"594 133 CURVE SMOOTH"
);
}
);
userData = {
assembly = "NPUSHB[ ]	/* 72 values pushed */
12 1 2 1 13 1 3 2 19 1 5 3 42 1 4 5 4 76 0 3 0 5 4 3 5 105 0 2 2 1 97 0 1 1 37 77 7 1 4 4 0 97 6 1 0 0 38 0 78 32 31 1 0 39 37 31 45 32 45 24 22 17 15 10 8 0 30 1 30 8 8 22 
CALL[ ]	/* CallFunction */";
};
width = 1144;
},
{
layerId = "CD48D813-7107-4EBE-8BC7-C661170EDB17";
paths = (
{
closed = 1;
nodes = (
"741.667 -21 OFFCURVE",
"876.5 68.833 OFFCURVE",
"950.5 213.5 CURVE SMOOTH",
"987.5 285.833 OFFCURVE",
"1006 368 OFFCURVE",
"1006 460 CURVE SMOOTH",
"1006 660 OFFCURVE",
"936.5 813.5 OFFCURVE",
"810.5 895.5 CURVE SMOOTH",
"747.5 936.5 OFFCURVE",
"672.333 957 OFFCURVE",
"585 957 CURVE SMOOTH",
"403.667 957 OFFCURVE",
"257.667 851.333 OFFCURVE",
"195 706 CURVE",
"195 881 LINE SMOOTH",
"195 1245 OFFCURVE",
"360.667 1423 OFFCURVE",
"594 1423 CURVE SMOOTH",
"707.333 1423 OFFCURVE",
"770 1406.667 OFFCURVE",
"858 1356 CURVE",
"879 1407 LINE",
"793.667 1456.333 OFFCURVE",
"695.333 1477 OFFCURVE",
"594 1477 CURVE SMOOTH",
"419.333 1477 OFFCURVE",
"277.5 1385.333 OFFCURVE",
"199.5 1208 CURVE SMOOTH",
"160.5 1119.333 OFFCURVE",
"141 1010 OFFCURVE",
"141 880 CURVE SMOOTH",
"141 552 LINE SMOOTH",
"141 309.333 OFFCURVE",
"218.5 136.5 OFFCURVE",
"348.5 46.5 CURVE SMOOTH",
"413.5 1.5 OFFCURVE",
"489 -21 OFFCURVE",
"575 -21 CURVE SMOOTH"
);
},
{
closed = 1;
nodes = (
"345.667 32 OFFCURVE",
"195 221.667 OFFCURVE",
"195 551 CURVE SMOOTH",
"195 554 LINE SMOOTH",
"195 745 OFFCURVE",
"374 903 OFFCURVE",
"578 903 CURVE SMOOTH",
"820.667 903 OFFCURVE",
"952 729.333 OFFCURVE",
"952 460 CURVE SMOOTH",
"952 304 OFFCURVE",
"884.333 167.333 OFFCURVE",
"771 90 CURVE SMOOTH",
"714.333 51.333 OFFCURVE",
"649 32 OFFCURVE",
"575 32 CURVE SMOOTH"
);
}
);
width = 1144;
}
);
note = six;
unicode = 0036;
},
{
glyphname = seven;
lastChange = "2025-05-05 12:27:48 +0000";
layers = (
{
layerId = "1AFB1E35-9546-41E1-B92B-6969383A0DDD";
paths = (
{
closed = 1;
nodes = (
"664 0 LINE",
"677 142 LINE SMOOTH",
"722 577 OFFCURVE",
"805 859 OFFCURVE",
"1089 1188 CURVE",
"1089 1456 LINE",
"32 1456 LINE",
"32 1058 LINE",
"291 1058 LINE",
"300 1188 LINE",
"754 1188 LINE",
"507 917 OFFCURVE",
"366 554 OFFCURVE",
"326 142 CURVE SMOOTH",
"313 0 LINE"
);
}
);
width = 1128;
},
{
layerId = "759DCBF5-126F-43AE-ABB8-3EC70824EECD";
paths = (
{
closed = 1;
nodes = (
"554 0 LINE",
"570 157 LINE SMOOTH",
"631 661 OFFCURVE",
"735 916 OFFCURVE",
"1060 1301 CURVE",
"1060 1456 LINE",
"76 1456 LINE",
"76 1134 LINE",
"244 1134 LINE",
"259 1301 LINE",
"867 1301 LINE",
"575 942 OFFCURVE",
"428 600 OFFCURVE",
"373 157 CURVE SMOOTH",
"357 0 LINE"
);
}
);
userData = {
assembly = "PUSHB[ ]	/* 5 values pushed */
12 1 1 1 75 
MPPEM[ ]	/* MeasurePixelPerEm */
PUSHB[ ]	/* 1 value pushed */
16 
LT[ ]	/* LessThan */
IF[ ]	/* If */
NPUSHB[ ]	/* 23 values pushed */
0 2 1 0 1 2 114 0 1 1 3 95 0 3 3 31 77 0 0 0 32 0 78 
ELSE[ ]	/* Else */
NPUSHB[ ]	/* 24 values pushed */
0 2 1 0 1 2 0 128 0 1 1 3 95 0 3 3 31 77 0 0 0 32 0 78 
EIF[ ]	/* EndIf */
PUSHB[ ]	/* 7 values pushed */
17 17 21 16 4 8 26 
CALL[ ]	/* CallFunction */";
};
width = 1128;
},
{
layerId = "CD48D813-7107-4EBE-8BC7-C661170EDB17";
paths = (
{
closed = 1;
nodes = (
"459 0 LINE",
"465 91 LINE",
"520 596 OFFCURVE",
"700 1025 OFFCURVE",
"1026 1402 CURVE",
"1026 1456 LINE",
"96 1456 LINE",
"96 1163 LINE",
"150 1163 LINE",
"150 1402 LINE",
"961 1402 LINE",
"659 1044 OFFCURVE",
"469 617 OFFCURVE",
"411 91 CURVE",
"405 0 LINE"
);
}
);
width = 1128;
}
);
note = seven;
unicode = 0037;
},
{
glyphname = eight;
lastChange = "2025-05-05 12:28:18 +0000";
layers = (
{
layerId = "1AFB1E35-9546-41E1-B92B-6969383A0DDD";
paths = (
{
closed = 1;
nodes = (
"881.322 -21 OFFCURVE",
"1080 133.824 OFFCURVE",
"1080 400 CURVE SMOOTH",
"1080 552 OFFCURVE",
"993.667 674.667 OFFCURVE",
"847 744 CURVE",
"975 810.667 OFFCURVE",
"1052 924.667 OFFCURVE",
"1052 1066 CURVE SMOOTH",
"1052 1240.667 OFFCURVE",
"968.167 1363.833 OFFCURVE",
"823.5 1428.5 CURVE SMOOTH",
"751.167 1460.833 OFFCURVE",
"666.667 1477 OFFCURVE",
"570 1477 CURVE SMOOTH",
"378 1477 OFFCURVE",
"229 1410.5 OFFCURVE",
"149 1288.5 CURVE SMOOTH",
"109 1227.5 OFFCURVE",
"89 1153.333 OFFCURVE",
"89 1066 CURVE SMOOTH",
"89 924.667 OFFCURVE",
"164.667 810.667 OFFCURVE",
"294 744 CURVE",
"148.667 674.667 OFFCURVE",
"60 554.667 OFFCURVE",
"60 400 CURVE SMOOTH",
"60 134.697 OFFCURVE",
"263.376 -21 OFFCURVE",
"572 -21 CURVE SMOOTH"
);
},
{
closed = 1;
nodes = (
"474.667 246 OFFCURVE",
"411 316.667 OFFCURVE",
"411 430 CURVE SMOOTH",
"411 541.381 OFFCURVE",
"473.842 610 OFFCURVE",
"570 610 CURVE SMOOTH",
"664.79 610 OFFCURVE",
"730 544.383 OFFCURVE",
"730 430 CURVE SMOOTH",
"730 314.895 OFFCURVE",
"665.962 246 OFFCURVE",
"572 246 CURVE SMOOTH"
);
},
{
closed = 1;
nodes = (
"484 879 OFFCURVE",
"441 942.667 OFFCURVE",
"441 1048 CURVE SMOOTH",
"441 1149.333 OFFCURVE",
"484.667 1209 OFFCURVE",
"570 1209 CURVE SMOOTH",
"653.237 1209 OFFCURVE",
"701 1151.2 OFFCURVE",
"701 1048 CURVE SMOOTH",
"701 939.828 OFFCURVE",
"652.723 879 OFFCURVE",
"572 879 CURVE SMOOTH"
);
}
);
width = 1131;
},
{
layerId = "759DCBF5-126F-43AE-ABB8-3EC70824EECD";
paths = (
{
closed = 1;
nodes = (
"855.493 -21 OFFCURVE",
"1039 130.405 OFFCURVE",
"1039 394 CURVE SMOOTH",
"1039 558 OFFCURVE",
"930 690.333 OFFCURVE",
"762 749 CURVE",
"907.333 805 OFFCURVE",
"999 924 OFFCURVE",
"999 1076 CURVE SMOOTH",
"999 1246.667 OFFCURVE",
"920.667 1367.333 OFFCURVE",
"790 1430 CURVE SMOOTH",
"724.667 1461.333 OFFCURVE",
"649.333 1477 OFFCURVE",
"564 1477 CURVE SMOOTH",
"392 1477 OFFCURVE",
"259 1412.833 OFFCURVE",
"187 1293.5 CURVE SMOOTH",
"151 1233.833 OFFCURVE",
"133 1161.333 OFFCURVE",
"133 1076 CURVE SMOOTH",
"133 924 OFFCURVE",
"220.667 805 OFFCURVE",
"366 749 CURVE",
"198 690.333 OFFCURVE",
"92 558 OFFCURVE",
"92 394 CURVE SMOOTH",
"92 129.52 OFFCURVE",
"272.119 -21 OFFCURVE",
"566 -21 CURVE SMOOTH"
);
},
{
closed = 1;
nodes = (
"398 133 OFFCURVE",
"289 232.667 OFFCURVE",
"289 398 CURVE SMOOTH",
"289 559.786 OFFCURVE",
"401.75 672 OFFCURVE",
"564 672 CURVE SMOOTH",
"726.759 672 OFFCURVE",
"843 558.693 OFFCURVE",
"843 398 CURVE SMOOTH",
"843 236.892 OFFCURVE",
"734.397 133 OFFCURVE",
"566 133 CURVE SMOOTH"
);
},
{
closed = 1;
nodes = (
"424.667 827 OFFCURVE",
"330 924 OFFCURVE",
"330 1072 CURVE SMOOTH",
"330 1222.667 OFFCURVE",
"424 1322 OFFCURVE",
"564 1322 CURVE SMOOTH",
"701.848 1322 OFFCURVE",
"802 1216.259 OFFCURVE",
"802 1072 CURVE SMOOTH",
"802 923.658 OFFCURVE",
"704.84 827 OFFCURVE",
"566 827 CURVE SMOOTH"
);
}
);
userData = {
assembly = "NPUSHB[ ]	/* 66 values pushed */
21 7 2 3 4 1 76 8 1 4 0 3 2 4 3 105 0 5 5 1 97 0 1 1 37 77 7 1 2 2 0 97 6 1 0 0 38 0 78 44 43 29 28 1 0 52 50 43 56 44 56 37 35 28 42 29 42 15 13 0 27 1 27 9 8 22 
CALL[ ]	/* CallFunction */";
};
width = 1131;
},
{
layerId = "CD48D813-7107-4EBE-8BC7-C661170EDB17";
paths = (
{
closed = 1;
nodes = (
"847.5 -21 OFFCURVE",
"1030 129.644 OFFCURVE",
"1030 379 CURVE SMOOTH",
"1030 555 OFFCURVE",
"903.333 694.333 OFFCURVE",
"718 745 CURVE",
"879.333 794.333 OFFCURVE",
"988 923.333 OFFCURVE",
"988 1086 CURVE SMOOTH",
"988 1248.667 OFFCURVE",
"909.833 1367.333 OFFCURVE",
"782.5 1430 CURVE SMOOTH",
"718.833 1461.333 OFFCURVE",
"646.333 1477 OFFCURVE",
"565 1477 CURVE SMOOTH",
"401 1477 OFFCURVE",
"269 1413.167 OFFCURVE",
"197 1296.5 CURVE SMOOTH",
"161 1238.167 OFFCURVE",
"143 1168 OFFCURVE",
"143 1086 CURVE SMOOTH",
"143 922 OFFCURVE",
"248.333 794.333 OFFCURVE",
"411 745 CURVE",
"224.333 695.667 OFFCURVE",
"102 556.333 OFFCURVE",
"102 379 CURVE SMOOTH",
"102 128.918 OFFCURVE",
"282.429 -21 OFFCURVE",
"567 -21 CURVE SMOOTH"
);
},
{
closed = 1;
nodes = (
"325.667 33 OFFCURVE",
"156 159.333 OFFCURVE",
"156 374 CURVE SMOOTH",
"156 594 OFFCURVE",
"345 718 OFFCURVE",
"565 718 CURVE SMOOTH",
"787 718 OFFCURVE",
"975 590 OFFCURVE",
"975 374 CURVE SMOOTH",
"975 148 OFFCURVE",
"785 33 OFFCURVE",
"567 33 CURVE SMOOTH"
);
},
{
closed = 1;
nodes = (
"351 772 OFFCURVE",
"197 896.333 OFFCURVE",
"197 1091 CURVE SMOOTH",
"197 1292.333 OFFCURVE",
"350.333 1423 OFFCURVE",
"565 1423 CURVE SMOOTH",
"764 1423 OFFCURVE",
"934 1290 OFFCURVE",
"934 1091 CURVE SMOOTH",
"934 892 OFFCURVE",
"772 772 OFFCURVE",
"567 772 CURVE SMOOTH"
);
}
);
width = 1131;
}
);
note = eight;
unicode = 0038;
},
{
glyphname = nine;
lastChange = "2025-05-05 12:28:28 +0000";
layers = (
{
layerId = "1AFB1E35-9546-41E1-B92B-6969383A0DDD";
paths = (
{
closed = 1;
nodes = (
"736.333 -21 OFFCURVE",
"915 75.5 OFFCURVE",
"1015 241.5 CURVE SMOOTH",
"1065 324.5 OFFCURVE",
"1090 420.667 OFFCURVE",
"1090 530 CURVE SMOOTH",
"1090 879 LINE SMOOTH",
"1090 1125.667 OFFCURVE",
"997.167 1307.833 OFFCURVE",
"844.5 1404.5 CURVE SMOOTH",
"768.167 1452.833 OFFCURVE",
"681 1477 OFFCURVE",
"583 1477 CURVE SMOOTH",
"381.667 1477 OFFCURVE",
"221.667 1376.333 OFFCURVE",
"135 1219 CURVE SMOOTH",
"91.667 1140.333 OFFCURVE",
"70 1052.667 OFFCURVE",
"70 956 CURVE SMOOTH",
"70 749.333 OFFCURVE",
"143.833 596.333 OFFCURVE",
"268.5 515 CURVE SMOOTH",
"330.833 474.333 OFFCURVE",
"402.333 454 OFFCURVE",
"483 454 CURVE SMOOTH",
"585.667 454 OFFCURVE",
"674.667 493.667 OFFCURVE",
"748 575 CURVE",
"748 542 LINE SMOOTH",
"748 344.667 OFFCURVE",
"652.333 246 OFFCURVE",
"495 246 CURVE SMOOTH",
"423 246 OFFCURVE",
"325.333 264.333 OFFCURVE",
"240 291 CURVE",
"205 41 LINE",
"299.667 1 OFFCURVE",
"413.667 -21 OFFCURVE",
"515 -21 CURVE SMOOTH"
);
},
{
closed = 1;
nodes = (
"468.258 704 OFFCURVE",
"421 802.217 OFFCURVE",
"421 956 CURVE SMOOTH",
"421 1094.347 OFFCURVE",
"484.632 1209 OFFCURVE",
"582 1209 CURVE SMOOTH",
"672.667 1209 OFFCURVE",
"740 1108.667 OFFCURVE",
"740 922 CURVE SMOOTH",
"740 764 LINE",
"698.667 725.333 OFFCURVE",
"639.667 704 OFFCURVE",
"585 704 CURVE SMOOTH"
);
}
);
width = 1154;
},
{
layerId = "759DCBF5-126F-43AE-ABB8-3EC70824EECD";
paths = (
{
closed = 1;
nodes = (
"719 -21 OFFCURVE",
"876.667 75.333 OFFCURVE",
"962 274 CURVE SMOOTH",
"1004.667 373.333 OFFCURVE",
"1026 498.667 OFFCURVE",
"1026 650 CURVE SMOOTH",
"1026 913 LINE SMOOTH",
"1026 1161 OFFCURVE",
"943.667 1328.833 OFFCURVE",
"797 1413.5 CURVE SMOOTH",
"723.667 1455.833 OFFCURVE",
"636.333 1477 OFFCURVE",
"535 1477 CURVE SMOOTH",
"368.333 1477 OFFCURVE",
"225.167 1383 OFFCURVE",
"144.5 1227 CURVE SMOOTH",
"104.167 1149 OFFCURVE",
"84 1059.333 OFFCURVE",
"84 958 CURVE SMOOTH",
"84 746 OFFCURVE",
"160.667 594.667 OFFCURVE",
"298 516 CURVE SMOOTH",
"366.667 476.667 OFFCURVE",
"448.333 457 OFFCURVE",
"543 457 CURVE SMOOTH",
"663 457 OFFCURVE",
"763.667 506.667 OFFCURVE",
"817 596 CURVE",
"821 591 LINE",
"817 269.667 OFFCURVE",
"700.333 133 OFFCURVE",
"511 133 CURVE SMOOTH",
"404.333 133 OFFCURVE",
"324.333 148.333 OFFCURVE",
"243 187 CURVE",
"213 38 LINE",
"297 -2 OFFCURVE",
"409.667 -21 OFFCURVE",
"511 -21 CURVE SMOOTH"
);
},
{
closed = 1;
nodes = (
"383.861 612 OFFCURVE",
"281 743.975 OFFCURVE",
"281 958 CURVE SMOOTH",
"281 1168.601 OFFCURVE",
"392.332 1322 OFFCURVE",
"541 1322 CURVE SMOOTH",
"729 1322 OFFCURVE",
"829 1190.333 OFFCURVE",
"829 933 CURVE SMOOTH",
"829 779 LINE",
"786.333 681.667 OFFCURVE",
"688.333 612 OFFCURVE",
"543 612 CURVE SMOOTH"
);
}
);
userData = {
assembly = "NPUSHB[ ]	/* 72 values pushed */
34 1 4 5 10 1 2 4 4 1 1 2 3 1 0 1 4 76 7 1 4 0 2 1 4 2 105 0 5 5 3 97 0 3 3 37 77 0 1 1 0 97 6 1 0 0 38 0 78 32 31 1 0 39 37 31 45 32 45 23 21 15 13 8 6 0 30 1 30 8 8 22 
CALL[ ]	/* CallFunction */";
};
width = 1154;
},
{
layerId = "CD48D813-7107-4EBE-8BC7-C661170EDB17";
paths = (
{
closed = 1;
nodes = (
"740.333 -21 OFFCURVE",
"881.333 68.333 OFFCURVE",
"956 247 CURVE SMOOTH",
"993.333 336.333 OFFCURVE",
"1012 447.333 OFFCURVE",
"1012 580 CURVE SMOOTH",
"1012 923 LINE SMOOTH",
"1012 1173.667 OFFCURVE",
"935.167 1337 OFFCURVE",
"802.5 1417 CURVE SMOOTH",
"736.167 1457 OFFCURVE",
"658.667 1477 OFFCURVE",
"570 1477 CURVE SMOOTH",
"400.667 1477 OFFCURVE",
"264.667 1376.333 OFFCURVE",
"190 1219 CURVE SMOOTH",
"152.667 1140.333 OFFCURVE",
"134 1053.333 OFFCURVE",
"134 958 CURVE SMOOTH",
"134 778 OFFCURVE",
"211.833 622 OFFCURVE",
"340.5 534 CURVE SMOOTH",
"404.833 490 OFFCURVE",
"478.667 468 OFFCURVE",
"562 468 CURVE SMOOTH",
"731.333 468 OFFCURVE",
"875.333 555.667 OFFCURVE",
"950 701 CURVE",
"950 578 LINE SMOOTH",
"950 219.333 OFFCURVE",
"801.667 33 OFFCURVE",
"551 33 CURVE SMOOTH",
"436.333 33 OFFCURVE",
"354 53.667 OFFCURVE",
"254 99 CURVE",
"238 42 LINE",
"343.333 0.667 OFFCURVE",
"447 -21 OFFCURVE",
"551 -21 CURVE SMOOTH"
);
},
{
closed = 1;
nodes = (
"335 521 OFFCURVE",
"196 728 OFFCURVE",
"196 958 CURVE SMOOTH",
"196 1191 OFFCURVE",
"339 1423 OFFCURVE",
"574 1423 CURVE SMOOTH",
"802 1423 OFFCURVE",
"950 1263.333 OFFCURVE",
"950 922 CURVE SMOOTH",
"950 811 LINE",
"896.667 652.333 OFFCURVE",
"759.333 521 OFFCURVE",
"562 521 CURVE SMOOTH"
);
}
);
width = 1154;
}
);
note = nine;
unicode = 0039;
},
{
glyphname = colon;
lastChange = "2025-05-05 12:22:04 +0000";
layers = (
{
layerId = "1AFB1E35-9546-41E1-B92B-6969383A0DDD";
paths = (
{
closed = 1;
nodes = (
"384 791 LINE",
"384 1081 LINE",
"35 1081 LINE",
"35 791 LINE",
"35 791 LINE"
);
},
{
closed = 1;
nodes = (
"384 0 LINE",
"384 290 LINE",
"35 290 LINE",
"35 0 LINE",
"35 0 LINE"
);
}
);
width = 419;
},
{
layerId = "759DCBF5-126F-43AE-ABB8-3EC70824EECD";
paths = (
{
closed = 1;
nodes = (
"342 880 LINE",
"342 1082 LINE",
"145 1082 LINE",
"145 880 LINE",
"145 880 LINE"
);
},
{
closed = 1;
nodes = (
"342 0 LINE",
"342 202 LINE",
"145 202 LINE",
"145 0 LINE",
"145 0 LINE"
);
}
);
userData = {
assembly = "NPUSHB[ ]	/* 41 values pushed */
0 0 0 1 95 4 1 1 1 34 77 5 1 3 3 2 95 0 2 2 32 2 78 4 4 0 0 4 7 4 7 6 5 0 3 0 3 17 6 8 23 
CALL[ ]	/* CallFunction */";
};
width = 419;
},
{
layerId = "CD48D813-7107-4EBE-8BC7-C661170EDB17";
paths = (
{
closed = 1;
nodes = (
"254 949 LINE",
"254 1079 LINE",
"168 1079 LINE",
"168 949 LINE",
"168 949 LINE"
);
},
{
closed = 1;
nodes = (
"254 0 LINE",
"254 130 LINE",
"168 130 LINE",
"168 0 LINE",
"168 0 LINE"
);
}
);
width = 419;
}
);
note = colon;
unicode = 003A;
},
{
glyphname = semicolon;
lastChange = "2025-05-05 12:22:04 +0000";
layers = (
{
layerId = "1AFB1E35-9546-41E1-B92B-6969383A0DDD";
paths = (
{
closed = 1;
nodes = (
"278.667 -298.333 OFFCURVE",
"377 -154.333 OFFCURVE",
"377 19 CURVE SMOOTH",
"378 257 LINE",
"76 257 LINE",
"76 -2 LINE SMOOTH",
"76 -131.333 OFFCURVE",
"49.333 -225.333 OFFCURVE",
"4 -316 CURVE",
"168 -397 LINE",
"168 -397 LINE"
);
},
{
closed = 1;
nodes = (
"395 791 LINE",
"395 1081 LINE",
"46 1081 LINE",
"46 791 LINE",
"46 791 LINE"
);
}
);
width = 424;
},
{
layerId = "759DCBF5-126F-43AE-ABB8-3EC70824EECD";
paths = (
{
closed = 1;
nodes = (
"274.667 -216.333 OFFCURVE",
"345 -58.667 OFFCURVE",
"345 72 CURVE SMOOTH",
"345 221 LINE",
"148 221 LINE",
"148 69 LINE SMOOTH",
"148 -43 OFFCURVE",
"115.667 -141 OFFCURVE",
"53 -237 CURVE",
"164 -311 LINE",
"164 -311 LINE"
);
},
{
closed = 1;
nodes = (
"343 880 LINE",
"343 1082 LINE",
"146 1082 LINE",
"146 880 LINE",
"146 880 LINE"
);
}
);
userData = {
assembly = "NPUSHB[ ]	/* 32 values pushed */
1 1 0 73 0 0 1 0 134 0 1 1 2 95 3 1 2 2 34 1 78 10 10 10 13 10 13 21 21 4 8 24 
CALL[ ]	/* CallFunction */";
};
width = 424;
},
{
layerId = "CD48D813-7107-4EBE-8BC7-C661170EDB17";
paths = (
{
closed = 1;
nodes = (
"239.667 -183 OFFCURVE",
"279 -90.333 OFFCURVE",
"279 27 CURVE SMOOTH",
"279 159 LINE",
"225 159 LINE",
"225 25 LINE SMOOTH",
"225 -73.667 OFFCURVE",
"197.333 -141.667 OFFCURVE",
"136 -223 CURVE",
"173 -255 LINE",
"173 -255 LINE"
);
},
{
closed = 1;
nodes = (
"271 952 LINE",
"271 1082 LINE",
"185 1082 LINE",
"185 952 LINE",
"185 952 LINE"
);
}
);
width = 424;
}
);
note = semicolon;
unicode = 003B;
},
{
glyphname = less;
lastChange = "2025-05-05 12:22:04 +0000";
layers = (
{
layerId = "1AFB1E35-9546-41E1-B92B-6969383A0DDD";
paths = (
{
closed = 1;
nodes = (
"956 361 LINE",
"457 528 LINE",
"422 537 LINE",
"422 543 LINE",
"457 553 LINE",
"956 723 LINE",
"956 1039 LINE",
"67 680 LINE",
"67 405 LINE",
"956 45 LINE",
"956 45 LINE"
);
}
);
width = 1017;
},
{
layerId = "759DCBF5-126F-43AE-ABB8-3EC70824EECD";
paths = (
{
closed = 1;
nodes = (
"892 308 LINE",
"333 536 LINE",
"248 555 LINE",
"248 561 LINE",
"333 579 LINE",
"892 812 LINE",
"892 1013 LINE",
"76 635 LINE",
"76 486 LINE",
"892 107 LINE",
"892 107 LINE"
);
}
);
userData = {
assembly = "PUSHB[ ]	/* 4 values pushed */
5 2 1 50 
CALL[ ]	/* CallFunction */";
};
width = 1017;
},
{
layerId = "CD48D813-7107-4EBE-8BC7-C661170EDB17";
paths = (
{
closed = 1;
nodes = (
"913 195 LINE",
"252 498 LINE",
"133 534 LINE",
"133 540 LINE",
"252 577 LINE",
"913 885 LINE",
"913 943 LINE",
"76 565 LINE",
"76 515 LINE",
"913 136 LINE",
"913 136 LINE"
);
}
);
width = 1017;
}
);
note = less;
unicode = 003C;
},
{
glyphname = equal;
lastChange = "2025-05-05 12:43:15 +0000";
layers = (
{
layerId = "1AFB1E35-9546-41E1-B92B-6969383A0DDD";
paths = (
{
closed = 1;
nodes = (
"1043 726 LINE",
"1043 995 LINE",
"108 995 LINE",
"108 726 LINE",
"108 726 LINE"
);
},
{
closed = 1;
nodes = (
"1043 285 LINE",
"1043 555 LINE",
"108 555 LINE",
"108 285 LINE",
"108 285 LINE"
);
}
);
width = 1127;
},
{
layerId = "759DCBF5-126F-43AE-ABB8-3EC70824EECD";
paths = (
{
closed = 1;
nodes = (
"981 823 LINE",
"981 987 LINE",
"147 987 LINE",
"147 823 LINE",
"147 823 LINE"
);
},
{
closed = 1;
nodes = (
"981 407 LINE",
"981 571 LINE",
"147 571 LINE",
"147 407 LINE",
"147 407 LINE"
);
}
);
userData = {
assembly = "NPUSHB[ ]	/* 45 values pushed */
4 1 1 0 0 3 1 0 103 5 1 3 2 2 3 87 5 1 3 3 2 95 0 2 3 2 79 4 4 0 0 4 7 4 7 6 5 0 3 0 3 17 6 8 23 
CALL[ ]	/* CallFunction */";
};
width = 1127;
},
{
layerId = "CD48D813-7107-4EBE-8BC7-C661170EDB17";
paths = (
{
closed = 1;
nodes = (
"981 843 LINE",
"981 897 LINE",
"147 897 LINE",
"147 843 LINE",
"147 843 LINE"
);
},
{
closed = 1;
nodes = (
"981 436 LINE",
"981 490 LINE",
"147 490 LINE",
"147 436 LINE",
"147 436 LINE"
);
}
);
width = 1127;
}
);
note = equal;
unicode = 003D;
},
{
glyphname = greater;
lastChange = "2025-05-05 12:22:04 +0000";
layers = (
{
layerId = "1AFB1E35-9546-41E1-B92B-6969383A0DDD";
paths = (
{
closed = 1;
nodes = (
"952 403 LINE",
"952 678 LINE",
"71 1037 LINE",
"71 722 LINE",
"549 560 LINE",
"596 546 LINE",
"596 540 LINE",
"549 529 LINE",
"71 359 LINE",
"71 43 LINE",
"71 43 LINE"
);
}
);
width = 1017;
},
{
layerId = "759DCBF5-126F-43AE-ABB8-3EC70824EECD";
paths = (
{
closed = 1;
nodes = (
"939 466 LINE",
"939 615 LINE",
"84 993 LINE",
"84 798 LINE",
"682 564 LINE",
"766 544 LINE",
"766 538 LINE",
"682 521 LINE",
"84 283 LINE",
"84 87 LINE",
"84 87 LINE"
);
}
);
userData = {
assembly = "PUSHB[ ]	/* 4 values pushed */
9 2 1 50 
CALL[ ]	/* CallFunction */";
};
width = 1017;
},
{
layerId = "CD48D813-7107-4EBE-8BC7-C661170EDB17";
paths = (
{
closed = 1;
nodes = (
"941 516 LINE",
"941 566 LINE",
"105 944 LINE",
"105 886 LINE",
"765 582 LINE",
"883 545 LINE",
"883 539 LINE",
"765 503 LINE",
"105 196 LINE",
"105 137 LINE",
"105 137 LINE"
);
}
);
width = 1017;
}
);
note = greater;
unicode = 003E;
},
{
glyphname = question;
lastChange = "2025-05-05 12:29:02 +0000";
layers = (
{
layerId = "1AFB1E35-9546-41E1-B92B-6969383A0DDD";
paths = (
{
closed = 1;
nodes = (
"602 417 LINE",
"602 487.667 OFFCURVE",
"609.5 537 OFFCURVE",
"635.5 577 CURVE SMOOTH",
"648.5 597 OFFCURVE",
"666.667 616.667 OFFCURVE",
"690 636 CURVE SMOOTH",
"776.667 705.333 OFFCURVE",
"850.333 788.667 OFFCURVE",
"893 890 CURVE SMOOTH",
"914.333 940.667 OFFCURVE",
"925 995.333 OFFCURVE",
"925 1054 CURVE SMOOTH",
"925 1311.333 OFFCURVE",
"754 1477 OFFCURVE",
"470 1477 CURVE SMOOTH",
"199.013 1477 OFFCURVE",
"27.099 1328.468 OFFCURVE",
"31 1071 CURVE",
"33 1065 LINE",
"338 1065 LINE",
"339.333 1159.667 OFFCURVE",
"400 1204 OFFCURVE",
"472 1204 CURVE SMOOTH",
"560 1204 OFFCURVE",
"612 1142.667 OFFCURVE",
"612 1044 CURVE SMOOTH",
"612 947.534 OFFCURVE",
"559.974 855.979 OFFCURVE",
"488 798 CURVE SMOOTH",
"336.316 672.468 OFFCURVE",
"290 609.723 OFFCURVE",
"290 417 CURVE"
);
},
{
closed = 1;
nodes = (
"599 0 LINE",
"599 286 LINE",
"290 286 LINE",
"290 0 LINE",
"290 0 LINE"
);
}
);
width = 953;
},
{
layerId = "759DCBF5-126F-43AE-ABB8-3EC70824EECD";
paths = (
{
closed = 1;
nodes = (
"557 410 LINE",
"557 491.333 OFFCURVE",
"560.667 536.167 OFFCURVE",
"582 575.5 CURVE SMOOTH",
"592.667 595.167 OFFCURVE",
"609.667 617 OFFCURVE",
"633 641 CURVE SMOOTH",
"747.667 757 OFFCURVE",
"823.5 845.5 OFFCURVE",
"861.5 939.5 CURVE SMOOTH",
"880.5 986.5 OFFCURVE",
"890 1038.667 OFFCURVE",
"890 1096 CURVE SMOOTH",
"890 1336 OFFCURVE",
"737.667 1477 OFFCURVE",
"475 1477 CURVE SMOOTH",
"245 1477 OFFCURVE",
"62 1345 OFFCURVE",
"66 1122 CURVE",
"69 1116 LINE",
"257 1116 LINE",
"257 1244 OFFCURVE",
"353.667 1311 OFFCURVE",
"475 1311 CURVE SMOOTH",
"615 1311 OFFCURVE",
"693 1232.333 OFFCURVE",
"693 1091 CURVE SMOOTH",
"693 978.677 OFFCURVE",
"644.839 880.545 OFFCURVE",
"510 759 CURVE SMOOTH",
"376.446 638.54 OFFCURVE",
"360 602.299 OFFCURVE",
"360 410 CURVE"
);
},
{
closed = 1;
nodes = (
"563 0 LINE",
"563 208 LINE",
"358 208 LINE",
"358 0 LINE",
"358 0 LINE"
);
}
);
userData = {
assembly = "NPUSHB[ ]	/* 51 values pushed */
0 2 1 0 1 2 0 128 0 0 5 1 0 5 126 0 1 1 3 97 0 3 3 37 77 6 1 5 5 4 95 0 4 4 32 4 78 33 33 33 36 33 36 27 36 18 43 16 7 8 27 
CALL[ ]	/* CallFunction */";
};
width = 953;
},
{
layerId = "CD48D813-7107-4EBE-8BC7-C661170EDB17";
paths = (
{
closed = 1;
nodes = (
"476 400 LINE",
"476 489.333 OFFCURVE",
"481.833 537.333 OFFCURVE",
"510.5 580 CURVE SMOOTH",
"524.833 601.333 OFFCURVE",
"546.333 624.667 OFFCURVE",
"575 650 CURVE SMOOTH",
"689.667 752.667 OFFCURVE",
"763.833 839.833 OFFCURVE",
"800.5 940.5 CURVE SMOOTH",
"818.833 990.833 OFFCURVE",
"828 1047.333 OFFCURVE",
"828 1110 CURVE SMOOTH",
"828 1330 OFFCURVE",
"693.667 1477 OFFCURVE",
"475 1477 CURVE SMOOTH",
"271.767 1477 OFFCURVE",
"122.961 1352.451 OFFCURVE",
"125 1122 CURVE",
"128 1116 LINE",
"174 1116 LINE",
"178 1301.333 OFFCURVE",
"285.667 1424 OFFCURVE",
"475 1424 CURVE SMOOTH",
"665.667 1424 OFFCURVE",
"774 1306.667 OFFCURVE",
"774 1112 CURVE SMOOTH",
"774 900 OFFCURVE",
"668 807 OFFCURVE",
"547 692 CURVE SMOOTH",
"435.392 588.364 OFFCURVE",
"422 555.611 OFFCURVE",
"422 400 CURVE"
);
},
{
closed = 1;
nodes = (
"500 0 LINE",
"500 106 LINE",
"418 106 LINE",
"418 0 LINE",
"418 0 LINE"
);
}
);
width = 953;
}
);
note = question;
unicode = 003F;
},
{
glyphname = at;
lastChange = "2025-05-05 12:30:38 +0000";
layers = (
{
layerId = "1AFB1E35-9546-41E1-B92B-6969383A0DDD";
paths = (
{
closed = 1;
nodes = (
"1025.333 -453 OFFCURVE",
"1177 -420 OFFCURVE",
"1265 -364 CURVE",
"1228 -192 LINE",
"1138.667 -228 OFFCURVE",
"1006.667 -257 OFFCURVE",
"896 -257 CURVE SMOOTH",
"629.333 -257 OFFCURVE",
"439.833 -133.833 OFFCURVE",
"348.5 85.5 CURVE SMOOTH",
"302.833 195.167 OFFCURVE",
"284 326 OFFCURVE",
"292 478 CURVE SMOOTH",
"305.333 790 OFFCURVE",
"419.167 1019.667 OFFCURVE",
"614.5 1141 CURVE SMOOTH",
"712.167 1201.667 OFFCURVE",
"827.667 1232 OFFCURVE",
"961 1232 CURVE SMOOTH",
"1367.667 1232 OFFCURVE",
"1570 969.667 OFFCURVE",
"1550 535 CURVE SMOOTH",
"1539.333 304.333 OFFCURVE",
"1443.667 145 OFFCURVE",
"1321 145 CURVE SMOOTH",
"1282.333 145 OFFCURVE",
"1258.167 161.167 OFFCURVE",
"1249.5 204.5 CURVE SMOOTH",
"1245.167 226.167 OFFCURVE",
"1244 255.667 OFFCURVE",
"1246 293 CURVE SMOOTH",
"1297 859 LINE",
"1295 863 LINE",
"1171 937.667 OFFCURVE",
"1081.667 969 OFFCURVE",
"967 969 CURVE SMOOTH",
"765.667 969 OFFCURVE",
"637 873.5 OFFCURVE",
"565 711.5 CURVE SMOOTH",
"529 630.5 OFFCURVE",
"505.333 536.333 OFFCURVE",
"494 429 CURVE SMOOTH",
"466 155.667 OFFCURVE",
"581.667 -16 OFFCURVE",
"783 -16 CURVE SMOOTH",
"893 -16 OFFCURVE",
"975.333 40 OFFCURVE",
"1030 152 CURVE",
"1063.333 42.667 OFFCURVE",
"1146.333 -21 OFFCURVE",
"1285 -21 CURVE SMOOTH",
"1563.454 -21 OFFCURVE",
"1744.869 197.968 OFFCURVE",
"1758 535 CURVE SMOOTH",
"1771.333 893.667 OFFCURVE",
"1645.333 1160.333 OFFCURVE",
"1404 1303 CURVE SMOOTH",
"1283.333 1374.333 OFFCURVE",
"1137 1410 OFFCURVE",
"965 1410 CURVE SMOOTH",
"610.333 1410 OFFCURVE",
"340.667 1252.667 OFFCURVE",
"190 974 CURVE SMOOTH",
"114.667 834.667 OFFCURVE",
"73 669.333 OFFCURVE",
"65 478 CURVE SMOOTH",
"51.667 92.667 OFFCURVE",
"181 -190.5 OFFCURVE",
"433 -340.5 CURVE SMOOTH",
"559 -415.5 OFFCURVE",
"712 -453 OFFCURVE",
"892 -453 CURVE SMOOTH"
);
},
{
closed = 1;
nodes = (
"772.333 178 OFFCURVE",
"736.667 258.667 OFFCURVE",
"750 416 CURVE SMOOTH",
"771.333 653.333 OFFCURVE",
"838.667 771 OFFCURVE",
"972 771 CURVE SMOOTH",
"1002.667 771 OFFCURVE",
"1030.667 765.333 OFFCURVE",
"1056 756 CURVE",
"1018 339 LINE SMOOTH",
"1018 331 OFFCURVE",
"1015 315 OFFCURVE",
"1013 307 CURVE",
"971.667 208.333 OFFCURVE",
"917.667 178 OFFCURVE",
"863 178 CURVE SMOOTH"
);
}
);
width = 1821;
},
{
layerId = "759DCBF5-126F-43AE-ABB8-3EC70824EECD";
paths = (
{
closed = 1;
nodes = (
"1009.667 -453 OFFCURVE",
"1161.333 -420 OFFCURVE",
"1252 -364 CURVE",
"1213 -257 LINE",
"1130.333 -303.667 OFFCURVE",
"1000.333 -335 OFFCURVE",
"883 -335 CURVE SMOOTH",
"604.333 -335 OFFCURVE",
"407 -197.667 OFFCURVE",
"311 45 CURVE SMOOTH",
"263 166.333 OFFCURVE",
"243 310.667 OFFCURVE",
"251 478 CURVE SMOOTH",
"264.333 807.333 OFFCURVE",
"386 1066 OFFCURVE",
"590 1206 CURVE SMOOTH",
"692 1276 OFFCURVE",
"811.667 1311 OFFCURVE",
"949 1311 CURVE SMOOTH",
"1395.667 1311 OFFCURVE",
"1610.667 1011.333 OFFCURVE",
"1588 502 CURVE SMOOTH",
"1577.333 268.667 OFFCURVE",
"1474 100 OFFCURVE",
"1310 100 CURVE SMOOTH",
"1269 100 OFFCURVE",
"1237 117 OFFCURVE",
"1220 158 CURVE SMOOTH",
"1207 189 OFFCURVE",
"1202 233 OFFCURVE",
"1207 293 CURVE SMOOTH",
"1258 878 LINE",
"1256 882 LINE",
"1153.333 954 OFFCURVE",
"1087 988 OFFCURVE",
"947 988 CURVE SMOOTH",
"801.667 988 OFFCURVE",
"680.167 888.833 OFFCURVE",
"603.5 717.5 CURVE SMOOTH",
"565.167 631.833 OFFCURVE",
"541 531.333 OFFCURVE",
"531 416 CURVE SMOOTH",
"507 154.667 OFFCURVE",
"609.333 -21 OFFCURVE",
"776 -21 CURVE SMOOTH",
"902.667 -21 OFFCURVE",
"999 31.667 OFFCURVE",
"1065 137 CURVE",
"1095.667 37 OFFCURVE",
"1170.667 -21 OFFCURVE",
"1268 -21 CURVE SMOOTH",
"1567 -21 OFFCURVE",
"1708 222 OFFCURVE",
"1720 502 CURVE SMOOTH",
"1734.667 883.333 OFFCURVE",
"1615.5 1167.333 OFFCURVE",
"1381.5 1318 CURVE SMOOTH",
"1264.5 1393.333 OFFCURVE",
"1121.667 1431 OFFCURVE",
"953 1431 CURVE SMOOTH",
"622.333 1431 OFFCURVE",
"367 1261.667 OFFCURVE",
"223 975 CURVE SMOOTH",
"151 831.667 OFFCURVE",
"110.667 666 OFFCURVE",
"102 478 CURVE SMOOTH",
"84.667 94 OFFCURVE",
"209.5 -189.333 OFFCURVE",
"447.5 -340 CURVE SMOOTH",
"566.5 -415.333 OFFCURVE",
"710.333 -453 OFFCURVE",
"879 -453 CURVE SMOOTH"
);
},
{
closed = 1;
nodes = (
"737.333 126 OFFCURVE",
"692.333 228 OFFCURVE",
"707 416 CURVE SMOOTH",
"735 713.333 OFFCURVE",
"818.333 857 OFFCURVE",
"985 857 CURVE SMOOTH",
"1026.333 857 OFFCURVE",
"1064.333 847 OFFCURVE",
"1099 831 CURVE",
"1052 293 LINE SMOOTH",
"1049.333 271.667 OFFCURVE",
"1048.667 255 OFFCURVE",
"1050 239 CURVE",
"991.333 155 OFFCURVE",
"920 126 OFFCURVE",
"836 126 CURVE SMOOTH"
);
}
);
userData = {
assembly = "MPPEM[ ]	/* MeasurePixelPerEm */
PUSHB[ ]	/* 1 value pushed */
20 
LT[ ]	/* LessThan */
IF[ ]	/* If */
NPUSHB[ ]	/* 20 values pushed */
31 1 9 4 65 61 19 3 5 9 54 1 7 2 55 1 0 7 4 76 
ELSE[ ]	/* Else */
NPUSHB[ ]	/* 20 values pushed */
31 1 9 4 65 61 19 3 8 9 54 1 7 2 55 1 0 7 4 76 
EIF[ ]	/* EndIf */
MPPEM[ ]	/* MeasurePixelPerEm */
PUSHB[ ]	/* 1 value pushed */
20 
LT[ ]	/* LessThan */
IF[ ]	/* If */
NPUSHB[ ]	/* 43 values pushed */
0 4 0 9 5 4 9 105 0 6 6 1 97 0 1 1 31 77 11 8 2 5 5 2 97 3 1 2 2 38 77 0 7 7 0 97 10 1 0 0 42 0 78 
ELSE[ ]	/* Else */
MPPEM[ ]	/* MeasurePixelPerEm */
PUSHB[ ]	/* 1 value pushed */
40 
LT[ ]	/* LessThan */
IF[ ]	/* If */
NPUSHB[ ]	/* 53 values pushed */
0 4 0 9 8 4 9 105 0 6 6 1 97 0 1 1 31 77 11 1 8 8 2 97 3 1 2 2 38 77 0 5 5 2 97 3 1 2 2 38 77 0 7 7 0 97 10 1 0 0 42 0 78 
ELSE[ ]	/* Else */
NPUSHB[ ]	/* 51 values pushed */
0 1 0 6 4 1 6 105 0 4 0 9 8 4 9 105 11 1 8 8 2 97 3 1 2 2 38 77 0 5 5 2 97 3 1 2 2 38 77 0 7 7 0 97 10 1 0 0 42 0 78 
EIF[ ]	/* EndIf */
EIF[ ]	/* EndIf */
NPUSHB[ ]	/* 31 values pushed */
59 58 1 0 69 67 58 73 59 73 52 50 44 42 38 36 29 27 22 20 17 15 9 7 0 57 1 57 12 8 22 
CALL[ ]	/* CallFunction */";
};
width = 1821;
},
{
layerId = "CD48D813-7107-4EBE-8BC7-C661170EDB17";
paths = (
{
closed = 1;
nodes = (
"992.333 -453 OFFCURVE",
"1144.333 -417.333 OFFCURVE",
"1227 -364 CURVE",
"1203 -320 LINE",
"1120.333 -368 OFFCURVE",
"1001 -398 OFFCURVE",
"869 -398 CURVE SMOOTH",
"543.667 -398 OFFCURVE",
"319.667 -241 OFFCURVE",
"213 23 CURVE SMOOTH",
"159.667 155 OFFCURVE",
"137.333 306.667 OFFCURVE",
"146 478 CURVE SMOOTH",
"164.667 831.333 OFFCURVE",
"311.5 1101.5 OFFCURVE",
"549.5 1247.5 CURVE SMOOTH",
"668.5 1320.5 OFFCURVE",
"805.333 1357 OFFCURVE",
"960 1357 CURVE SMOOTH",
"1462.667 1357 OFFCURVE",
"1699.667 1051 OFFCURVE",
"1673 523 CURVE SMOOTH",
"1658.333 229.667 OFFCURVE",
"1533.667 34 OFFCURVE",
"1323 34 CURVE SMOOTH",
"1269.667 34 OFFCURVE",
"1217.5 60.167 OFFCURVE",
"1191.5 135.5 CURVE SMOOTH",
"1178.5 173.167 OFFCURVE",
"1174.333 225.667 OFFCURVE",
"1179 293 CURVE SMOOTH",
"1226 831 LINE",
"1228 858 LINE",
"1144 931.333 OFFCURVE",
"1088.667 968 OFFCURVE",
"978 968 CURVE SMOOTH",
"826 968 OFFCURVE",
"697 872.333 OFFCURVE",
"617 707 CURVE SMOOTH",
"577 624.333 OFFCURVE",
"551.667 527.333 OFFCURVE",
"541 416 CURVE SMOOTH",
"515.667 150.667 OFFCURVE",
"610.667 -21 OFFCURVE",
"792 -21 CURVE SMOOTH",
"940 -21 OFFCURVE",
"1050.667 55.667 OFFCURVE",
"1124 209 CURVE",
"1136 65 OFFCURVE",
"1209.333 -21 OFFCURVE",
"1320 -21 CURVE SMOOTH",
"1563.189 -21 OFFCURVE",
"1717.212 211.814 OFFCURVE",
"1730 523 CURVE SMOOTH",
"1746 896.333 OFFCURVE",
"1632 1164.833 OFFCURVE",
"1400 1305.5 CURVE SMOOTH",
"1284 1375.833 OFFCURVE",
"1138.667 1411 OFFCURVE",
"964 1411 CURVE SMOOTH",
"628 1411 OFFCURVE",
"365.333 1249.833 OFFCURVE",
"216 970.5 CURVE SMOOTH",
"141.333 830.833 OFFCURVE",
"100 666.667 OFFCURVE",
"92 478 CURVE SMOOTH",
"76 94 OFFCURVE",
"202 -189.333 OFFCURVE",
"438 -340 CURVE SMOOTH",
"556 -415.333 OFFCURVE",
"697.667 -453 OFFCURVE",
"863 -453 CURVE SMOOTH"
);
},
{
closed = 1;
nodes = (
"639.333 33 OFFCURVE",
"569.667 193.333 OFFCURVE",
"595 416 CURVE SMOOTH",
"629.667 741.333 OFFCURVE",
"785.667 913 OFFCURVE",
"975 913 CURVE SMOOTH",
"1060.333 913 OFFCURVE",
"1124.667 883 OFFCURVE",
"1170 831 CURVE",
"1130 371 LINE SMOOTH",
"1129 364 OFFCURVE",
"1129 352 OFFCURVE",
"1128 345 CURVE",
"1050.667 106.333 OFFCURVE",
"934 33 OFFCURVE",
"790 33 CURVE SMOOTH"
);
}
);
width = 1821;
}
);
note = at;
unicode = 0040;
},
{
glyphname = A;
lastChange = "2025-05-05 12:22:04 +0000";
layers = (
{
layerId = "1AFB1E35-9546-41E1-B92B-6969383A0DDD";
paths = (
{
closed = 1;
nodes = (
"588 0 LINE",
"588 205 LINE",
"493 223 LINE",
"535 381 LINE",
"1003 381 LINE",
"1047 223 LINE",
"952 205 LINE",
"952 0 LINE",
"1496 0 LINE",
"1496 205 LINE",
"1394 220 LINE",
"959 1456 LINE",
"579 1456 LINE",
"145 220 LINE",
"43 205 LINE",
"43 0 LINE",
"43 0 LINE"
);
},
{
closed = 1;
nodes = (
"747 1063 LINE",
"764 1119 LINE",
"770 1119 LINE",
"786 1068 LINE",
"928 627 LINE",
"609 627 LINE",
"609 627 LINE"
);
}
);
width = 1533;
},
{
layerId = "759DCBF5-126F-43AE-ABB8-3EC70824EECD";
paths = (
{
closed = 1;
nodes = (
"487 0 LINE",
"487 126 LINE",
"377 145 LINE",
"476 413 LINE",
"1059 413 LINE",
"1155 145 LINE",
"1045 126 LINE",
"1045 0 LINE",
"1463 0 LINE",
"1463 126 LINE",
"1356 141 LINE",
"856 1456 LINE",
"687 1456 LINE",
"178 141 LINE",
"70 126 LINE",
"70 0 LINE",
"70 0 LINE"
);
},
{
closed = 1;
nodes = (
"755 1170 LINE",
"767 1203 LINE",
"773 1203 LINE",
"785 1170 LINE",
"999 578 LINE",
"537 578 LINE",
"537 578 LINE"
);
}
);
userData = {
assembly = "NPUSHB[ ]	/* 43 values pushed */
21 1 4 1 15 12 11 8 3 0 6 0 3 2 76 0 4 0 3 0 4 3 104 0 1 1 31 77 2 1 0 0 32 0 78 20 19 19 19 17 5 8 27 
CALL[ ]	/* CallFunction */";
};
width = 1533;
},
{
layerId = "CD48D813-7107-4EBE-8BC7-C661170EDB17";
paths = (
{
closed = 1;
nodes = (
"414 0 LINE",
"414 54 LINE",
"271 54 LINE",
"413 435 LINE",
"1125 435 LINE",
"1268 54 LINE",
"1125 54 LINE",
"1125 0 LINE",
"1434 0 LINE",
"1434 54 LINE",
"1327 54 LINE",
"802 1456 LINE",
"736 1456 LINE",
"212 54 LINE",
"105 54 LINE",
"105 0 LINE",
"105 0 LINE"
);
},
{
closed = 1;
nodes = (
"739 1309 LINE",
"766 1391 LINE",
"772 1391 LINE",
"800 1309 LINE",
"1105 489 LINE",
"433 489 LINE",
"433 489 LINE"
);
}
);
width = 1533;
}
);
note = A;
unicode = 0041;
},
{
glyphname = B;
lastChange = "2025-05-05 12:30:52 +0000";
layers = (
{
layerId = "1AFB1E35-9546-41E1-B92B-6969383A0DDD";
paths = (
{
closed = 1;
nodes = (
"750 0 LINE SMOOTH",
"1100.667 0 OFFCURVE",
"1290 146.667 OFFCURVE",
"1290 432 CURVE SMOOTH",
"1290 589.358 OFFCURVE",
"1212.084 709.112 OFFCURVE",
"1049 746 CURVE",
"1179.667 802 OFFCURVE",
"1242 916.667 OFFCURVE",
"1242 1054 CURVE SMOOTH",
"1242 1320.667 OFFCURVE",
"1032.667 1456 OFFCURVE",
"678 1456 CURVE SMOOTH",
"186 1456 LINE",
"40 1456 LINE",
"40 1250 LINE",
"186 1218 LINE",
"186 237 LINE",
"40 205 LINE",
"40 0 LINE",
"40 0 LINE"
);
},
{
closed = 1;
nodes = (
"526 620 LINE",
"766 620 LINE SMOOTH",
"895.78 620 OFFCURVE",
"952 559.526 OFFCURVE",
"952 433 CURVE SMOOTH",
"952 321 OFFCURVE",
"883.333 267 OFFCURVE",
"750 267 CURVE SMOOTH",
"526 267 LINE",
"526 267 LINE"
);
},
{
closed = 1;
nodes = (
"526 1188 LINE",
"678 1188 LINE SMOOTH",
"828.667 1188 OFFCURVE",
"902 1135.333 OFFCURVE",
"902 1014 CURVE SMOOTH",
"902 903.333 OFFCURVE",
"823 852 OFFCURVE",
"663 852 CURVE SMOOTH",
"526 852 LINE",
"526 852 LINE"
);
}
);
width = 1322;
},
{
layerId = "759DCBF5-126F-43AE-ABB8-3EC70824EECD";
paths = (
{
closed = 1;
nodes = (
"771 0 LINE SMOOTH",
"1067 0 OFFCURVE",
"1253 144.333 OFFCURVE",
"1253 411 CURVE SMOOTH",
"1253 591.002 OFFCURVE",
"1143.56 739.499 OFFCURVE",
"970 775 CURVE",
"1104.667 824.333 OFFCURVE",
"1194 932.667 OFFCURVE",
"1194 1062 CURVE SMOOTH",
"1194 1324.667 OFFCURVE",
"1013 1456 OFFCURVE",
"709 1456 CURVE SMOOTH",
"244 1456 LINE",
"81 1456 LINE",
"81 1329 LINE",
"244 1301 LINE",
"244 154 LINE",
"81 126 LINE",
"81 0 LINE",
"81 0 LINE"
);
},
{
closed = 1;
nodes = (
"441 683 LINE",
"801 683 LINE SMOOTH",
"971.025 683 OFFCURVE",
"1055 582.83 OFFCURVE",
"1055 409 CURVE SMOOTH",
"1055 246.333 OFFCURVE",
"951 154 OFFCURVE",
"771 154 CURVE SMOOTH",
"441 154 LINE",
"441 154 LINE"
);
},
{
closed = 1;
nodes = (
"441 1301 LINE",
"709 1301 LINE SMOOTH",
"895.667 1301 OFFCURVE",
"997 1223.333 OFFCURVE",
"997 1066 CURVE SMOOTH",
"997 924.667 OFFCURVE",
"901.333 837 OFFCURVE",
"760 837 CURVE SMOOTH",
"441 837 LINE",
"441 837 LINE"
);
}
);
userData = {
assembly = "NPUSHB[ ]	/* 81 values pushed */
5 1 5 1 14 1 3 4 2 1 0 2 3 76 4 1 5 3 1 2 2 75 0 4 7 1 3 2 4 3 103 8 1 5 5 1 95 0 1 1 31 77 0 2 2 0 95 6 1 0 0 32 0 78 31 31 21 21 1 0 31 39 31 38 34 32 21 30 21 29 24 22 9 6 0 20 1 20 9 8 22 
CALL[ ]	/* CallFunction */";
};
width = 1322;
},
{
layerId = "CD48D813-7107-4EBE-8BC7-C661170EDB17";
paths = (
{
closed = 1;
nodes = (
"769 0 LINE SMOOTH",
"1039.667 0 OFFCURVE",
"1219 146.333 OFFCURVE",
"1219 401 CURVE SMOOTH",
"1219 577.402 OFFCURVE",
"1079.632 728.917 OFFCURVE",
"897 753 CURVE",
"1059.667 782.333 OFFCURVE",
"1153 909.667 OFFCURVE",
"1153 1083 CURVE SMOOTH",
"1153 1332.333 OFFCURVE",
"978.333 1456 OFFCURVE",
"677 1456 CURVE SMOOTH",
"294 1456 LINE",
"131 1456 LINE",
"131 1402 LINE",
"294 1402 LINE",
"294 54 LINE",
"131 54 LINE",
"131 0 LINE",
"131 0 LINE"
);
},
{
closed = 1;
nodes = (
"348 719 LINE",
"779 719 LINE SMOOTH",
"996 719 OFFCURVE",
"1165 600 OFFCURVE",
"1165 399 CURVE SMOOTH",
"1165 181.667 OFFCURVE",
"1014.333 54 OFFCURVE",
"769 54 CURVE SMOOTH",
"348 54 LINE",
"348 54 LINE"
);
},
{
closed = 1;
nodes = (
"348 1402 LINE",
"677 1402 LINE SMOOTH",
"954.333 1402 OFFCURVE",
"1098 1295 OFFCURVE",
"1098 1087 CURVE SMOOTH",
"1098 875 OFFCURVE",
"962.333 773 OFFCURVE",
"697 773 CURVE SMOOTH",
"348 773 LINE",
"348 773 LINE"
);
}
);
width = 1322;
}
);
note = B;
unicode = 0042;
},
{
glyphname = C;
lastChange = "2025-05-05 12:31:22 +0000";
layers = (
{
layerId = "1AFB1E35-9546-41E1-B92B-6969383A0DDD";
paths = (
{
closed = 1;
nodes = (
"965.333 -21 OFFCURVE",
"1143 48 OFFCURVE",
"1255 128 CURVE",
"1255 495 LINE",
"1006 495 LINE",
"972 289 LINE",
"897.333 261 OFFCURVE",
"817.333 243 OFFCURVE",
"740 243 CURVE SMOOTH",
"596 243 OFFCURVE",
"482.167 323.167 OFFCURVE",
"421.5 458.5 CURVE SMOOTH",
"391.167 526.167 OFFCURVE",
"376 604.667 OFFCURVE",
"376 694 CURVE SMOOTH",
"376 763 LINE SMOOTH",
"376 1023 OFFCURVE",
"496 1213 OFFCURVE",
"734 1213 CURVE SMOOTH",
"828.985 1213 OFFCURVE",
"903.659 1184.934 OFFCURVE",
"971 1138 CURVE",
"1005 923 LINE",
"1253 923 LINE",
"1253 1298 LINE",
"1099.667 1428.667 OFFCURVE",
"920.333 1477 OFFCURVE",
"723 1477 CURVE SMOOTH",
"439 1477 OFFCURVE",
"229.833 1347.833 OFFCURVE",
"118.5 1132.5 CURVE SMOOTH",
"62.833 1024.833 OFFCURVE",
"35 901 OFFCURVE",
"35 761 CURVE SMOOTH",
"35 694 LINE SMOOTH",
"35 390 OFFCURVE",
"163 175 OFFCURVE",
"375 63 CURVE SMOOTH",
"481 7 OFFCURVE",
"601.333 -21 OFFCURVE",
"736 -21 CURVE SMOOTH"
);
}
);
width = 1290;
},
{
layerId = "759DCBF5-126F-43AE-ABB8-3EC70824EECD";
paths = (
{
closed = 1;
nodes = (
"900.333 -21 OFFCURVE",
"1060.667 19 OFFCURVE",
"1170 87 CURVE",
"1170 403 LINE",
"1016 403 LINE",
"994 200 LINE",
"935.333 164 OFFCURVE",
"839.333 139 OFFCURVE",
"746 139 CURVE SMOOTH",
"546 139 OFFCURVE",
"405.167 231.833 OFFCURVE",
"332.5 404.5 CURVE SMOOTH",
"296.167 490.833 OFFCURVE",
"278 595 OFFCURVE",
"278 717 CURVE SMOOTH",
"278 740 LINE SMOOTH",
"278 1081.913 OFFCURVE",
"437.478 1314 OFFCURVE",
"721 1314 CURVE SMOOTH",
"839.624 1314 OFFCURVE",
"932.562 1286.561 OFFCURVE",
"996 1237 CURVE",
"1017 1007 LINE",
"1174 1007 LINE",
"1174 1321 LINE",
"1071.333 1411.667 OFFCURVE",
"910 1477 OFFCURVE",
"722 1477 CURVE SMOOTH",
"455.333 1477 OFFCURVE",
"259.667 1340.5 OFFCURVE",
"157 1118.5 CURVE SMOOTH",
"105.667 1007.5 OFFCURVE",
"80 880.667 OFFCURVE",
"80 738 CURVE SMOOTH",
"80 717 LINE SMOOTH",
"80 416 OFFCURVE",
"188 189 OFFCURVE",
"382 70 CURVE SMOOTH",
"480 11 OFFCURVE",
"600 -21 OFFCURVE",
"739 -21 CURVE SMOOTH"
);
}
);
userData = {
assembly = "NPUSHB[ ]	/* 66 values pushed */
12 1 3 1 34 1 0 4 2 76 0 2 3 5 3 2 5 128 0 5 4 3 5 4 126 0 3 3 1 97 0 1 1 37 77 0 4 4 0 97 6 1 0 0 38 0 78 1 0 33 32 29 27 20 18 14 13 10 8 0 36 1 36 7 8 22 
CALL[ ]	/* CallFunction */";
};
width = 1290;
},
{
layerId = "CD48D813-7107-4EBE-8BC7-C661170EDB17";
paths = (
{
closed = 1;
nodes = (
"940 -21 OFFCURVE",
"1087.667 19 OFFCURVE",
"1213 103 CURVE",
"1213 372 LINE",
"1158 372 LINE",
"1158 137 LINE",
"1063.333 73 OFFCURVE",
"919.667 33 OFFCURVE",
"773 33 CURVE SMOOTH",
"519.667 33 OFFCURVE",
"335.167 154.5 OFFCURVE",
"238.5 360.5 CURVE SMOOTH",
"190.167 463.5 OFFCURVE",
"166 583 OFFCURVE",
"166 719 CURVE SMOOTH",
"166 739 LINE SMOOTH",
"166 1115 OFFCURVE",
"377 1423 OFFCURVE",
"749 1423 CURVE SMOOTH",
"923 1423 OFFCURVE",
"1028 1384 OFFCURVE",
"1143 1296 CURVE",
"1143 1062 LINE",
"1198 1062 LINE",
"1198 1319 LINE",
"1079.333 1423 OFFCURVE",
"959.667 1477 OFFCURVE",
"749 1477 CURVE SMOOTH",
"495.667 1477 OFFCURVE",
"298.667 1345.5 OFFCURVE",
"192 1123.5 CURVE SMOOTH",
"138.667 1012.5 OFFCURVE",
"112 883.667 OFFCURVE",
"112 737 CURVE SMOOTH",
"112 719 LINE SMOOTH",
"112 425.667 OFFCURVE",
"217.5 197.167 OFFCURVE",
"415.5 72.5 CURVE SMOOTH",
"514.5 10.167 OFFCURVE",
"634.667 -21 OFFCURVE",
"776 -21 CURVE SMOOTH"
);
}
);
width = 1290;
}
);
note = C;
unicode = 0043;
},
{
glyphname = D;
lastChange = "2025-05-05 12:32:11 +0000";
layers = (
{
layerId = "1AFB1E35-9546-41E1-B92B-6969383A0DDD";
paths = (
{
closed = 1;
nodes = (
"681 0 LINE SMOOTH",
"927.667 0 OFFCURVE",
"1124 128.167 OFFCURVE",
"1232 343.5 CURVE SMOOTH",
"1286 451.167 OFFCURVE",
"1313 575.333 OFFCURVE",
"1313 716 CURVE SMOOTH",
"1313 739 LINE SMOOTH",
"1313 1020.333 OFFCURVE",
"1198.5 1242.5 OFFCURVE",
"1008.5 1364.5 CURVE SMOOTH",
"913.5 1425.5 OFFCURVE",
"804.333 1456 OFFCURVE",
"681 1456 CURVE SMOOTH",
"184 1456 LINE",
"40 1456 LINE",
"40 1250 LINE",
"184 1212 LINE",
"184 242 LINE",
"40 205 LINE",
"40 0 LINE",
"40 0 LINE"
);
},
{
closed = 1;
nodes = (
"513 1189 LINE",
"664 1189 LINE SMOOTH",
"783 1189 OFFCURVE",
"869 1131 OFFCURVE",
"922 1030 CURVE SMOOTH",
"961 955 OFFCURVE",
"981 856 OFFCURVE",
"981 740 CURVE SMOOTH",
"981 716 LINE SMOOTH",
"981 526 OFFCURVE",
"928 384 OFFCURVE",
"827 314 CURVE SMOOTH",
"782 283 OFFCURVE",
"728 266 OFFCURVE",
"664 266 CURVE SMOOTH",
"513 266 LINE",
"513 266 LINE"
);
}
);
width = 1356;
},
{
layerId = "759DCBF5-126F-43AE-ABB8-3EC70824EECD";
paths = (
{
closed = 1;
nodes = (
"661 0 LINE SMOOTH",
"918.333 0 OFFCURVE",
"1111.333 133.167 OFFCURVE",
"1214 348.5 CURVE SMOOTH",
"1265.333 456.167 OFFCURVE",
"1291 577.333 OFFCURVE",
"1291 712 CURVE SMOOTH",
"1291 743 LINE SMOOTH",
"1291 1019 OFFCURVE",
"1178.833 1241.333 OFFCURVE",
"987.5 1364 CURVE SMOOTH",
"891.833 1425.333 OFFCURVE",
"779.667 1456 OFFCURVE",
"651 1456 CURVE SMOOTH",
"244 1456 LINE",
"81 1456 LINE",
"81 1329 LINE",
"244 1301 LINE",
"244 154 LINE",
"81 126 LINE",
"81 0 LINE",
"81 0 LINE"
);
},
{
closed = 1;
nodes = (
"441 1301 LINE",
"651 1301 LINE SMOOTH",
"835 1301 OFFCURVE",
"969.167 1196.833 OFFCURVE",
"1040.5 1029.5 CURVE SMOOTH",
"1076.167 945.833 OFFCURVE",
"1094 851 OFFCURVE",
"1094 745 CURVE SMOOTH",
"1094 712 LINE SMOOTH",
"1094 506.667 OFFCURVE",
"1020 330.167 OFFCURVE",
"888 229.5 CURVE SMOOTH",
"822 179.167 OFFCURVE",
"743 154 OFFCURVE",
"651 154 CURVE SMOOTH",
"441 154 LINE",
"441 154 LINE"
);
}
);
userData = {
assembly = "NPUSHB[ ]	/* 60 values pushed */
5 1 3 1 2 1 0 2 2 76 4 1 3 3 1 2 2 75 5 1 3 3 1 95 0 1 1 31 77 0 2 2 0 95 4 1 0 0 32 0 78 17 17 1 0 17 28 17 27 20 18 9 6 0 16 1 16 6 8 22 
CALL[ ]	/* CallFunction */";
};
width = 1356;
},
{
layerId = "CD48D813-7107-4EBE-8BC7-C661170EDB17";
paths = (
{
closed = 1;
nodes = (
"629 0 LINE SMOOTH",
"867.667 0 OFFCURVE",
"1060.167 131 OFFCURVE",
"1167.5 347 CURVE SMOOTH",
"1221.167 455 OFFCURVE",
"1248 579 OFFCURVE",
"1248 719 CURVE SMOOTH",
"1248 737 LINE SMOOTH",
"1248 1017 OFFCURVE",
"1133.5 1240.167 OFFCURVE",
"947.5 1363.5 CURVE SMOOTH",
"854.5 1425.167 OFFCURVE",
"748.333 1456 OFFCURVE",
"629 1456 CURVE SMOOTH",
"234 1456 LINE",
"71 1456 LINE",
"71 1402 LINE",
"234 1402 LINE",
"234 54 LINE",
"71 54 LINE",
"71 0 LINE",
"71 0 LINE"
);
},
{
closed = 1;
nodes = (
"288 1402 LINE",
"629 1402 LINE SMOOTH",
"846.333 1402 OFFCURVE",
"1022.5 1278.833 OFFCURVE",
"1120.5 1079.5 CURVE SMOOTH",
"1169.5 979.833 OFFCURVE",
"1194 866.667 OFFCURVE",
"1194 740 CURVE SMOOTH",
"1194 719 LINE SMOOTH",
"1194 464.333 OFFCURVE",
"1089.5 255.833 OFFCURVE",
"919.5 140.5 CURVE SMOOTH",
"834.5 82.833 OFFCURVE",
"737.667 54 OFFCURVE",
"629 54 CURVE SMOOTH",
"288 54 LINE",
"288 54 LINE"
);
}
);
width = 1356;
}
);
note = D;
unicode = 0044;
},
{
glyphname = E;
lastChange = "2025-05-05 12:22:04 +0000";
layers = (
{
layerId = "1AFB1E35-9546-41E1-B92B-6969383A0DDD";
paths = (
{
closed = 1;
nodes = (
"1219 0 LINE",
"1219 428 LINE",
"957 428 LINE",
"949 271 LINE",
"542 271 LINE",
"542 618 LINE",
"1007 618 LINE",
"1007 887 LINE",
"542 887 LINE",
"542 1186 LINE",
"930 1186 LINE",
"938 1036 LINE",
"1203 1036 LINE",
"1203 1456 LINE",
"40 1456 LINE",
"40 1250 LINE",
"191 1218 LINE",
"191 237 LINE",
"40 205 LINE",
"40 0 LINE",
"40 0 LINE"
);
}
);
width = 1306;
},
{
layerId = "759DCBF5-126F-43AE-ABB8-3EC70824EECD";
paths = (
{
closed = 1;
nodes = (
"1208 0 LINE",
"1208 349 LINE",
"1051 349 LINE",
"1029 148 LINE",
"459 148 LINE",
"459 675 LINE",
"996 675 LINE",
"996 830 LINE",
"459 830 LINE",
"459 1304 LINE",
"997 1304 LINE",
"1019 1106 LINE",
"1177 1106 LINE",
"1177 1456 LINE",
"99 1456 LINE",
"99 1329 LINE",
"262 1301 LINE",
"262 154 LINE",
"99 126 LINE",
"99 0 LINE",
"99 0 LINE"
);
}
);
userData = {
assembly = "NPUSHB[ ]	/* 18 values pushed */
6 1 3 1 5 1 2 3 4 1 6 7 3 1 0 6 4 76 
MPPEM[ ]	/* MeasurePixelPerEm */
PUSHB[ ]	/* 1 value pushed */
12 
LT[ ]	/* LessThan */
IF[ ]	/* If */
NPUSHB[ ]	/* 44 values pushed */
0 2 3 4 3 2 114 8 1 7 5 6 6 7 114 0 4 0 5 7 4 5 103 0 3 3 1 95 0 1 1 31 77 0 6 6 0 96 0 0 0 32 0 78 
ELSE[ ]	/* Else */
NPUSHB[ ]	/* 46 values pushed */
0 2 3 4 3 2 4 128 8 1 7 5 6 5 7 6 128 0 4 0 5 7 4 5 103 0 3 3 1 95 0 1 1 31 77 0 6 6 0 96 0 0 0 32 0 78 
EIF[ ]	/* EndIf */
NPUSHB[ ]	/* 16 values pushed */
0 0 0 19 0 19 17 17 17 17 17 21 17 9 8 29 
CALL[ ]	/* CallFunction */";
};
width = 1306;
},
{
layerId = "CD48D813-7107-4EBE-8BC7-C661170EDB17";
paths = (
{
closed = 1;
nodes = (
"1200 0 LINE",
"1200 293 LINE",
"1146 293 LINE",
"1146 54 LINE",
"368 54 LINE",
"368 732 LINE",
"998 732 LINE",
"998 786 LINE",
"368 786 LINE",
"368 1402 LINE",
"1116 1402 LINE",
"1116 1163 LINE",
"1170 1163 LINE",
"1170 1456 LINE",
"151 1456 LINE",
"151 1402 LINE",
"314 1402 LINE",
"314 54 LINE",
"151 54 LINE",
"151 0 LINE",
"151 0 LINE"
);
}
);
width = 1306;
}
);
note = E;
unicode = 0045;
},
{
glyphname = F;
lastChange = "2025-05-05 12:22:04 +0000";
layers = (
{
layerId = "1AFB1E35-9546-41E1-B92B-6969383A0DDD";
paths = (
{
closed = 1;
nodes = (
"688 0 LINE",
"688 205 LINE",
"538 237 LINE",
"538 581 LINE",
"1029 581 LINE",
"1029 849 LINE",
"538 849 LINE",
"538 1186 LINE",
"960 1186 LINE",
"967 1027 LINE",
"1230 1027 LINE",
"1230 1456 LINE",
"40 1456 LINE",
"40 1250 LINE",
"190 1218 LINE",
"190 237 LINE",
"40 205 LINE",
"40 0 LINE",
"40 0 LINE"
);
}
);
width = 1256;
},
{
layerId = "759DCBF5-126F-43AE-ABB8-3EC70824EECD";
paths = (
{
closed = 1;
nodes = (
"604 0 LINE",
"604 126 LINE",
"441 154 LINE",
"441 644 LINE",
"974 644 LINE",
"974 799 LINE",
"441 799 LINE",
"441 1303 LINE",
"996 1303 LINE",
"1018 1106 LINE",
"1176 1106 LINE",
"1176 1456 LINE",
"81 1456 LINE",
"81 1329 LINE",
"244 1301 LINE",
"244 154 LINE",
"81 126 LINE",
"81 0 LINE",
"81 0 LINE"
);
}
);
userData = {
assembly = "NPUSHB[ ]	/* 17 values pushed */
6 1 3 1 5 1 2 3 17 4 3 0 4 0 5 3 76 
MPPEM[ ]	/* MeasurePixelPerEm */
PUSHB[ ]	/* 1 value pushed */
12 
LT[ ]	/* LessThan */
IF[ ]	/* If */
NPUSHB[ ]	/* 31 values pushed */
0 2 3 4 3 2 114 0 4 0 5 0 4 5 103 0 3 3 1 95 0 1 1 31 77 0 0 0 32 0 78 
ELSE[ ]	/* Else */
NPUSHB[ ]	/* 32 values pushed */
0 2 3 4 3 2 4 128 0 4 0 5 0 4 5 103 0 3 3 1 95 0 1 1 31 77 0 0 0 32 0 78 
EIF[ ]	/* EndIf */
NPUSHB[ ]	/* 9 values pushed */
17 17 17 17 21 17 6 8 28 
CALL[ ]	/* CallFunction */";
};
width = 1256;
},
{
layerId = "CD48D813-7107-4EBE-8BC7-C661170EDB17";
paths = (
{
closed = 1;
nodes = (
"481 0 LINE",
"481 54 LINE",
"318 54 LINE",
"318 716 LINE",
"964 716 LINE",
"964 772 LINE",
"318 772 LINE",
"318 1402 LINE",
"1112 1402 LINE",
"1112 1163 LINE",
"1166 1163 LINE",
"1166 1456 LINE",
"101 1456 LINE",
"101 1402 LINE",
"264 1402 LINE",
"264 54 LINE",
"101 54 LINE",
"101 0 LINE",
"101 0 LINE"
);
}
);
width = 1256;
}
);
note = F;
unicode = 0046;
},
{
glyphname = G;
lastChange = "2025-05-05 12:32:27 +0000";
layers = (
{
layerId = "1AFB1E35-9546-41E1-B92B-6969383A0DDD";
paths = (
{
closed = 1;
nodes = (
"961.333 -21 OFFCURVE",
"1156.667 28.667 OFFCURVE",
"1310 130 CURVE",
"1310 734 LINE",
"807 734 LINE",
"807 492 LINE",
"967 472 LINE",
"967 284 LINE",
"920.333 262.667 OFFCURVE",
"832.667 242 OFFCURVE",
"750 242 CURVE SMOOTH",
"594 242 OFFCURVE",
"486.833 315.667 OFFCURVE",
"431.5 445 CURVE SMOOTH",
"403.833 509.667 OFFCURVE",
"390 586 OFFCURVE",
"390 674 CURVE SMOOTH",
"390 742 LINE SMOOTH",
"390 879 OFFCURVE",
"418 994 OFFCURVE",
"474 1075 CURVE SMOOTH",
"533 1163 OFFCURVE",
"624 1213 OFFCURVE",
"744 1213 CURVE SMOOTH",
"845.333 1213 OFFCURVE",
"931 1178.667 OFFCURVE",
"975 1132 CURVE",
"1027 947 LINE",
"1271 947 LINE",
"1271 1288 LINE",
"1123 1418.667 OFFCURVE",
"915.333 1477 OFFCURVE",
"722 1477 CURVE SMOOTH",
"438 1477 OFFCURVE",
"235.333 1344.333 OFFCURVE",
"130 1123 CURVE SMOOTH",
"77.333 1012.333 OFFCURVE",
"51 884.667 OFFCURVE",
"51 740 CURVE SMOOTH",
"51 674 LINE SMOOTH",
"51 399.333 OFFCURVE",
"160.167 184.333 OFFCURVE",
"363.5 67 CURVE SMOOTH",
"465.167 8.333 OFFCURVE",
"589.333 -21 OFFCURVE",
"736 -21 CURVE SMOOTH"
);
}
);
width = 1346;
},
{
layerId = "759DCBF5-126F-43AE-ABB8-3EC70824EECD";
paths = (
{
closed = 1;
nodes = (
"991.333 -21 OFFCURVE",
"1142 57.333 OFFCURVE",
"1226 136 CURVE",
"1226 700 LINE",
"750 700 LINE",
"750 555 LINE",
"1029 545 LINE",
"1029 203 LINE",
"958.333 165.667 OFFCURVE",
"871.333 140 OFFCURVE",
"738 140 CURVE SMOOTH",
"559 140 OFFCURVE",
"426 224 OFFCURVE",
"350 371 CURVE SMOOTH",
"303 463 OFFCURVE",
"278 580 OFFCURVE",
"278 716 CURVE SMOOTH",
"278 742 LINE SMOOTH",
"278 971.333 OFFCURVE",
"360.667 1147 OFFCURVE",
"494 1243 CURVE SMOOTH",
"560.667 1291 OFFCURVE",
"635.667 1315 OFFCURVE",
"719 1315 CURVE SMOOTH",
"848.333 1315 OFFCURVE",
"941.667 1292.667 OFFCURVE",
"1007 1250 CURVE",
"1028 1039 LINE",
"1190 1039 LINE",
"1190 1333 LINE",
"1078 1421 OFFCURVE",
"925.667 1477 OFFCURVE",
"699 1477 CURVE SMOOTH",
"461.667 1477 OFFCURVE",
"267.833 1346.167 OFFCURVE",
"160.5 1125.5 CURVE SMOOTH",
"106.833 1015.167 OFFCURVE",
"80 886.667 OFFCURVE",
"80 740 CURVE SMOOTH",
"80 716 LINE SMOOTH",
"80 425.333 OFFCURVE",
"190.667 197.167 OFFCURVE",
"388 72.5 CURVE SMOOTH",
"486.667 10.167 OFFCURVE",
"603.333 -21 OFFCURVE",
"738 -21 CURVE SMOOTH"
);
}
);
userData = {
assembly = "NPUSHB[ ]	/* 73 values pushed */
12 1 3 1 30 1 4 5 35 1 0 4 3 76 0 2 3 6 3 2 6 128 0 6 0 5 4 6 5 103 0 3 3 1 97 0 1 1 37 77 0 4 4 0 97 7 1 0 0 38 0 78 1 0 34 33 32 31 28 26 19 17 14 13 10 8 0 37 1 37 8 8 22 
CALL[ ]	/* CallFunction */";
};
width = 1346;
},
{
layerId = "CD48D813-7107-4EBE-8BC7-C661170EDB17";
paths = (
{
closed = 1;
nodes = (
"961.667 -21 OFFCURVE",
"1111.667 37.667 OFFCURVE",
"1233 111 CURVE",
"1233 620 LINE",
"864 620 LINE",
"864 565 LINE",
"1179 565 LINE",
"1179 141 LINE",
"1077.667 83.667 OFFCURVE",
"931.667 33 OFFCURVE",
"753 33 CURVE SMOOTH",
"507.667 33 OFFCURVE",
"331.167 155.333 OFFCURVE",
"238.5 362 CURVE SMOOTH",
"192.167 465.333 OFFCURVE",
"169 584.667 OFFCURVE",
"169 720 CURVE SMOOTH",
"169 760 LINE SMOOTH",
"169 1021.333 OFFCURVE",
"276 1225.833 OFFCURVE",
"448 1338.5 CURVE SMOOTH",
"534 1394.833 OFFCURVE",
"631 1423 OFFCURVE",
"739 1423 CURVE SMOOTH",
"933.667 1423 OFFCURVE",
"1045.333 1373.333 OFFCURVE",
"1144 1296 CURVE",
"1144 1072 LINE",
"1198 1072 LINE",
"1198 1324 LINE",
"1078 1417.333 OFFCURVE",
"944.333 1477 OFFCURVE",
"739 1477 CURVE SMOOTH",
"499 1477 OFFCURVE",
"304 1349 OFFCURVE",
"196 1133 CURVE SMOOTH",
"142 1025 OFFCURVE",
"115 900 OFFCURVE",
"115 758 CURVE SMOOTH",
"115 720 LINE SMOOTH",
"115 426.667 OFFCURVE",
"221.167 197.167 OFFCURVE",
"412.5 72.5 CURVE SMOOTH",
"508.167 10.167 OFFCURVE",
"622.333 -21 OFFCURVE",
"755 -21 CURVE SMOOTH"
);
}
);
width = 1346;
}
);
note = G;
unicode = 0047;
},
{
glyphname = H;
lastChange = "2025-05-05 12:22:04 +0000";
layers = (
{
layerId = "1AFB1E35-9546-41E1-B92B-6969383A0DDD";
paths = (
{
closed = 1;
nodes = (
"675 0 LINE",
"675 205 LINE",
"528 237 LINE",
"528 581 LINE",
"1046 581 LINE",
"1046 237 LINE",
"899 205 LINE",
"899 0 LINE",
"1537 0 LINE",
"1537 205 LINE",
"1389 237 LINE",
"1389 1218 LINE",
"1537 1250 LINE",
"1537 1456 LINE",
"899 1456 LINE",
"899 1250 LINE",
"1046 1218 LINE",
"1046 850 LINE",
"528 850 LINE",
"528 1218 LINE",
"675 1250 LINE",
"675 1456 LINE",
"37 1456 LINE",
"37 1250 LINE",
"184 1218 LINE",
"184 237 LINE",
"37 205 LINE",
"37 0 LINE",
"37 0 LINE"
);
}
);
width = 1578;
},
{
layerId = "759DCBF5-126F-43AE-ABB8-3EC70824EECD";
paths = (
{
closed = 1;
nodes = (
"604 0 LINE",
"604 126 LINE",
"441 154 LINE",
"441 643 LINE",
"1137 643 LINE",
"1137 154 LINE",
"974 126 LINE",
"974 0 LINE",
"1497 0 LINE",
"1497 126 LINE",
"1334 154 LINE",
"1334 1301 LINE",
"1497 1329 LINE",
"1497 1456 LINE",
"974 1456 LINE",
"974 1329 LINE",
"1137 1301 LINE",
"1137 798 LINE",
"441 798 LINE",
"441 1301 LINE",
"604 1329 LINE",
"604 1456 LINE",
"81 1456 LINE",
"81 1329 LINE",
"244 1301 LINE",
"244 154 LINE",
"81 126 LINE",
"81 0 LINE",
"81 0 LINE"
);
}
);
userData = {
assembly = "NPUSHB[ ]	/* 54 values pushed */
18 17 14 13 10 9 6 5 8 2 1 27 24 23 20 19 4 3 0 8 0 5 2 76 0 2 0 5 0 2 5 104 3 1 1 1 31 77 4 1 0 0 32 0 78 19 21 19 19 21 17 6 8 28 
CALL[ ]	/* CallFunction */";
};
width = 1578;
},
{
layerId = "CD48D813-7107-4EBE-8BC7-C661170EDB17";
paths = (
{
closed = 1;
nodes = (
"489 0 LINE",
"489 54 LINE",
"326 54 LINE",
"326 695 LINE",
"1256 695 LINE",
"1256 54 LINE",
"1093 54 LINE",
"1093 0 LINE",
"1473 0 LINE",
"1473 54 LINE",
"1310 54 LINE",
"1310 1402 LINE",
"1473 1402 LINE",
"1473 1456 LINE",
"1093 1456 LINE",
"1093 1402 LINE",
"1256 1402 LINE",
"1256 749 LINE",
"326 749 LINE",
"326 1402 LINE",
"489 1402 LINE",
"489 1456 LINE",
"109 1456 LINE",
"109 1402 LINE",
"272 1402 LINE",
"272 54 LINE",
"109 54 LINE",
"109 0 LINE",
"109 0 LINE"
);
}
);
width = 1578;
}
);
note = H;
unicode = 0048;
},
{
glyphname = I;
lastChange = "2025-05-05 12:22:04 +0000";
layers = (
{
layerId = "1AFB1E35-9546-41E1-B92B-6969383A0DDD";
paths = (
{
closed = 1;
nodes = (
"649 0 LINE",
"649 205 LINE",
"508 237 LINE",
"508 1218 LINE",
"649 1250 LINE",
"649 1456 LINE",
"40 1456 LINE",
"40 1250 LINE",
"181 1218 LINE",
"181 237 LINE",
"40 205 LINE",
"40 0 LINE",
"40 0 LINE"
);
}
);
width = 685;
},
{
layerId = "759DCBF5-126F-43AE-ABB8-3EC70824EECD";
paths = (
{
closed = 1;
nodes = (
"604 0 LINE",
"604 126 LINE",
"441 154 LINE",
"441 1301 LINE",
"604 1329 LINE",
"604 1456 LINE",
"81 1456 LINE",
"81 1329 LINE",
"244 1301 LINE",
"244 154 LINE",
"81 126 LINE",
"81 0 LINE",
"81 0 LINE"
);
}
);
userData = {
assembly = "NPUSHB[ ]	/* 29 values pushed */
11 10 9 6 5 4 3 0 8 0 1 1 76 0 1 1 31 77 0 0 0 32 0 78 21 17 2 8 24 
CALL[ ]	/* CallFunction */";
};
width = 685;
},
{
layerId = "CD48D813-7107-4EBE-8BC7-C661170EDB17";
paths = (
{
closed = 1;
nodes = (
"531 0 LINE",
"531 54 LINE",
"368 54 LINE",
"368 1402 LINE",
"531 1402 LINE",
"531 1456 LINE",
"151 1456 LINE",
"151 1402 LINE",
"314 1402 LINE",
"314 54 LINE",
"151 54 LINE",
"151 0 LINE",
"151 0 LINE"
);
}
);
width = 685;
}
);
note = I;
unicode = 0049;
},
{
glyphname = J;
lastChange = "2025-05-05 12:32:43 +0000";
layers = (
{
layerId = "1AFB1E35-9546-41E1-B92B-6969383A0DDD";
paths = (
{
closed = 1;
nodes = (
"724 -21 OFFCURVE",
"854 43 OFFCURVE",
"930 159 CURVE SMOOTH",
"980 236 OFFCURVE",
"1006 335 OFFCURVE",
"1006 452 CURVE SMOOTH",
"1006 1218 LINE",
"1149 1250 LINE",
"1149 1456 LINE",
"492 1456 LINE",
"492 1251 LINE",
"678 1218 LINE",
"678 452 LINE SMOOTH",
"678 356 OFFCURVE",
"641 297.667 OFFCURVE",
"589 271 CURVE SMOOTH",
"563 257.667 OFFCURVE",
"535.667 251 OFFCURVE",
"507 251 CURVE SMOOTH",
"409.667 251 OFFCURVE",
"340 301 OFFCURVE",
"328 489 CURVE",
"21 489 LINE",
"19 483 LINE",
"31.538 121.494 OFFCURVE",
"244.318 -21 OFFCURVE",
"550 -21 CURVE SMOOTH"
);
}
);
width = 1169;
},
{
layerId = "759DCBF5-126F-43AE-ABB8-3EC70824EECD";
paths = (
{
closed = 1;
nodes = (
"693 -21 OFFCURVE",
"821 55 OFFCURVE",
"886 181 CURVE SMOOTH",
"920 246 OFFCURVE",
"937 325 OFFCURVE",
"937 413 CURVE SMOOTH",
"937 1301 LINE",
"1100 1329 LINE",
"1100 1456 LINE",
"546 1456 LINE",
"546 1327 LINE",
"740 1301 LINE",
"740 413 LINE SMOOTH",
"740 301 OFFCURVE",
"705 215 OFFCURVE",
"634 170 CURVE SMOOTH",
"599 148 OFFCURVE",
"554 136 OFFCURVE",
"500 136 CURVE SMOOTH",
"342.667 136 OFFCURVE",
"256.333 225 OFFCURVE",
"251 421 CURVE",
"62 421 LINE",
"60 415 LINE",
"72.29 115.942 OFFCURVE",
"264.411 -21 OFFCURVE",
"503 -21 CURVE SMOOTH"
);
}
);
userData = {
assembly = "NPUSHB[ ]	/* 49 values pushed */
19 18 15 14 4 1 3 1 76 0 1 3 2 3 1 2 128 0 3 3 31 77 0 2 2 0 98 4 1 0 0 38 0 78 1 0 17 16 10 8 6 4 0 23 1 23 5 8 22 
CALL[ ]	/* CallFunction */";
};
width = 1169;
},
{
layerId = "CD48D813-7107-4EBE-8BC7-C661170EDB17";
paths = (
{
closed = 1;
nodes = (
"661 -21 OFFCURVE",
"788.667 54.833 OFFCURVE",
"858 187.5 CURVE SMOOTH",
"892.667 253.833 OFFCURVE",
"910 332 OFFCURVE",
"910 422 CURVE SMOOTH",
"910 1402 LINE",
"1073 1402 LINE",
"1073 1456 LINE",
"670 1456 LINE",
"670 1402 LINE",
"856 1402 LINE",
"856 422 LINE SMOOTH",
"856 263.333 OFFCURVE",
"790.833 143.833 OFFCURVE",
"683.5 80.5 CURVE SMOOTH",
"629.833 48.833 OFFCURVE",
"569 33 OFFCURVE",
"501 33 CURVE SMOOTH",
"257 33 OFFCURVE",
"124 163.667 OFFCURVE",
"124 401 CURVE",
"78 401 LINE",
"76 395 LINE",
"70.081 126.673 OFFCURVE",
"229.849 -21 OFFCURVE",
"501 -21 CURVE SMOOTH"
);
}
);
width = 1169;
}
);
note = J;
unicode = 004A;
},
{
glyphname = K;
lastChange = "2025-05-05 12:22:04 +0000";
layers = (
{
layerId = "1AFB1E35-9546-41E1-B92B-6969383A0DDD";
paths = (
{
closed = 1;
nodes = (
"634 0 LINE",
"634 205 LINE",
"506 237 LINE",
"506 406 LINE",
"685 595 LINE",
"943 216 LINE",
"941 216 LINE",
"806 205 LINE",
"806 0 LINE",
"1457 0 LINE",
"1457 205 LINE",
"1319 230 LINE",
"905 826 LINE",
"1281 1221 LINE",
"1408 1250 LINE",
"1408 1456 LINE",
"777 1456 LINE",
"777 1250 LINE",
"930 1239 LINE",
"929 1237 LINE",
"506 788 LINE",
"506 1218 LINE",
"634 1250 LINE",
"634 1456 LINE",
"40 1456 LINE",
"40 1250 LINE",
"180 1218 LINE",
"180 237 LINE",
"40 205 LINE",
"40 0 LINE",
"40 0 LINE"
);
}
);
width = 1501;
},
{
layerId = "759DCBF5-126F-43AE-ABB8-3EC70824EECD";
paths = (
{
closed = 1;
nodes = (
"604 0 LINE",
"604 126 LINE",
"441 154 LINE",
"441 436 LINE",
"669 684 LINE",
"1060 141 LINE",
"1061 140 LINE",
"941 126 LINE",
"941 0 LINE",
"1427 0 LINE",
"1427 126 LINE",
"1293 151 LINE",
"793 820 LINE",
"1238 1304 LINE",
"1375 1329 LINE",
"1375 1456 LINE",
"908 1456 LINE",
"908 1329 LINE",
"1017 1315 LINE",
"1013 1310 LINE",
"441 675 LINE",
"441 1301 LINE",
"604 1329 LINE",
"604 1456 LINE",
"81 1456 LINE",
"81 1329 LINE",
"244 1301 LINE",
"244 154 LINE",
"81 126 LINE",
"81 0 LINE",
"81 0 LINE"
);
}
);
userData = {
assembly = "NPUSHB[ ]	/* 42 values pushed */
28 25 23 22 21 20 17 16 15 14 11 10 9 8 6 5 2 17 0 2 1 76 3 1 2 2 31 77 1 1 0 0 32 0 78 23 21 24 19 4 8 26 
CALL[ ]	/* CallFunction */";
};
width = 1501;
},
{
layerId = "CD48D813-7107-4EBE-8BC7-C661170EDB17";
paths = (
{
closed = 1;
nodes = (
"491 0 LINE",
"491 54 LINE",
"328 54 LINE",
"328 411 LINE",
"651 775 LINE",
"1173 60 LINE",
"1170 54 LINE",
"1007 54 LINE",
"1007 0 LINE",
"1368 0 LINE",
"1368 54 LINE",
"1250 54 LINE",
"690 819 LINE",
"1207 1402 LINE",
"1322 1402 LINE",
"1322 1456 LINE",
"961 1456 LINE",
"961 1402 LINE",
"1129 1402 LINE",
"1131 1397 LINE",
"328 496 LINE",
"328 1402 LINE",
"491 1402 LINE",
"491 1456 LINE",
"111 1456 LINE",
"111 1402 LINE",
"274 1402 LINE",
"274 54 LINE",
"111 54 LINE",
"111 0 LINE",
"111 0 LINE"
);
}
);
width = 1501;
}
);
note = K;
unicode = 004B;
},
{
glyphname = L;
lastChange = "2025-05-05 12:22:04 +0000";
layers = (
{
layerId = "1AFB1E35-9546-41E1-B92B-6969383A0DDD";
paths = (
{
closed = 1;
nodes = (
"1174 0 LINE",
"1174 472 LINE",
"906 472 LINE",
"898 269 LINE",
"552 269 LINE",
"552 1218 LINE",
"736 1250 LINE",
"736 1456 LINE",
"50 1456 LINE",
"50 1250 LINE",
"201 1218 LINE",
"201 237 LINE",
"50 205 LINE",
"50 0 LINE",
"50 0 LINE"
);
}
);
width = 1210;
},
{
layerId = "759DCBF5-126F-43AE-ABB8-3EC70824EECD";
paths = (
{
closed = 1;
nodes = (
"1130 0 LINE",
"1130 381 LINE",
"979 381 LINE",
"956 151 LINE",
"441 151 LINE",
"441 1301 LINE",
"604 1329 LINE",
"604 1456 LINE",
"81 1456 LINE",
"81 1329 LINE",
"244 1301 LINE",
"244 154 LINE",
"81 126 LINE",
"81 0 LINE",
"81 0 LINE"
);
}
);
userData = {
assembly = "NPUSHB[ ]	/* 17 values pushed */
10 9 6 5 4 3 1 4 1 2 3 3 1 0 2 3 76 
MPPEM[ ]	/* MeasurePixelPerEm */
PUSHB[ ]	/* 1 value pushed */
10 
LT[ ]	/* LessThan */
IF[ ]	/* If */
NPUSHB[ ]	/* 24 values pushed */
4 1 3 1 2 2 3 114 0 1 1 31 77 0 2 2 0 96 0 0 0 32 0 78 
ELSE[ ]	/* Else */
NPUSHB[ ]	/* 25 values pushed */
4 1 3 1 2 1 3 2 128 0 1 1 31 77 0 2 2 0 96 0 0 0 32 0 78 
EIF[ ]	/* EndIf */
NPUSHB[ ]	/* 12 values pushed */
0 0 0 13 0 13 19 21 17 5 8 25 
CALL[ ]	/* CallFunction */";
};
width = 1210;
},
{
layerId = "CD48D813-7107-4EBE-8BC7-C661170EDB17";
paths = (
{
closed = 1;
nodes = (
"1086 0 LINE",
"1086 293 LINE",
"1032 293 LINE",
"1032 54 LINE",
"339 54 LINE",
"339 1402 LINE",
"502 1402 LINE",
"502 1456 LINE",
"121 1456 LINE",
"121 1402 LINE",
"284 1402 LINE",
"284 54 LINE",
"121 54 LINE",
"121 0 LINE",
"121 0 LINE"
);
}
);
width = 1210;
}
);
note = L;
unicode = 004C;
},
{
glyphname = M;
lastChange = "2025-05-05 12:22:04 +0000";
layers = (
{
layerId = "1AFB1E35-9546-41E1-B92B-6969383A0DDD";
paths = (
{
closed = 1;
nodes = (
"646 0 LINE",
"646 205 LINE",
"491 237 LINE",
"468 1099 LINE",
"474 1100 LINE",
"859 0 LINE",
"1113 0 LINE",
"1492 1113 LINE",
"1497 1112 LINE",
"1490 237 LINE",
"1345 205 LINE",
"1345 0 LINE",
"1945 0 LINE",
"1945 205 LINE",
"1806 237 LINE",
"1806 1218 LINE",
"1945 1250 LINE",
"1945 1456 LINE",
"1321 1456 LINE",
"1006 497 LINE",
"1001 497 LINE",
"677 1456 LINE",
"45 1456 LINE",
"45 1250 LINE",
"183 1218 LINE",
"183 237 LINE",
"45 205 LINE",
"45 0 LINE",
"45 0 LINE"
);
}
);
width = 1982;
},
{
layerId = "759DCBF5-126F-43AE-ABB8-3EC70824EECD";
paths = (
{
closed = 1;
nodes = (
"617 0 LINE",
"617 126 LINE",
"441 154 LINE",
"434 1185 LINE",
"439 1186 LINE",
"928 52 LINE",
"1059 52 LINE",
"1532 1188 LINE",
"1537 1187 LINE",
"1537 154 LINE",
"1365 126 LINE",
"1365 0 LINE",
"1888 0 LINE",
"1888 126 LINE",
"1725 154 LINE",
"1725 1301 LINE",
"1888 1329 LINE",
"1888 1456 LINE",
"1449 1456 LINE",
"995 351 LINE",
"989 351 LINE",
"520 1456 LINE",
"94 1456 LINE",
"94 1329 LINE",
"257 1301 LINE",
"257 154 LINE",
"94 126 LINE",
"94 0 LINE",
"94 0 LINE"
);
}
);
width = 1982;
},
{
layerId = "CD48D813-7107-4EBE-8BC7-C661170EDB17";
paths = (
{
closed = 1;
nodes = (
"523 0 LINE",
"523 54 LINE",
"360 54 LINE",
"360 1354 LINE",
"366 1356 LINE",
"961 0 LINE",
"1004 0 LINE",
"1602 1363 LINE",
"1608 1361 LINE",
"1608 54 LINE",
"1445 54 LINE",
"1445 0 LINE",
"1825 0 LINE",
"1825 54 LINE",
"1662 54 LINE",
"1662 1402 LINE",
"1825 1402 LINE",
"1825 1456 LINE",
"1583 1456 LINE",
"985 86 LINE",
"979 86 LINE",
"383 1456 LINE",
"143 1456 LINE",
"143 1402 LINE",
"306 1402 LINE",
"306 54 LINE",
"143 54 LINE",
"143 0 LINE",
"143 0 LINE"
);
}
);
width = 1982;
}
);
note = M;
unicode = 004D;
},
{
glyphname = N;
lastChange = "2025-05-05 12:22:04 +0000";
layers = (
{
layerId = "1AFB1E35-9546-41E1-B92B-6969383A0DDD";
paths = (
{
closed = 1;
nodes = (
"676 0 LINE",
"676 205 LINE",
"488 237 LINE",
"488 912 LINE",
"494 912 LINE",
"1074 0 LINE",
"1412 0 LINE",
"1412 1218 LINE",
"1559 1250 LINE",
"1559 1456 LINE",
"922 1456 LINE",
"922 1250 LINE",
"1109 1218 LINE",
"1109 524 LINE",
"1103 524 LINE",
"533 1456 LINE",
"39 1456 LINE",
"39 1250 LINE",
"185 1218 LINE",
"185 237 LINE",
"39 205 LINE",
"39 0 LINE",
"39 0 LINE"
);
}
);
width = 1592;
},
{
layerId = "759DCBF5-126F-43AE-ABB8-3EC70824EECD";
paths = (
{
closed = 1;
nodes = (
"606 0 LINE",
"606 126 LINE",
"427 154 LINE",
"427 1139 LINE",
"433 1141 LINE",
"1166 0 LINE",
"1346 0 LINE",
"1346 1301 LINE",
"1509 1329 LINE",
"1509 1456 LINE",
"986 1456 LINE",
"986 1329 LINE",
"1165 1301 LINE",
"1165 323 LINE",
"1159 321 LINE",
"445 1456 LINE",
"83 1456 LINE",
"83 1329 LINE",
"246 1301 LINE",
"246 154 LINE",
"83 126 LINE",
"83 0 LINE",
"83 0 LINE"
);
}
);
userData = {
assembly = "NPUSHB[ ]	/* 37 values pushed */
21 19 16 15 12 11 9 6 5 4 3 0 12 0 1 1 76 2 1 1 1 31 77 3 1 0 0 32 0 78 19 21 21 17 4 8 26 
CALL[ ]	/* CallFunction */";
};
width = 1592;
},
{
layerId = "CD48D813-7107-4EBE-8BC7-C661170EDB17";
paths = (
{
closed = 1;
nodes = (
"492 0 LINE",
"492 54 LINE",
"329 54 LINE",
"329 1354 LINE",
"335 1356 LINE",
"1269 0 LINE",
"1323 0 LINE",
"1323 1402 LINE",
"1486 1402 LINE",
"1486 1456 LINE",
"1106 1456 LINE",
"1106 1402 LINE",
"1269 1402 LINE",
"1269 105 LINE",
"1263 103 LINE",
"329 1456 LINE",
"111 1456 LINE",
"111 1402 LINE",
"274 1402 LINE",
"274 54 LINE",
"111 54 LINE",
"111 0 LINE",
"111 0 LINE"
);
}
);
width = 1592;
}
);
note = N;
unicode = 004E;
},
{
glyphname = O;
lastChange = "2025-05-05 12:33:27 +0000";
layers = (
{
layerId = "1AFB1E35-9546-41E1-B92B-6969383A0DDD";
paths = (
{
closed = 1;
nodes = (
"1032.903 -21 OFFCURVE",
"1312 294.319 OFFCURVE",
"1312 717 CURVE SMOOTH",
"1312 740 LINE SMOOTH",
"1312 1159.919 OFFCURVE",
"1031.168 1477 OFFCURVE",
"673 1477 CURVE SMOOTH",
"306.087 1477 OFFCURVE",
"44 1159.261 OFFCURVE",
"44 740 CURVE SMOOTH",
"44 717 LINE SMOOTH",
"44 295.411 OFFCURVE",
"305.606 -21 OFFCURVE",
"675 -21 CURVE SMOOTH"
);
},
{
closed = 1;
nodes = (
"432 245 OFFCURVE",
"365 485 OFFCURVE",
"365 717 CURVE SMOOTH",
"365 742 LINE SMOOTH",
"365 1028.087 OFFCURVE",
"460.434 1210 OFFCURVE",
"673 1210 CURVE SMOOTH",
"906 1210 OFFCURVE",
"993 972 OFFCURVE",
"993 742 CURVE SMOOTH",
"993 717 LINE SMOOTH",
"993 478 OFFCURVE",
"904 245 OFFCURVE",
"675 245 CURVE SMOOTH"
);
}
);
width = 1351;
},
{
layerId = "759DCBF5-126F-43AE-ABB8-3EC70824EECD";
paths = (
{
closed = 1;
nodes = (
"1087 -21 OFFCURVE",
"1281 305 OFFCURVE",
"1281 717 CURVE SMOOTH",
"1281 738 LINE SMOOTH",
"1281 1151 OFFCURVE",
"1088 1477 OFFCURVE",
"675 1477 CURVE SMOOTH",
"274 1477 OFFCURVE",
"70 1139 OFFCURVE",
"70 738 CURVE SMOOTH",
"70 717 LINE SMOOTH",
"70 314 OFFCURVE",
"275 -21 OFFCURVE",
"675 -21 CURVE SMOOTH"
);
},
{
closed = 1;
nodes = (
"414.251 143 OFFCURVE",
"268 372.463 OFFCURVE",
"268 717 CURVE SMOOTH",
"268 740 LINE SMOOTH",
"268 1082.48 OFFCURVE",
"415.68 1312 OFFCURVE",
"675 1312 CURVE SMOOTH",
"985 1312 OFFCURVE",
"1083 1041 OFFCURVE",
"1083 740 CURVE SMOOTH",
"1083 717 LINE SMOOTH",
"1083 365.769 OFFCURVE",
"959.461 143 OFFCURVE",
"675 143 CURVE SMOOTH"
);
}
);
userData = {
assembly = "NPUSHB[ ]	/* 42 values pushed */
0 3 3 1 97 0 1 1 37 77 5 1 2 2 0 97 4 1 0 0 38 0 78 23 22 1 0 32 30 22 39 23 39 12 10 0 21 1 21 6 8 22 
CALL[ ]	/* CallFunction */";
};
width = 1351;
},
{
layerId = "CD48D813-7107-4EBE-8BC7-C661170EDB17";
paths = (
{
closed = 1;
nodes = (
"1038.937 -21 OFFCURVE",
"1288 267.952 OFFCURVE",
"1288 719 CURVE SMOOTH",
"1288 737 LINE SMOOTH",
"1288 1158 OFFCURVE",
"1061 1477 OFFCURVE",
"678 1477 CURVE SMOOTH",
"290 1477 OFFCURVE",
"70 1152 OFFCURVE",
"70 737 CURVE SMOOTH",
"70 719 LINE SMOOTH",
"70 314 OFFCURVE",
"283 -21 OFFCURVE",
"680 -21 CURVE SMOOTH"
);
},
{
closed = 1;
nodes = (
"308 33 OFFCURVE",
"125 347 OFFCURVE",
"125 719 CURVE SMOOTH",
"125 739 LINE SMOOTH",
"125 1115 OFFCURVE",
"314 1423 OFFCURVE",
"678 1423 CURVE SMOOTH",
"1050 1423 OFFCURVE",
"1234 1111 OFFCURVE",
"1234 739 CURVE SMOOTH",
"1234 719 LINE SMOOTH",
"1234 342 OFFCURVE",
"1047 33 OFFCURVE",
"680 33 CURVE SMOOTH"
);
}
);
width = 1351;
}
);
note = O;
unicode = 004F;
},
{
glyphname = P;
lastChange = "2025-05-05 12:22:04 +0000";
layers = (
{
layerId = "1AFB1E35-9546-41E1-B92B-6969383A0DDD";
paths = (
{
closed = 1;
nodes = (
"669 0 LINE",
"669 205 LINE",
"523 237 LINE",
"523 493 LINE",
"722 493 LINE SMOOTH",
"944.667 493 OFFCURVE",
"1113.667 577 OFFCURVE",
"1203 721 CURVE SMOOTH",
"1247.667 793 OFFCURVE",
"1270 877 OFFCURVE",
"1270 973 CURVE SMOOTH",
"1270 1165 OFFCURVE",
"1177.167 1313.667 OFFCURVE",
"1012.5 1395 CURVE SMOOTH",
"930.167 1435.667 OFFCURVE",
"833.333 1456 OFFCURVE",
"722 1456 CURVE SMOOTH",
"185 1456 LINE",
"40 1456 LINE",
"40 1250 LINE",
"185 1218 LINE",
"185 237 LINE",
"40 205 LINE",
"40 0 LINE",
"40 0 LINE"
);
},
{
closed = 1;
nodes = (
"523 1188 LINE",
"722 1188 LINE SMOOTH",
"859.333 1188 OFFCURVE",
"932 1097.667 OFFCURVE",
"932 971 CURVE SMOOTH",
"932 848.333 OFFCURVE",
"859.333 762 OFFCURVE",
"722 762 CURVE SMOOTH",
"523 762 LINE",
"523 762 LINE"
);
}
);
width = 1297;
},
{
layerId = "759DCBF5-126F-43AE-ABB8-3EC70824EECD";
paths = (
{
closed = 1;
nodes = (
"604 0 LINE",
"604 126 LINE",
"441 154 LINE",
"441 584 LINE",
"750 584 LINE SMOOTH",
"958 584 OFFCURVE",
"1106.667 659.333 OFFCURVE",
"1184 790 CURVE SMOOTH",
"1222.667 855.333 OFFCURVE",
"1242 932 OFFCURVE",
"1242 1020 CURVE SMOOTH",
"1242 1194.667 OFFCURVE",
"1162.667 1328.833 OFFCURVE",
"1016 1401.5 CURVE SMOOTH",
"942.667 1437.833 OFFCURVE",
"854 1456 OFFCURVE",
"750 1456 CURVE SMOOTH",
"244 1456 LINE",
"81 1456 LINE",
"81 1329 LINE",
"244 1301 LINE",
"244 154 LINE",
"81 126 LINE",
"81 0 LINE",
"81 0 LINE"
);
},
{
closed = 1;
nodes = (
"441 1301 LINE",
"750 1301 LINE SMOOTH",
"947.333 1301 OFFCURVE",
"1045 1179.333 OFFCURVE",
"1045 1018 CURVE SMOOTH",
"1045 856.667 OFFCURVE",
"947.333 738 OFFCURVE",
"750 738 CURVE SMOOTH",
"441 738 LINE",
"441 738 LINE"
);
}
);
userData = {
assembly = "NPUSHB[ ]	/* 56 values pushed */
5 1 4 1 19 18 3 2 4 0 2 2 76 4 1 4 1 75 0 3 0 2 0 3 2 103 5 1 4 4 1 95 0 1 1 31 77 0 0 0 32 0 78 20 20 20 28 20 27 36 38 53 16 6 8 26 
CALL[ ]	/* CallFunction */";
};
width = 1297;
},
{
layerId = "CD48D813-7107-4EBE-8BC7-C661170EDB17";
paths = (
{
closed = 1;
nodes = (
"521 0 LINE",
"521 54 LINE",
"358 54 LINE",
"358 625 LINE",
"709 625 LINE SMOOTH",
"910.333 625 OFFCURVE",
"1051.833 695.833 OFFCURVE",
"1124.5 820.5 CURVE SMOOTH",
"1160.833 882.833 OFFCURVE",
"1179 956.333 OFFCURVE",
"1179 1041 CURVE SMOOTH",
"1179 1207.667 OFFCURVE",
"1105 1335.833 OFFCURVE",
"965 1404.5 CURVE SMOOTH",
"895 1438.833 OFFCURVE",
"809.667 1456 OFFCURVE",
"709 1456 CURVE SMOOTH",
"304 1456 LINE",
"141 1456 LINE",
"141 1402 LINE",
"304 1402 LINE",
"304 54 LINE",
"141 54 LINE",
"141 0 LINE",
"141 0 LINE"
);
},
{
closed = 1;
nodes = (
"358 1402 LINE",
"709 1402 LINE SMOOTH",
"986.333 1402 OFFCURVE",
"1125 1249.667 OFFCURVE",
"1125 1039 CURVE SMOOTH",
"1125 833.667 OFFCURVE",
"985 679 OFFCURVE",
"709 679 CURVE SMOOTH",
"358 679 LINE",
"358 679 LINE"
);
}
);
width = 1297;
}
);
note = P;
unicode = 0050;
},
{
glyphname = Q;
lastChange = "2025-05-05 12:33:58 +0000";
layers = (
{
layerId = "1AFB1E35-9546-41E1-B92B-6969383A0DDD";
paths = (
{
closed = 1;
nodes = (
"1372 -67 LINE",
"1076 120 LINE",
"1222.667 252 OFFCURVE",
"1337 470.333 OFFCURVE",
"1337 717 CURVE SMOOTH",
"1337 740 LINE SMOOTH",
"1337 1158.734 OFFCURVE",
"1057.861 1477 OFFCURVE",
"692 1477 CURVE SMOOTH",
"319.577 1477 OFFCURVE",
"56 1160 OFFCURVE",
"56 740 CURVE SMOOTH",
"56 717 LINE SMOOTH",
"56 290.884 OFFCURVE",
"322.055 -21 OFFCURVE",
"694 -21 CURVE SMOOTH",
"730 -21 OFFCURVE",
"768 -17 OFFCURVE",
"808 -13 CURVE",
"1221 -303 LINE",
"1221 -303 LINE"
);
},
{
closed = 1;
nodes = (
"482.576 245 OFFCURVE",
"380 428.29 OFFCURVE",
"380 717 CURVE SMOOTH",
"380 742 LINE SMOOTH",
"380 989 OFFCURVE",
"453 1210 OFFCURVE",
"692 1210 CURVE SMOOTH",
"927 1210 OFFCURVE",
"1015 973 OFFCURVE",
"1015 742 CURVE SMOOTH",
"1015 717 LINE SMOOTH",
"1015 430.137 OFFCURVE",
"900.115 245 OFFCURVE",
"694 245 CURVE SMOOTH"
);
}
);
width = 1376;
},
{
layerId = "759DCBF5-126F-43AE-ABB8-3EC70824EECD";
paths = (
{
closed = 1;
nodes = (
"1348 -98 LINE",
"1056 105 LINE",
"1228 235.667 OFFCURVE",
"1279 454.333 OFFCURVE",
"1279 717 CURVE SMOOTH",
"1279 738 LINE SMOOTH",
"1279 1176.769 OFFCURVE",
"1064.884 1477 OFFCURVE",
"674 1477 CURVE SMOOTH",
"302.867 1477 OFFCURVE",
"70 1178.161 OFFCURVE",
"70 738 CURVE SMOOTH",
"70 717 LINE SMOOTH",
"70 273.909 OFFCURVE",
"307.21 -21 OFFCURVE",
"674 -21 CURVE SMOOTH",
"747.333 -21 OFFCURVE",
"818.333 -8.333 OFFCURVE",
"885 13 CURVE",
"1237 -245 LINE",
"1237 -245 LINE"
);
},
{
closed = 1;
nodes = (
"410.803 143 OFFCURVE",
"267 372.746 OFFCURVE",
"267 717 CURVE SMOOTH",
"267 740 LINE SMOOTH",
"267 1082.767 OFFCURVE",
"417.126 1312 OFFCURVE",
"674 1312 CURVE SMOOTH",
"984 1312 OFFCURVE",
"1082 1041 OFFCURVE",
"1082 740 CURVE SMOOTH",
"1082 717 LINE SMOOTH",
"1082 369.182 OFFCURVE",
"952.755 143 OFFCURVE",
"674 143 CURVE SMOOTH"
);
}
);
userData = {
assembly = "NPUSHB[ ]	/* 46 values pushed */
25 2 2 0 2 1 76 1 1 0 73 0 3 3 1 97 0 1 1 37 77 4 1 2 2 0 97 0 0 0 38 0 78 27 26 36 34 26 43 27 43 41 36 5 8 24 
CALL[ ]	/* CallFunction */";
};
width = 1376;
},
{
layerId = "CD48D813-7107-4EBE-8BC7-C661170EDB17";
paths = (
{
closed = 1;
nodes = (
"1303 -165 LINE",
"993 56 LINE",
"1190.333 170.667 OFFCURVE",
"1308 409.667 OFFCURVE",
"1308 719 CURVE SMOOTH",
"1308 737 LINE SMOOTH",
"1308 1158 OFFCURVE",
"1081 1477 OFFCURVE",
"698 1477 CURVE SMOOTH",
"310 1477 OFFCURVE",
"90 1152 OFFCURVE",
"90 737 CURVE SMOOTH",
"90 719 LINE SMOOTH",
"90 314 OFFCURVE",
"303 -21 OFFCURVE",
"700 -21 CURVE SMOOTH",
"785.333 -21 OFFCURVE",
"865.667 -5.333 OFFCURVE",
"939 28 CURVE",
"1268 -206 LINE",
"1268 -206 LINE"
);
},
{
closed = 1;
nodes = (
"328 33 OFFCURVE",
"145 347 OFFCURVE",
"145 719 CURVE SMOOTH",
"145 739 LINE SMOOTH",
"145 1115 OFFCURVE",
"334 1423 OFFCURVE",
"698 1423 CURVE SMOOTH",
"1070 1423 OFFCURVE",
"1254 1111 OFFCURVE",
"1254 739 CURVE SMOOTH",
"1254 719 LINE SMOOTH",
"1254 342 OFFCURVE",
"1067 33 OFFCURVE",
"700 33 CURVE SMOOTH"
);
}
);
width = 1376;
}
);
note = Q;
unicode = 0051;
},
{
glyphname = R;
lastChange = "2025-05-05 12:34:10 +0000";
layers = (
{
layerId = "1AFB1E35-9546-41E1-B92B-6969383A0DDD";
paths = (
{
closed = 1;
nodes = (
"674 0 LINE",
"674 205 LINE",
"527 237 LINE",
"527 528 LINE",
"763 525 LINE SMOOTH",
"964.333 523.667 OFFCURVE",
"1126.5 620.333 OFFCURVE",
"1216.5 767 CURVE SMOOTH",
"1261.5 840.333 OFFCURVE",
"1284 919.667 OFFCURVE",
"1284 1005 CURVE SMOOTH",
"1284 1190.333 OFFCURVE",
"1191.167 1328.667 OFFCURVE",
"1026.5 1402 CURVE SMOOTH",
"944.167 1438.667 OFFCURVE",
"847 1457 OFFCURVE",
"735 1457 CURVE SMOOTH",
"40 1457 LINE",
"40 1250 LINE",
"187 1218 LINE",
"187 237 LINE",
"40 205 LINE",
"40 0 LINE",
"40 0 LINE"
);
},
{
closed = 1;
nodes = (
"1347 0 LINE",
"1347 204 LINE",
"1213 239 LINE",
"1041 672 LINE",
"745 568 LINE",
"935 0 LINE",
"935 0 LINE"
);
},
{
closed = 1;
nodes = (
"527 1188 LINE",
"735 1188 LINE SMOOTH",
"869.667 1188 OFFCURVE",
"945 1106 OFFCURVE",
"945 982 CURVE SMOOTH",
"945 862 OFFCURVE",
"871 797 OFFCURVE",
"739 797 CURVE SMOOTH",
"527 797 LINE",
"527 797 LINE"
);
}
);
width = 1385;
},
{
layerId = "759DCBF5-126F-43AE-ABB8-3EC70824EECD";
paths = (
{
closed = 1;
nodes = (
"604 0 LINE",
"604 126 LINE",
"441 154 LINE",
"441 650 LINE",
"767 656 LINE SMOOTH",
"911 659 OFFCURVE",
"1025 695 OFFCURVE",
"1103 762 CURVE SMOOTH",
"1180 828 OFFCURVE",
"1222 925 OFFCURVE",
"1222 1050 CURVE SMOOTH",
"1222 1223.333 OFFCURVE",
"1144.5 1344.167 OFFCURVE",
"998.5 1407.5 CURVE SMOOTH",
"925.5 1439.167 OFFCURVE",
"836 1455 OFFCURVE",
"730 1455 CURVE SMOOTH",
"81 1455 LINE",
"81 1329 LINE",
"244 1301 LINE",
"244 154 LINE",
"81 126 LINE",
"81 0 LINE",
"81 0 LINE"
);
},
{
closed = 1;
nodes = (
"1285 0 LINE",
"1285 129 LINE",
"1184 147 LINE",
"915 729 LINE",
"718 727 LINE",
"1042 0 LINE",
"1042 0 LINE"
);
},
{
closed = 1;
nodes = (
"441 1301 LINE",
"730 1301 LINE SMOOTH",
"931.333 1301 OFFCURVE",
"1025 1205.333 OFFCURVE",
"1025 1052 CURVE SMOOTH",
"1025 890.667 OFFCURVE",
"930 805 OFFCURVE",
"710 805 CURVE SMOOTH",
"441 805 LINE",
"441 805 LINE"
);
}
);
userData = {
assembly = "NPUSHB[ ]	/* 19 values pushed */
5 1 4 1 28 18 17 3 2 5 0 2 2 76 4 1 4 1 75 
MPPEM[ ]	/* MeasurePixelPerEm */
PUSHB[ ]	/* 1 value pushed */
33 
LT[ ]	/* LessThan */
IF[ ]	/* If */
NPUSHB[ ]	/* 33 values pushed */
0 6 3 2 3 6 114 0 3 0 2 0 3 2 103 7 1 4 4 1 95 0 1 1 31 77 5 1 0 0 32 0 78 
ELSE[ ]	/* Else */
NPUSHB[ ]	/* 34 values pushed */
0 6 3 2 3 6 2 128 0 3 0 2 0 3 2 103 7 1 4 4 1 95 0 1 1 31 77 5 1 0 0 32 0 78 
EIF[ ]	/* EndIf */
NPUSHB[ ]	/* 17 values pushed */
19 19 32 31 30 29 19 27 19 26 36 38 37 16 8 8 26 
CALL[ ]	/* CallFunction */";
};
width = 1385;
},
{
layerId = "CD48D813-7107-4EBE-8BC7-C661170EDB17";
paths = (
{
closed = 1;
nodes = (
"491 -1 LINE",
"491 53 LINE",
"328 53 LINE",
"328 683 LINE",
"692 683 LINE SMOOTH",
"840 683 OFFCURVE",
"962 719 OFFCURVE",
"1047 786 CURVE SMOOTH",
"1128 851 OFFCURVE",
"1174 946 OFFCURVE",
"1174 1065 CURVE SMOOTH",
"1174 1235.667 OFFCURVE",
"1098.5 1351.167 OFFCURVE",
"956.5 1410.5 CURVE SMOOTH",
"885.5 1440.167 OFFCURVE",
"798.667 1455 OFFCURVE",
"696 1455 CURVE SMOOTH",
"111 1455 LINE",
"111 1401 LINE",
"274 1401 LINE",
"274 53 LINE",
"111 53 LINE",
"111 -1 LINE",
"111 -1 LINE"
);
},
{
closed = 1;
nodes = (
"1276 -1 LINE",
"1276 53 LINE",
"1143 53 LINE",
"856 718 LINE",
"802 718 LINE",
"1107 -1 LINE",
"1107 -1 LINE"
);
},
{
closed = 1;
nodes = (
"328 1401 LINE",
"696 1401 LINE SMOOTH",
"977.333 1401 OFFCURVE",
"1120 1282.333 OFFCURVE",
"1120 1065 CURVE SMOOTH",
"1120 878.333 OFFCURVE",
"985.667 737 OFFCURVE",
"691 737 CURVE SMOOTH",
"328 737 LINE",
"328 737 LINE"
);
}
);
width = 1385;
}
);
note = R;
unicode = 0052;
},
{
glyphname = S;
lastChange = "2025-05-05 12:35:11 +0000";
layers = (
{
layerId = "1AFB1E35-9546-41E1-B92B-6969383A0DDD";
paths = (
{
closed = 1;
nodes = (
"919 -21 OFFCURVE",
"1167 104 OFFCURVE",
"1167 384 CURVE SMOOTH",
"1167 634.667 OFFCURVE",
"998 766.667 OFFCURVE",
"678 864 CURVE",
"577 904 OFFCURVE",
"420 956 OFFCURVE",
"420 1065 CURVE SMOOTH",
"420 1155.426 OFFCURVE",
"498.592 1209 OFFCURVE",
"625 1209 CURVE SMOOTH",
"717 1209 OFFCURVE",
"805 1186.667 OFFCURVE",
"849 1164 CURVE",
"888 969 LINE",
"1140 969 LINE",
"1140 1320 LINE",
"1005.333 1426.667 OFFCURVE",
"830.333 1480.333 OFFCURVE",
"601 1475 CURVE SMOOTH",
"328 1470 OFFCURVE",
"81 1329 OFFCURVE",
"81 1066 CURVE SMOOTH",
"81 761 OFFCURVE",
"366 666 OFFCURVE",
"608 586 CURVE",
"762.674 524.894 OFFCURVE",
"825 471.243 OFFCURVE",
"825 382 CURVE SMOOTH",
"825 291.418 OFFCURVE",
"758.639 240 OFFCURVE",
"629 240 CURVE SMOOTH",
"505 240 OFFCURVE",
"389.333 277 OFFCURVE",
"348 325 CURVE",
"319 519 LINE",
"56 519 LINE",
"56 141 LINE",
"233.333 15.667 OFFCURVE",
"398.333 -21 OFFCURVE",
"629 -21 CURVE SMOOTH"
);
}
);
width = 1206;
},
{
layerId = "759DCBF5-126F-43AE-ABB8-3EC70824EECD";
paths = (
{
closed = 1;
nodes = (
"881 -21 OFFCURVE",
"1116 118 OFFCURVE",
"1116 379 CURVE SMOOTH",
"1116 597.667 OFFCURVE",
"955.667 747 OFFCURVE",
"649 823 CURVE SMOOTH",
"483 865 OFFCURVE",
"314 919 OFFCURVE",
"314 1082 CURVE SMOOTH",
"314 1225.149 OFFCURVE",
"429.597 1319 OFFCURVE",
"598 1319 CURVE SMOOTH",
"730 1319 OFFCURVE",
"816 1283 OFFCURVE",
"876 1235 CURVE",
"909 1027 LINE",
"1062 1027 LINE",
"1062 1318 LINE",
"960.667 1406 OFFCURVE",
"802 1477 OFFCURVE",
"598 1477 CURVE SMOOTH",
"341 1477 OFFCURVE",
"117 1332 OFFCURVE",
"117 1079 CURVE SMOOTH",
"117 824 OFFCURVE",
"343 708 OFFCURVE",
"581 652 CURVE SMOOTH",
"823.314 596.669 OFFCURVE",
"919 515.984 OFFCURVE",
"919 377 CURVE SMOOTH",
"919 215 OFFCURVE",
"780 136 OFFCURVE",
"606 136 CURVE SMOOTH",
"488.667 136 OFFCURVE",
"387.667 166.667 OFFCURVE",
"301 220 CURVE",
"268 449 LINE",
"115 449 LINE",
"115 138 LINE",
"264.333 30 OFFCURVE",
"428.667 -21 OFFCURVE",
"606 -21 CURVE SMOOTH"
);
}
);
userData = {
assembly = "NPUSHB[ ]	/* 66 values pushed */
28 1 4 5 3 1 2 1 2 76 0 4 5 1 5 4 1 128 0 1 2 5 1 2 126 0 5 5 3 97 0 3 3 37 77 0 2 2 0 97 6 1 0 0 38 0 78 1 0 35 33 30 29 26 24 10 8 5 4 0 48 1 48 7 8 22 
CALL[ ]	/* CallFunction */";
};
width = 1206;
},
{
layerId = "CD48D813-7107-4EBE-8BC7-C661170EDB17";
paths = (
{
closed = 1;
nodes = (
"861 -21 OFFCURVE",
"1103 99 OFFCURVE",
"1103 351 CURVE SMOOTH",
"1103 580.333 OFFCURVE",
"936.667 694.333 OFFCURVE",
"614 781 CURVE SMOOTH",
"395 840 OFFCURVE",
"206 905 OFFCURVE",
"206 1131 CURVE SMOOTH",
"206 1328 OFFCURVE",
"405 1423 OFFCURVE",
"602 1423 CURVE SMOOTH",
"758 1423 OFFCURVE",
"897 1378.667 OFFCURVE",
"1001 1292 CURVE",
"1001 1088 LINE",
"1055 1088 LINE",
"1055 1322 LINE",
"941.667 1416.667 OFFCURVE",
"790 1477 OFFCURVE",
"602 1477 CURVE SMOOTH",
"362 1477 OFFCURVE",
"152 1359 OFFCURVE",
"152 1129 CURVE SMOOTH",
"152 863 OFFCURVE",
"372 792 OFFCURVE",
"599 729 CURVE SMOOTH",
"831 665 OFFCURVE",
"1048 582 OFFCURVE",
"1048 349 CURVE SMOOTH",
"1048 135 OFFCURVE",
"827 33 OFFCURVE",
"609 33 CURVE SMOOTH",
"469 33 OFFCURVE",
"318 73.333 OFFCURVE",
"174 164 CURVE",
"174 390 LINE",
"120 390 LINE",
"120 133 LINE",
"278.667 26.333 OFFCURVE",
"453 -21 OFFCURVE",
"609 -21 CURVE SMOOTH"
);
}
);
width = 1206;
}
);
note = S;
unicode = 0053;
},
{
glyphname = T;
lastChange = "2025-05-05 12:22:04 +0000";
layers = (
{
layerId = "1AFB1E35-9546-41E1-B92B-6969383A0DDD";
paths = (
{
closed = 1;
nodes = (
"1026 0 LINE",
"1026 205 LINE",
"874 237 LINE",
"874 1184 LINE",
"1101 1184 LINE",
"1109 1027 LINE",
"1377 1027 LINE",
"1377 1456 LINE",
"24 1456 LINE",
"24 1027 LINE",
"289 1027 LINE",
"298 1184 LINE",
"523 1184 LINE",
"523 237 LINE",
"371 205 LINE",
"371 0 LINE",
"371 0 LINE"
);
}
);
width = 1406;
},
{
layerId = "759DCBF5-126F-43AE-ABB8-3EC70824EECD";
paths = (
{
closed = 1;
nodes = (
"963 0 LINE",
"963 126 LINE",
"800 154 LINE",
"800 1307 LINE",
"1130 1307 LINE",
"1160 1105 LINE",
"1306 1105 LINE",
"1306 1456 LINE",
"96 1456 LINE",
"96 1105 LINE",
"244 1105 LINE",
"273 1307 LINE",
"603 1307 LINE",
"603 154 LINE",
"440 126 LINE",
"440 0 LINE",
"440 0 LINE"
);
}
);
userData = {
assembly = "NPUSHB[ ]	/* 9 values pushed */
15 4 3 0 4 0 2 1 76 
MPPEM[ ]	/* MeasurePixelPerEm */
PUSHB[ ]	/* 1 value pushed */
12 
LT[ ]	/* LessThan */
IF[ ]	/* If */
NPUSHB[ ]	/* 25 values pushed */
4 1 2 1 0 1 2 114 5 1 1 1 3 95 0 3 3 31 77 0 0 0 32 0 78 
ELSE[ ]	/* Else */
NPUSHB[ ]	/* 26 values pushed */
4 1 2 1 0 1 2 0 128 5 1 1 1 3 95 0 3 3 31 77 0 0 0 32 0 78 
EIF[ ]	/* EndIf */
NPUSHB[ ]	/* 9 values pushed */
17 17 17 17 19 17 6 8 28 
CALL[ ]	/* CallFunction */";
};
width = 1406;
},
{
layerId = "CD48D813-7107-4EBE-8BC7-C661170EDB17";
paths = (
{
closed = 1;
nodes = (
"897 0 LINE",
"897 54 LINE",
"734 54 LINE",
"734 1402 LINE",
"1210 1402 LINE",
"1210 1163 LINE",
"1264 1163 LINE",
"1264 1456 LINE",
"150 1456 LINE",
"150 1163 LINE",
"204 1163 LINE",
"204 1402 LINE",
"680 1402 LINE",
"680 54 LINE",
"517 54 LINE",
"517 0 LINE",
"517 0 LINE"
);
}
);
width = 1406;
}
);
note = T;
unicode = 0054;
},
{
glyphname = U;
lastChange = "2025-05-05 12:35:24 +0000";
layers = (
{
layerId = "1AFB1E35-9546-41E1-B92B-6969383A0DDD";
paths = (
{
closed = 1;
nodes = (
"1127.752 -21 OFFCURVE",
"1359 178.221 OFFCURVE",
"1359 503 CURVE SMOOTH",
"1359 1218 LINE",
"1504 1250 LINE",
"1504 1456 LINE",
"875 1456 LINE",
"875 1250 LINE",
"1020 1218 LINE",
"1020 503 LINE SMOOTH",
"1020 326.933 OFFCURVE",
"930.683 244 OFFCURVE",
"761 244 CURVE SMOOTH",
"596.077 244 OFFCURVE",
"504 327.285 OFFCURVE",
"504 503 CURVE SMOOTH",
"504 1218 LINE",
"650 1250 LINE",
"650 1456 LINE",
"20 1456 LINE",
"20 1250 LINE",
"165 1218 LINE",
"165 503 LINE SMOOTH",
"165 171.134 OFFCURVE",
"389.033 -21 OFFCURVE",
"763 -21 CURVE SMOOTH"
);
}
);
width = 1522;
},
{
layerId = "759DCBF5-126F-43AE-ABB8-3EC70824EECD";
paths = (
{
closed = 1;
nodes = (
"1085.94 -21 OFFCURVE",
"1289 159.177 OFFCURVE",
"1289 469 CURVE SMOOTH",
"1289 1301 LINE",
"1452 1329 LINE",
"1452 1456 LINE",
"929 1456 LINE",
"929 1329 LINE",
"1092 1301 LINE",
"1092 469 LINE SMOOTH",
"1092 247.423 OFFCURVE",
"954.918 137 OFFCURVE",
"758 137 CURVE SMOOTH",
"569.974 137 OFFCURVE",
"430 243.868 OFFCURVE",
"430 469 CURVE SMOOTH",
"430 1301 LINE",
"593 1329 LINE",
"593 1456 LINE",
"70 1456 LINE",
"70 1329 LINE",
"233 1301 LINE",
"233 469 LINE SMOOTH",
"233 158 OFFCURVE",
"460 -21 OFFCURVE",
"755 -21 CURVE SMOOTH"
);
}
);
userData = {
assembly = "NPUSHB[ ]	/* 46 values pushed */
25 24 21 20 10 9 6 5 8 2 1 1 76 3 1 1 1 31 77 0 2 2 0 97 4 1 0 0 38 0 78 1 0 23 22 16 14 8 7 0 29 1 29 5 8 22 
CALL[ ]	/* CallFunction */";
};
width = 1522;
},
{
layerId = "CD48D813-7107-4EBE-8BC7-C661170EDB17";
paths = (
{
closed = 1;
nodes = (
"1070 -21 OFFCURVE",
"1258 166 OFFCURVE",
"1258 469 CURVE SMOOTH",
"1258 1402 LINE",
"1421 1402 LINE",
"1421 1456 LINE",
"1041 1456 LINE",
"1041 1402 LINE",
"1204 1402 LINE",
"1204 469 LINE SMOOTH",
"1204 195 OFFCURVE",
"1021 33 OFFCURVE",
"761 33 CURVE SMOOTH",
"505 33 OFFCURVE",
"317 187 OFFCURVE",
"317 469 CURVE SMOOTH",
"317 1402 LINE",
"480 1402 LINE",
"480 1456 LINE",
"100 1456 LINE",
"100 1402 LINE",
"263 1402 LINE",
"263 469 LINE SMOOTH",
"263 148.22 OFFCURVE",
"466.579 -21 OFFCURVE",
"761 -21 CURVE SMOOTH"
);
}
);
width = 1522;
}
);
note = U;
unicode = 0055;
},
{
glyphname = V;
lastChange = "2025-05-05 12:22:04 +0000";
layers = (
{
layerId = "1AFB1E35-9546-41E1-B92B-6969383A0DDD";
paths = (
{
closed = 1;
nodes = (
"962 0 LINE",
"1360 1234 LINE",
"1499 1250 LINE",
"1499 1456 LINE",
"903 1456 LINE",
"903 1250 LINE",
"1055 1230 LINE",
"808 409 LINE",
"795 355 LINE",
"789 355 LINE",
"776 412 LINE",
"521 1230 LINE",
"648 1250 LINE",
"648 1456 LINE",
"9 1456 LINE",
"9 1250 LINE",
"144 1234 LINE",
"590 0 LINE",
"590 0 LINE"
);
}
);
width = 1508;
},
{
layerId = "759DCBF5-126F-43AE-ABB8-3EC70824EECD";
paths = (
{
closed = 1;
nodes = (
"838 0 LINE",
"1326 1313 LINE",
"1443 1329 LINE",
"1443 1456 LINE",
"984 1456 LINE",
"984 1329 LINE",
"1132 1309 LINE",
"794 382 LINE",
"758 267 LINE",
"752 267 LINE",
"718 382 LINE",
"392 1308 LINE",
"525 1329 LINE",
"525 1456 LINE",
"65 1456 LINE",
"65 1329 LINE",
"181 1313 LINE",
"669 0 LINE",
"669 0 LINE"
);
}
);
userData = {
assembly = "NPUSHB[ ]	/* 30 values pushed */
17 14 13 10 8 7 4 7 0 1 1 76 2 1 1 1 31 77 0 0 0 32 0 78 25 19 17 3 8 25 
CALL[ ]	/* CallFunction */";
};
width = 1508;
},
{
layerId = "CD48D813-7107-4EBE-8BC7-C661170EDB17";
paths = (
{
closed = 1;
nodes = (
"787 0 LINE",
"1311 1402 LINE",
"1418 1402 LINE",
"1418 1456 LINE",
"1099 1456 LINE",
"1099 1402 LINE",
"1252 1402 LINE",
"783 142 LINE",
"757 63 LINE",
"751 63 LINE",
"725 142 LINE",
"256 1402 LINE",
"409 1402 LINE",
"409 1456 LINE",
"90 1456 LINE",
"90 1402 LINE",
"197 1402 LINE",
"721 0 LINE",
"721 0 LINE"
);
}
);
width = 1508;
}
);
note = V;
unicode = 0056;
},
{
glyphname = W;
lastChange = "2025-05-05 12:22:04 +0000";
layers = (
{
layerId = "1AFB1E35-9546-41E1-B92B-6969383A0DDD";
paths = (
{
closed = 1;
nodes = (
"795 0 LINE",
"1038 747 LINE",
"1075 857 LINE",
"1081 857 LINE",
"1110 753 LINE",
"1349 0 LINE",
"1647 0 LINE",
"1981 1235 LINE",
"2128 1250 LINE",
"2128 1456 LINE",
"1516 1456 LINE",
"1516 1250 LINE",
"1675 1227 LINE",
"1513 536 LINE",
"1497 473 LINE",
"1491 473 LINE",
"1471 536 LINE",
"1185 1456 LINE",
"955 1456 LINE",
"684 577 LINE",
"661 482 LINE",
"655 482 LINE",
"633 576 LINE",
"482 1227 LINE",
"636 1250 LINE",
"636 1456 LINE",
"11 1456 LINE",
"11 1250 LINE",
"168 1235 LINE",
"488 0 LINE",
"488 0 LINE"
);
}
);
width = 2129;
},
{
layerId = "759DCBF5-126F-43AE-ABB8-3EC70824EECD";
paths = (
{
closed = 1;
nodes = (
"711 0 LINE",
"1028 1008 LINE",
"1067 1155 LINE",
"1073 1155 LINE",
"1113 1008 LINE",
"1429 0 LINE",
"1616 0 LINE",
"1942 1314 LINE",
"2057 1329 LINE",
"2057 1456 LINE",
"1593 1456 LINE",
"1593 1329 LINE",
"1756 1306 LINE",
"1568 504 LINE",
"1516 306 LINE",
"1510 306 LINE",
"1453 504 LINE",
"1157 1456 LINE",
"984 1456 LINE",
"691 504 LINE",
"633 317 LINE",
"627 318 LINE",
"583 505 LINE",
"393 1306 LINE",
"544 1329 LINE",
"544 1456 LINE",
"72 1456 LINE",
"72 1329 LINE",
"195 1314 LINE",
"535 0 LINE",
"535 0 LINE"
);
}
);
userData = {
assembly = "NPUSHB[ ]	/* 36 values pushed */
28 23 20 19 16 10 8 7 4 9 0 1 1 76 3 2 2 1 1 31 77 4 1 0 0 32 0 78 19 23 23 19 17 5 8 27 
CALL[ ]	/* CallFunction */";
};
width = 2129;
},
{
layerId = "CD48D813-7107-4EBE-8BC7-C661170EDB17";
paths = (
{
closed = 1;
nodes = (
"646 0 LINE",
"1030 1214 LINE",
"1076 1359 LINE",
"1082 1359 LINE",
"1130 1214 LINE",
"1511 0 LINE",
"1572 0 LINE",
"1930 1402 LINE",
"2031 1402 LINE",
"2031 1456 LINE",
"1712 1456 LINE",
"1712 1402 LINE",
"1871 1402 LINE",
"1605 330 LINE",
"1540 101 LINE",
"1534 101 LINE",
"1472 330 LINE",
"1110 1456 LINE",
"1050 1456 LINE",
"686 330 LINE",
"623 101 LINE",
"617 101 LINE",
"554 330 LINE",
"285 1402 LINE",
"445 1402 LINE",
"445 1456 LINE",
"125 1456 LINE",
"125 1402 LINE",
"226 1402 LINE",
"585 0 LINE",
"585 0 LINE"
);
}
);
width = 2129;
}
);
note = W;
unicode = 0057;
},
{
glyphname = X;
lastChange = "2025-05-05 12:22:04 +0000";
layers = (
{
layerId = "1AFB1E35-9546-41E1-B92B-6969383A0DDD";
paths = (
{
closed = 1;
nodes = (
"636 0 LINE",
"636 205 LINE",
"521 217 LINE",
"754 523 LINE",
"978 217 LINE",
"862 205 LINE",
"862 0 LINE",
"1510 0 LINE",
"1510 205 LINE",
"1366 232 LINE",
"960 752 LINE",
"1319 1223 LINE",
"1445 1250 LINE",
"1445 1456 LINE",
"831 1456 LINE",
"831 1250 LINE",
"964 1237 LINE",
"750 948 LINE",
"544 1237 LINE",
"684 1250 LINE",
"684 1456 LINE",
"55 1456 LINE",
"55 1250 LINE",
"167 1223 LINE",
"537 710 LINE",
"150 231 LINE",
"21 205 LINE",
"21 0 LINE",
"21 0 LINE"
);
}
);
width = 1529;
},
{
layerId = "759DCBF5-126F-43AE-ABB8-3EC70824EECD";
paths = (
{
closed = 1;
nodes = (
"556 0 LINE",
"556 126 LINE",
"423 139 LINE",
"767 612 LINE",
"1112 139 LINE",
"971 126 LINE",
"971 0 LINE",
"1449 0 LINE",
"1449 126 LINE",
"1320 148 LINE",
"882 739 LINE",
"1277 1307 LINE",
"1410 1329 LINE",
"1410 1456 LINE",
"935 1456 LINE",
"935 1329 LINE",
"1075 1316 LINE",
"769 867 LINE",
"447 1316 LINE",
"584 1329 LINE",
"584 1456 LINE",
"112 1456 LINE",
"112 1329 LINE",
"239 1307 LINE",
"657 739 LINE",
"206 148 LINE",
"80 126 LINE",
"80 0 LINE",
"80 0 LINE"
);
}
);
userData = {
assembly = "NPUSHB[ ]	/* 41 values pushed */
27 26 25 24 21 19 17 14 13 12 11 10 7 5 3 0 16 0 1 1 76 2 1 1 1 31 77 3 1 0 0 32 0 78 22 22 22 17 4 8 26 
CALL[ ]	/* CallFunction */";
};
width = 1529;
},
{
layerId = "CD48D813-7107-4EBE-8BC7-C661170EDB17";
paths = (
{
closed = 1;
nodes = (
"473 0 LINE",
"473 54 LINE",
"308 54 LINE",
"761 701 LINE",
"1215 54 LINE",
"1050 54 LINE",
"1050 0 LINE",
"1397 0 LINE",
"1397 54 LINE",
"1282 54 LINE",
"796 743 LINE",
"1261 1402 LINE",
"1376 1402 LINE",
"1376 1456 LINE",
"1029 1456 LINE",
"1029 1402 LINE",
"1194 1402 LINE",
"761 785 LINE",
"329 1402 LINE",
"495 1402 LINE",
"495 1456 LINE",
"147 1456 LINE",
"147 1402 LINE",
"262 1402 LINE",
"728 743 LINE",
"242 54 LINE",
"127 54 LINE",
"127 0 LINE",
"127 0 LINE"
);
}
);
width = 1529;
}
);
note = X;
unicode = 0058;
},
{
glyphname = Y;
lastChange = "2025-05-05 12:22:04 +0000";
layers = (
{
layerId = "1AFB1E35-9546-41E1-B92B-6969383A0DDD";
paths = (
{
closed = 1;
nodes = (
"1047 0 LINE",
"1047 205 LINE",
"901 237 LINE",
"901 508 LINE",
"1301 1229 LINE",
"1448 1250 LINE",
"1448 1456 LINE",
"857 1456 LINE",
"857 1250 LINE",
"1003 1234 LINE",
"756 784 LINE",
"747 784 LINE",
"534 1234 LINE",
"620 1250 LINE",
"620 1456 LINE",
"18 1456 LINE",
"18 1250 LINE",
"163 1229 LINE",
"567 480 LINE",
"567 237 LINE",
"422 205 LINE",
"422 0 LINE",
"422 0 LINE"
);
}
);
width = 1461;
},
{
layerId = "759DCBF5-126F-43AE-ABB8-3EC70824EECD";
paths = (
{
closed = 1;
nodes = (
"992 0 LINE",
"992 126 LINE",
"829 154 LINE",
"829 545 LINE",
"1269 1310 LINE",
"1396 1329 LINE",
"1396 1456 LINE",
"904 1456 LINE",
"904 1329 LINE",
"1076 1310 LINE",
"732 701 LINE",
"731 699 LINE",
"401 1310 LINE",
"567 1329 LINE",
"567 1456 LINE",
"65 1456 LINE",
"65 1329 LINE",
"185 1310 LINE",
"633 530 LINE",
"633 154 LINE",
"470 126 LINE",
"470 0 LINE",
"470 0 LINE"
);
}
);
userData = {
assembly = "NPUSHB[ ]	/* 36 values pushed */
22 21 19 16 15 12 11 10 7 5 4 3 0 13 0 1 1 76 2 1 1 1 31 77 0 0 0 32 0 78 24 22 17 3 8 25 
CALL[ ]	/* CallFunction */";
};
width = 1461;
},
{
layerId = "CD48D813-7107-4EBE-8BC7-C661170EDB17";
paths = (
{
closed = 1;
nodes = (
"927 0 LINE",
"927 54 LINE",
"764 54 LINE",
"764 553 LINE",
"1278 1402 LINE",
"1398 1402 LINE",
"1398 1456 LINE",
"1072 1456 LINE",
"1072 1402 LINE",
"1213 1402 LINE",
"736 599 LINE",
"735 597 LINE",
"260 1402 LINE",
"401 1402 LINE",
"401 1456 LINE",
"75 1456 LINE",
"75 1402 LINE",
"194 1402 LINE",
"709 553 LINE",
"709 54 LINE",
"546 54 LINE",
"546 0 LINE",
"546 0 LINE"
);
}
);
width = 1461;
}
);
note = Y;
unicode = 0059;
},
{
glyphname = Z;
lastChange = "2025-05-05 12:22:04 +0000";
layers = (
{
layerId = "1AFB1E35-9546-41E1-B92B-6969383A0DDD";
paths = (
{
closed = 1;
nodes = (
"1146 0 LINE",
"1174 441 LINE",
"925 441 LINE",
"898 268 LINE",
"482 268 LINE",
"1132 1245 LINE",
"1132 1456 LINE",
"106 1456 LINE",
"88 1002 LINE",
"338 1002 LINE",
"363 1187 LINE",
"712 1187 LINE",
"64 219 LINE",
"64 0 LINE",
"64 0 LINE"
);
}
);
width = 1197;
},
{
layerId = "759DCBF5-126F-43AE-ABB8-3EC70824EECD";
paths = (
{
closed = 1;
nodes = (
"1107 0 LINE",
"1107 360 LINE",
"950 360 LINE",
"932 153 LINE",
"313 153 LINE",
"1074 1311 LINE",
"1074 1456 LINE",
"105 1456 LINE",
"105 1114 LINE",
"263 1114 LINE",
"281 1302 LINE",
"847 1302 LINE",
"90 149 LINE",
"90 0 LINE",
"90 0 LINE"
);
}
);
userData = {
assembly = "NPUSHB[ ]	/* 10 values pushed */
10 1 1 3 3 1 0 4 2 76 
MPPEM[ ]	/* MeasurePixelPerEm */
PUSHB[ ]	/* 1 value pushed */
12 
LT[ ]	/* LessThan */
IF[ ]	/* If */
NPUSHB[ ]	/* 35 values pushed */
0 2 1 5 1 2 114 6 1 5 4 4 5 112 0 1 1 3 95 0 3 3 31 77 0 4 4 0 96 0 0 0 32 0 78 
ELSE[ ]	/* Else */
MPPEM[ ]	/* MeasurePixelPerEm */
PUSHB[ ]	/* 1 value pushed */
14 
LT[ ]	/* LessThan */
IF[ ]	/* If */
NPUSHB[ ]	/* 36 values pushed */
0 2 1 5 1 2 114 6 1 5 4 1 5 4 126 0 1 1 3 95 0 3 3 31 77 0 4 4 0 96 0 0 0 32 0 78 
ELSE[ ]	/* Else */
NPUSHB[ ]	/* 37 values pushed */
0 2 1 5 1 2 5 128 6 1 5 4 1 5 4 126 0 1 1 3 95 0 3 3 31 77 0 4 4 0 96 0 0 0 32 0 78 
EIF[ ]	/* EndIf */
EIF[ ]	/* EndIf */
NPUSHB[ ]	/* 14 values pushed */
0 0 0 13 0 13 18 17 17 18 17 7 8 27 
CALL[ ]	/* CallFunction */";
};
width = 1197;
},
{
layerId = "CD48D813-7107-4EBE-8BC7-C661170EDB17";
paths = (
{
closed = 1;
nodes = (
"1118 0 LINE",
"1118 293 LINE",
"1064 293 LINE",
"1064 54 LINE",
"156 54 LINE",
"1086 1418 LINE",
"1086 1456 LINE",
"122 1456 LINE",
"122 1163 LINE",
"176 1163 LINE",
"176 1403 LINE",
"1011 1403 LINE",
"82 44 LINE",
"82 0 LINE",
"82 0 LINE"
);
}
);
width = 1197;
}
);
note = Z;
unicode = 005A;
},
{
glyphname = bracketleft;
lastChange = "2025-05-05 12:22:04 +0000";
layers = (
{
layerId = "1AFB1E35-9546-41E1-B92B-6969383A0DDD";
paths = (
{
closed = 1;
nodes = (
"541 -351 LINE",
"541 -97 LINE",
"429 -97 LINE",
"429 1454 LINE",
"541 1454 LINE",
"541 1708 LINE",
"78 1708 LINE",
"78 -351 LINE",
"78 -351 LINE"
);
}
);
width = 573;
},
{
layerId = "759DCBF5-126F-43AE-ABB8-3EC70824EECD";
paths = (
{
closed = 1;
nodes = (
"541 -312 LINE",
"541 -157 LINE",
"354 -157 LINE",
"354 1509 LINE",
"541 1509 LINE",
"541 1664 LINE",
"157 1664 LINE",
"157 -312 LINE",
"157 -312 LINE"
);
}
);
userData = {
assembly = "NPUSHB[ ]	/* 38 values pushed */
0 1 0 2 3 1 2 103 4 1 3 0 0 3 87 4 1 3 3 0 95 0 0 3 0 79 0 0 0 7 0 7 17 17 17 5 8 25 
CALL[ ]	/* CallFunction */";
};
width = 573;
},
{
layerId = "CD48D813-7107-4EBE-8BC7-C661170EDB17";
paths = (
{
closed = 1;
nodes = (
"443 -312 LINE",
"443 -258 LINE",
"214 -258 LINE",
"214 1610 LINE",
"443 1610 LINE",
"443 1664 LINE",
"160 1664 LINE",
"160 -312 LINE",
"160 -312 LINE"
);
}
);
width = 573;
}
);
note = bracketleft;
unicode = 005B;
},
{
glyphname = backslash;
lastChange = "2025-05-05 12:22:04 +0000";
layers = (
{
layerId = "1AFB1E35-9546-41E1-B92B-6969383A0DDD";
paths = (
{
closed = 1;
nodes = (
"885 -125 LINE",
"322 1456 LINE",
"-3 1456 LINE",
"560 -125 LINE",
"560 -125 LINE"
);
}
);
width = 841;
},
{
layerId = "759DCBF5-126F-43AE-ABB8-3EC70824EECD";
paths = (
{
closed = 1;
nodes = (
"830 -125 LINE",
"222 1456 LINE",
"36 1456 LINE",
"644 -125 LINE",
"644 -125 LINE"
);
}
);
userData = {
assembly = "NPUSHB[ ]	/* 22 values pushed */
0 0 1 0 134 2 1 1 1 31 1 78 0 0 0 3 0 3 17 3 8 23 
CALL[ ]	/* CallFunction */";
};
width = 841;
},
{
layerId = "CD48D813-7107-4EBE-8BC7-C661170EDB17";
paths = (
{
closed = 1;
nodes = (
"752 -125 LINE",
"144 1456 LINE",
"86 1456 LINE",
"694 -125 LINE",
"694 -125 LINE"
);
}
);
width = 841;
}
);
note = backslash;
unicode = 005C;
},
{
glyphname = bracketright;
lastChange = "2025-05-05 12:22:04 +0000";
layers = (
{
layerId = "1AFB1E35-9546-41E1-B92B-6969383A0DDD";
paths = (
{
closed = 1;
nodes = (
"490 -351 LINE",
"490 1708 LINE",
"26 1708 LINE",
"26 1454 LINE",
"141 1454 LINE",
"141 -97 LINE",
"26 -97 LINE",
"26 -351 LINE",
"26 -351 LINE"
);
}
);
width = 573;
},
{
layerId = "759DCBF5-126F-43AE-ABB8-3EC70824EECD";
paths = (
{
closed = 1;
nodes = (
"458 -312 LINE",
"458 1664 LINE",
"73 1664 LINE",
"73 1509 LINE",
"261 1509 LINE",
"261 -157 LINE",
"73 -157 LINE",
"73 -312 LINE",
"73 -312 LINE"
);
}
);
userData = {
assembly = "NPUSHB[ ]	/* 37 values pushed */
4 1 3 0 2 1 3 2 103 0 1 0 0 1 87 0 1 1 0 95 0 0 1 0 79 0 0 0 7 0 7 17 17 17 5 8 25 
CALL[ ]	/* CallFunction */";
};
width = 573;
},
{
layerId = "CD48D813-7107-4EBE-8BC7-C661170EDB17";
paths = (
{
closed = 1;
nodes = (
"406 -312 LINE",
"406 1664 LINE",
"123 1664 LINE",
"123 1610 LINE",
"351 1610 LINE",
"351 -258 LINE",
"123 -258 LINE",
"123 -312 LINE",
"123 -312 LINE"
);
}
);
width = 573;
}
);
note = bracketright;
unicode = 005D;
},
{
glyphname = asciicircum;
lastChange = "2025-05-05 12:22:04 +0000";
layers = (
{
layerId = "1AFB1E35-9546-41E1-B92B-6969383A0DDD";
paths = (
{
closed = 1;
nodes = (
"278 729 LINE",
"432 1138 LINE",
"433 1150 LINE",
"439 1150 LINE",
"441 1138 LINE",
"598 729 LINE",
"847 729 LINE",
"562 1456 LINE",
"314 1456 LINE",
"29 729 LINE",
"29 729 LINE"
);
}
);
width = 864;
},
{
layerId = "759DCBF5-126F-43AE-ABB8-3EC70824EECD";
paths = (
{
closed = 1;
nodes = (
"253 729 LINE",
"416 1148 LINE",
"432 1218 LINE",
"438 1218 LINE",
"454 1148 LINE",
"620 729 LINE",
"802 729 LINE",
"504 1456 LINE",
"370 1456 LINE",
"71 729 LINE",
"71 729 LINE"
);
}
);
userData = {
assembly = "PUSHB[ ]	/* 2 values pushed */
6 100 
WCVTP[ ]	/* WriteCVTInPixels */
NPUSHB[ ]	/* 22 values pushed */
8 1 0 1 1 76 0 1 0 1 133 2 1 0 0 118 17 17 17 3 8 25 
CALL[ ]	/* CallFunction */
PUSHB[ ]	/* 2 values pushed */
6 0 
WCVTP[ ]	/* WriteCVTInPixels */";
};
width = 864;
},
{
layerId = "CD48D813-7107-4EBE-8BC7-C661170EDB17";
paths = (
{
closed = 1;
nodes = (
"165 729 LINE",
"384 1272 LINE",
"427 1386 LINE",
"433 1386 LINE",
"473 1272 LINE",
"695 729 LINE",
"756 729 LINE",
"457 1456 LINE",
"405 1456 LINE",
"106 729 LINE",
"106 729 LINE"
);
}
);
width = 864;
}
);
note = asciicircum;
unicode = 005E;
},
{
glyphname = underscore;
lastChange = "2025-05-05 12:22:04 +0000";
layers = (
{
layerId = "1AFB1E35-9546-41E1-B92B-6969383A0DDD";
paths = (
{
closed = 1;
nodes = (
"1048 -206 LINE",
"1048 0 LINE",
"145 0 LINE",
"145 -206 LINE",
"145 -206 LINE"
);
}
);
width = 1168;
},
{
layerId = "759DCBF5-126F-43AE-ABB8-3EC70824EECD";
paths = (
{
closed = 1;
nodes = (
"1041 -154 LINE",
"1041 0 LINE",
"119 0 LINE",
"119 -154 LINE",
"119 -154 LINE"
);
}
);
userData = {
assembly = "PUSHB[ ]	/* 2 values pushed */
6 100 
WCVTP[ ]	/* WriteCVTInPixels */
NPUSHB[ ]	/* 28 values pushed */
2 1 1 0 0 1 87 2 1 1 1 0 95 0 0 1 0 79 0 0 0 3 0 3 17 3 8 23 
CALL[ ]	/* CallFunction */
PUSHB[ ]	/* 2 values pushed */
6 0 
WCVTP[ ]	/* WriteCVTInPixels */";
};
width = 1168;
},
{
layerId = "CD48D813-7107-4EBE-8BC7-C661170EDB17";
paths = (
{
closed = 1;
nodes = (
"1005 -54 LINE",
"1005 0 LINE",
"159 0 LINE",
"159 -54 LINE",
"159 -54 LINE"
);
}
);
width = 1168;
}
);
note = underscore;
unicode = 005F;
},
{
glyphname = grave;
lastChange = "2025-05-05 12:22:04 +0000";
layers = (
{
layerId = "1AFB1E35-9546-41E1-B92B-6969383A0DDD";
paths = (
{
closed = 1;
nodes = (
"484 1287 LINE",
"315 1560 LINE",
"13 1554 LINE",
"248 1287 LINE",
"248 1287 LINE"
);
}
);
width = 496;
},
{
layerId = "759DCBF5-126F-43AE-ABB8-3EC70824EECD";
paths = (
{
closed = 1;
nodes = (
"456 1288 LINE",
"272 1560 LINE",
"40 1554 LINE",
"309 1288 LINE",
"309 1288 LINE"
);
}
);
userData = {
assembly = "PUSHB[ ]	/* 2 values pushed */
6 100 
WCVTP[ ]	/* WriteCVTInPixels */
NPUSHB[ ]	/* 21 values pushed */
2 1 0 1 0 133 0 1 1 118 1 0 3 2 0 4 1 4 3 8 22 
CALL[ ]	/* CallFunction */
PUSHB[ ]	/* 2 values pushed */
6 0 
WCVTP[ ]	/* WriteCVTInPixels */";
};
width = 496;
},
{
layerId = "CD48D813-7107-4EBE-8BC7-C661170EDB17";
paths = (
{
closed = 1;
nodes = (
"346 1329 LINE",
"166 1560 LINE",
"102 1560 LINE",
"299 1324 LINE",
"299 1324 LINE"
);
}
);
width = 496;
}
);
note = grave;
unicode = 0060;
},
{
glyphname = a;
lastChange = "2025-05-05 12:22:04 +0000";
layers = (
{
layerId = "1AFB1E35-9546-41E1-B92B-6969383A0DDD";
paths = (
{
closed = 1;
nodes = (
"532.667 -21 OFFCURVE",
"606 26.667 OFFCURVE",
"670 108 CURVE",
"676.667 68 OFFCURVE",
"700.667 24 OFFCURVE",
"718 0 CURVE",
"1119 0 LINE",
"1119 205 LINE",
"1005 225 LINE",
"999.667 251.667 OFFCURVE",
"1000 281.333 OFFCURVE",
"1000 312 CURVE SMOOTH",
"1000 711 LINE SMOOTH",
"1000 961.667 OFFCURVE",
"817.333 1102 OFFCURVE",
"528 1102 CURVE SMOOTH",
"366.667 1102 OFFCURVE",
"240 1055.667 OFFCURVE",
"120 1001 CURVE",
"125 700 LINE",
"367 700 LINE",
"390 838 LINE",
"422 859.333 OFFCURVE",
"461 871 OFFCURVE",
"505 871 CURVE SMOOTH",
"609 871 OFFCURVE",
"656 801.667 OFFCURVE",
"656 715 CURVE SMOOTH",
"656 651 LINE",
"545 651 LINE SMOOTH",
"329 651 OFFCURVE",
"186.833 588 OFFCURVE",
"115.5 484 CURVE SMOOTH",
"79.833 432 OFFCURVE",
"62 372.333 OFFCURVE",
"62 305 CURVE SMOOTH",
"62 107.667 OFFCURVE",
"204.667 -21 OFFCURVE",
"410 -21 CURVE SMOOTH"
);
},
{
closed = 1;
nodes = (
"450.667 227 OFFCURVE",
"404 266.667 OFFCURVE",
"404 332 CURVE SMOOTH",
"404 400 OFFCURVE",
"455.667 445 OFFCURVE",
"549 445 CURVE SMOOTH",
"656 445 LINE",
"656 289 LINE",
"618.667 247.667 OFFCURVE",
"565.333 227 OFFCURVE",
"516 227 CURVE SMOOTH"
);
}
);
width = 1132;
},
{
layerId = "759DCBF5-126F-43AE-ABB8-3EC70824EECD";
paths = (
{
closed = 1;
nodes = (
"553.333 -21 OFFCURVE",
"673 51.667 OFFCURVE",
"749 149 CURVE",
"751.667 102.333 OFFCURVE",
"758 58.667 OFFCURVE",
"770 0 CURVE",
"1053 0 LINE",
"1053 126 LINE",
"948 137 LINE",
"945.333 163.667 OFFCURVE",
"945 190 OFFCURVE",
"945 218 CURVE SMOOTH",
"945 739 LINE SMOOTH",
"945 972.333 OFFCURVE",
"786.667 1102 OFFCURVE",
"524 1102 CURVE SMOOTH",
"366.667 1102 OFFCURVE",
"236.333 1060.667 OFFCURVE",
"139 982 CURVE",
"139 734 LINE",
"291 734 LINE",
"312 885 LINE",
"366.667 923.667 OFFCURVE",
"430.333 947 OFFCURVE",
"521 947 CURVE SMOOTH",
"665 947 OFFCURVE",
"748 871.667 OFFCURVE",
"748 741 CURVE SMOOTH",
"748 635 LINE",
"555 635 LINE SMOOTH",
"356.333 635 OFFCURVE",
"210.833 575.5 OFFCURVE",
"135.5 473.5 CURVE SMOOTH",
"97.833 422.5 OFFCURVE",
"79 362.667 OFFCURVE",
"79 294 CURVE SMOOTH",
"79 94 OFFCURVE",
"198.667 -21 OFFCURVE",
"424 -21 CURVE SMOOTH"
);
},
{
closed = 1;
nodes = (
"334.333 144 OFFCURVE",
"276 195.333 OFFCURVE",
"276 290 CURVE SMOOTH",
"276 396.667 OFFCURVE",
"366.667 500 OFFCURVE",
"548 500 CURVE SMOOTH",
"748 500 LINE",
"748 304 LINE",
"701.333 216 OFFCURVE",
"583.667 144 OFFCURVE",
"453 144 CURVE SMOOTH"
);
}
);
userData = {
assembly = "MPPEM[ ]	/* MeasurePixelPerEm */
PUSHB[ ]	/* 1 value pushed */
23 
LT[ ]	/* LessThan */
IF[ ]	/* If */
NPUSHB[ ]	/* 15 values pushed */
18 1 2 4 40 34 2 6 7 29 1 0 6 3 76 
ELSE[ ]	/* Else */
NPUSHB[ ]	/* 15 values pushed */
18 1 2 4 40 34 2 6 7 29 1 5 6 3 76 
EIF[ ]	/* EndIf */
MPPEM[ ]	/* MeasurePixelPerEm */
PUSHB[ ]	/* 1 value pushed */
23 
LT[ ]	/* LessThan */
IF[ ]	/* If */
NPUSHB[ ]	/* 40 values pushed */
0 3 2 1 2 3 1 128 0 1 0 7 6 1 7 103 0 2 2 4 97 0 4 4 40 77 9 1 6 6 0 97 5 8 2 0 0 38 0 78 
ELSE[ ]	/* Else */
NPUSHB[ ]	/* 44 values pushed */
0 3 2 1 2 3 1 128 0 1 0 7 6 1 7 103 0 2 2 4 97 0 4 4 40 77 0 5 5 32 77 9 1 6 6 0 97 8 1 0 0 38 0 78 
EIF[ ]	/* EndIf */
NPUSHB[ ]	/* 27 values pushed */
38 37 1 0 43 41 37 47 38 47 31 30 22 20 17 16 13 11 8 6 0 36 1 36 10 8 22 
CALL[ ]	/* CallFunction */";
};
width = 1132;
},
{
layerId = "CD48D813-7107-4EBE-8BC7-C661170EDB17";
paths = (
{
closed = 1;
nodes = (
"605.333 -21 OFFCURVE",
"752.667 68.333 OFFCURVE",
"834 199 CURVE",
"834 128.333 OFFCURVE",
"838.667 94.667 OFFCURVE",
"856 0 CURVE",
"1053 0 LINE",
"1053 54 LINE",
"903 54 LINE",
"892.333 107.333 OFFCURVE",
"888 162 OFFCURVE",
"888 218 CURVE SMOOTH",
"888 740 LINE SMOOTH",
"888 962.667 OFFCURVE",
"761.333 1102 OFFCURVE",
"512 1102 CURVE SMOOTH",
"368 1102 OFFCURVE",
"261.333 1047.667 OFFCURVE",
"172 965 CURVE",
"172 759 LINE",
"226 759 LINE",
"226 936 LINE",
"294 998.667 OFFCURVE",
"393.667 1049 OFFCURVE",
"511 1049 CURVE SMOOTH",
"733.667 1049 OFFCURVE",
"834 922 OFFCURVE",
"834 742 CURVE SMOOTH",
"834 604 LINE",
"585 604 LINE SMOOTH",
"393 604 OFFCURVE",
"247.5 544.833 OFFCURVE",
"169.5 445.5 CURVE SMOOTH",
"130.5 395.833 OFFCURVE",
"111 338.667 OFFCURVE",
"111 274 CURVE SMOOTH",
"111 98 OFFCURVE",
"234.667 -21 OFFCURVE",
"424 -21 CURVE SMOOTH"
);
},
{
closed = 1;
nodes = (
"273.333 32 OFFCURVE",
"165 135.333 OFFCURVE",
"165 270 CURVE SMOOTH",
"165 435.333 OFFCURVE",
"333.333 549 OFFCURVE",
"588 549 CURVE SMOOTH",
"834 549 LINE",
"834 292 LINE",
"758 129.333 OFFCURVE",
"588 32 OFFCURVE",
"424 32 CURVE SMOOTH"
);
}
);
width = 1132;
}
);
note = a;
unicode = 0061;
},
{
glyphname = b;
lastChange = "2025-05-05 12:35:42 +0000";
layers = (
{
layerId = "1AFB1E35-9546-41E1-B92B-6969383A0DDD";
paths = (
{
closed = 1;
nodes = (
"971.452 -21 OFFCURVE",
"1112 184.296 OFFCURVE",
"1112 518 CURVE SMOOTH",
"1112 539 LINE SMOOTH",
"1112 886.676 OFFCURVE",
"970.596 1102 OFFCURVE",
"718 1102 CURVE SMOOTH",
"607.333 1102 OFFCURVE",
"522.333 1056.333 OFFCURVE",
"465 975 CURVE",
"465 1560 LINE",
"-26 1560 LINE",
"-26 1354 LINE",
"121 1322 LINE",
"121 0 LINE",
"419 0 LINE",
"441 129 LINE",
"502.333 31.667 OFFCURVE",
"585.333 -21 OFFCURVE",
"712 -21 CURVE SMOOTH"
);
},
{
closed = 1;
nodes = (
"545.667 248 OFFCURVE",
"499.667 266.667 OFFCURVE",
"465 312 CURVE",
"465 747 LINE",
"493 800.333 OFFCURVE",
"543 833 OFFCURVE",
"607 833 CURVE SMOOTH",
"725.558 833 OFFCURVE",
"769 724.971 OFFCURVE",
"769 539 CURVE SMOOTH",
"769 518 LINE SMOOTH",
"769 336.667 OFFCURVE",
"727 248 OFFCURVE",
"603 248 CURVE SMOOTH"
);
}
);
width = 1145;
},
{
layerId = "759DCBF5-126F-43AE-ABB8-3EC70824EECD";
paths = (
{
closed = 1;
nodes = (
"937 -21 OFFCURVE",
"1071 219 OFFCURVE",
"1071 500 CURVE SMOOTH",
"1071 521 LINE SMOOTH",
"1071 826 OFFCURVE",
"944 1102 OFFCURVE",
"647 1102 CURVE SMOOTH",
"512.333 1102 OFFCURVE",
"412 1050 OFFCURVE",
"344 954 CURVE",
"344 1560 LINE",
"-16 1560 LINE",
"-16 1433 LINE",
"147 1405 LINE",
"147 0 LINE",
"317 0 LINE",
"335 139 LINE",
"404.333 33.667 OFFCURVE",
"507.667 -21 OFFCURVE",
"649 -21 CURVE SMOOTH"
);
},
{
closed = 1;
nodes = (
"477.667 139 OFFCURVE",
"393.333 202 OFFCURVE",
"344 302 CURVE",
"344 780 LINE",
"393.333 878.667 OFFCURVE",
"475.667 942 OFFCURVE",
"597 942 CURVE SMOOTH",
"783.434 942 OFFCURVE",
"873 772.509 OFFCURVE",
"873 521 CURVE SMOOTH",
"873 500 LINE SMOOTH",
"873 282.667 OFFCURVE",
"784.333 139 OFFCURVE",
"599 139 CURVE SMOOTH"
);
}
);
userData = {
assembly = "NPUSHB[ ]	/* 21 values pushed */
7 6 2 3 2 10 1 5 3 34 33 2 4 5 3 76 3 1 4 1 75 
MPPEM[ ]	/* MeasurePixelPerEm */
PUSHB[ ]	/* 1 value pushed */
23 
LT[ ]	/* LessThan */
IF[ ]	/* If */
NPUSHB[ ]	/* 29 values pushed */
0 2 2 33 77 0 5 5 3 97 0 3 3 40 77 7 1 4 4 0 97 1 6 2 0 0 38 0 78 
ELSE[ ]	/* Else */
NPUSHB[ ]	/* 33 values pushed */
0 2 2 33 77 0 5 5 3 97 0 3 3 40 77 0 1 1 32 77 7 1 4 4 0 97 6 1 0 0 38 0 78 
EIF[ ]	/* EndIf */
NPUSHB[ ]	/* 23 values pushed */
23 22 1 0 31 29 22 36 23 36 14 12 9 8 5 4 0 21 1 21 8 8 22 
CALL[ ]	/* CallFunction */";
};
width = 1145;
},
{
layerId = "CD48D813-7107-4EBE-8BC7-C661170EDB17";
paths = (
{
closed = 1;
nodes = (
"888 -21 OFFCURVE",
"1004 239 OFFCURVE",
"1004 521 CURVE SMOOTH",
"1004 542 LINE SMOOTH",
"1004 834 OFFCURVE",
"884 1102 OFFCURVE",
"596 1102 CURVE SMOOTH",
"424 1102 OFFCURVE",
"301 1019.667 OFFCURVE",
"229 885 CURVE",
"229 1560 LINE",
"12 1560 LINE",
"12 1506 LINE",
"175 1506 LINE",
"175 0 LINE",
"220 0 LINE",
"227 173 LINE",
"297.667 54.333 OFFCURVE",
"426 -21 OFFCURVE",
"598 -21 CURVE SMOOTH"
);
},
{
closed = 1;
nodes = (
"407 33 OFFCURVE",
"281 127.333 OFFCURVE",
"229 274 CURVE",
"229 770 LINE",
"278.333 926 OFFCURVE",
"386.333 1048 OFFCURVE",
"597 1048 CURVE SMOOTH",
"823.673 1048 OFFCURVE",
"948 846.276 OFFCURVE",
"948 542 CURVE SMOOTH",
"948 521 LINE SMOOTH",
"948 222.333 OFFCURVE",
"827 33 OFFCURVE",
"599 33 CURVE SMOOTH"
);
}
);
width = 1145;
}
);
note = b;
unicode = 0062;
},
{
glyphname = c;
lastChange = "2025-05-05 12:36:17 +0000";
layers = (
{
layerId = "1AFB1E35-9546-41E1-B92B-6969383A0DDD";
paths = (
{
closed = 1;
nodes = (
"860 -21 OFFCURVE",
"981 99 OFFCURVE",
"1030 364 CURVE",
"1026 370 LINE",
"732 370 LINE",
"706.667 288.667 OFFCURVE",
"665 246 OFFCURVE",
"581 246 CURVE SMOOTH",
"451 246 OFFCURVE",
"411 394 OFFCURVE",
"411 528 CURVE SMOOTH",
"411 551 LINE SMOOTH",
"411 726 OFFCURVE",
"444 851 OFFCURVE",
"612 851 CURVE SMOOTH",
"637.333 851 OFFCURVE",
"682.333 834.667 OFFCURVE",
"705 812 CURVE",
"747 616 LINE",
"1008 616 LINE",
"1014 957 LINE",
"928.667 1025 OFFCURVE",
"780.667 1102 OFFCURVE",
"574 1102 CURVE SMOOTH",
"268 1102 OFFCURVE",
"60 879 OFFCURVE",
"60 551 CURVE SMOOTH",
"60 528 LINE SMOOTH",
"60 221 OFFCURVE",
"242 -21 OFFCURVE",
"577 -21 CURVE SMOOTH"
);
}
);
width = 1067;
},
{
layerId = "759DCBF5-126F-43AE-ABB8-3EC70824EECD";
paths = (
{
closed = 1;
nodes = (
"800 -21 OFFCURVE",
"977 120 OFFCURVE",
"988 333 CURVE",
"986 339 LINE",
"809 339 LINE",
"789 211 OFFCURVE",
"695.333 133 OFFCURVE",
"562 133 CURVE SMOOTH",
"386.476 133 OFFCURVE",
"275 279.705 OFFCURVE",
"275 520 CURVE SMOOTH",
"275 562 LINE SMOOTH",
"275 755 OFFCURVE",
"379 947 OFFCURVE",
"570 947 CURVE SMOOTH",
"662 947 OFFCURVE",
"729.667 916.667 OFFCURVE",
"775 870 CURVE",
"809 681 LINE",
"963 681 LINE",
"958 941 LINE",
"868.667 1041 OFFCURVE",
"737.667 1102 OFFCURVE",
"563 1102 CURVE SMOOTH",
"257 1102 OFFCURVE",
"78 868 OFFCURVE",
"78 562 CURVE SMOOTH",
"78 520 LINE SMOOTH",
"78 209 OFFCURVE",
"260 -21 OFFCURVE",
"563 -21 CURVE SMOOTH"
);
}
);
userData = {
assembly = "NPUSHB[ ]	/* 62 values pushed */
12 1 2 3 1 76 0 2 3 5 3 2 5 128 0 5 4 3 5 4 126 0 3 3 1 97 0 1 1 40 77 0 4 4 0 97 6 1 0 0 38 0 78 1 0 31 30 28 26 19 17 14 13 10 8 0 35 1 35 7 8 22 
CALL[ ]	/* CallFunction */";
};
width = 1067;
},
{
layerId = "CD48D813-7107-4EBE-8BC7-C661170EDB17";
paths = (
{
closed = 1;
nodes = (
"763.763 -21 OFFCURVE",
"913.381 98.529 OFFCURVE",
"937 317 CURVE",
"935 323 LINE",
"889 323 LINE",
"865 125.667 OFFCURVE",
"728.333 33 OFFCURVE",
"543 33 CURVE SMOOTH",
"285 33 OFFCURVE",
"158 265 OFFCURVE",
"158 520 CURVE SMOOTH",
"158 562 LINE SMOOTH",
"158 816 OFFCURVE",
"287 1048 OFFCURVE",
"539 1048 CURVE SMOOTH",
"673.667 1048 OFFCURVE",
"780.667 995.667 OFFCURVE",
"866 905 CURVE",
"866 693 LINE",
"920 693 LINE",
"920 925 LINE",
"833.333 1023.667 OFFCURVE",
"700.667 1102 OFFCURVE",
"538 1102 CURVE SMOOTH",
"253 1102 OFFCURVE",
"104 848 OFFCURVE",
"104 562 CURVE SMOOTH",
"104 520 LINE SMOOTH",
"104 225 OFFCURVE",
"269 -21 OFFCURVE",
"540 -21 CURVE SMOOTH"
);
}
);
width = 1067;
}
);
note = c;
unicode = 0063;
},
{
glyphname = d;
lastChange = "2025-05-05 12:36:37 +0000";
layers = (
{
layerId = "1AFB1E35-9546-41E1-B92B-6969383A0DDD";
paths = (
{
closed = 1;
nodes = (
"589.667 -21 OFFCURVE",
"676.667 32.667 OFFCURVE",
"742 134 CURVE",
"768 0 LINE",
"1198 0 LINE",
"1198 205 LINE",
"1072 237 LINE",
"1072 1560 LINE",
"721 1560 LINE",
"569 1560 LINE",
"569 1354 LINE",
"721 1322 LINE",
"721 967 LINE",
"658.333 1052.333 OFFCURVE",
"577.667 1102 OFFCURVE",
"463 1102 CURVE SMOOTH",
"297.667 1102 OFFCURVE",
"174.333 1003.167 OFFCURVE",
"109 834.5 CURVE SMOOTH",
"76.333 750.167 OFFCURVE",
"60 651.667 OFFCURVE",
"60 539 CURVE SMOOTH",
"60 518 LINE SMOOTH",
"60 187.427 OFFCURVE",
"215.728 -21 OFFCURVE",
"467 -21 CURVE SMOOTH"
);
},
{
closed = 1;
nodes = (
"452 248 OFFCURVE",
"411 346 OFFCURVE",
"411 518 CURVE SMOOTH",
"411 539 LINE SMOOTH",
"411 677 OFFCURVE",
"440 833 OFFCURVE",
"578 833 CURVE SMOOTH",
"638 833 OFFCURVE",
"687.667 803.667 OFFCURVE",
"721 749 CURVE",
"721 316 LINE",
"687.667 270.667 OFFCURVE",
"634.667 248 OFFCURVE",
"576 248 CURVE SMOOTH"
);
}
);
width = 1218;
},
{
layerId = "759DCBF5-126F-43AE-ABB8-3EC70824EECD";
paths = (
{
closed = 1;
nodes = (
"633.667 -21 OFFCURVE",
"735.333 30.333 OFFCURVE",
"806 129 CURVE",
"822 0 LINE",
"1156 0 LINE",
"1156 126 LINE",
"993 154 LINE",
"993 1560 LINE",
"796 1560 LINE",
"633 1560 LINE",
"633 1433 LINE",
"796 1405 LINE",
"796 964 LINE",
"726.667 1053.333 OFFCURVE",
"629 1102 OFFCURVE",
"501 1102 CURVE SMOOTH",
"327 1102 OFFCURVE",
"199 1004 OFFCURVE",
"131 835 CURVE SMOOTH",
"97 748 OFFCURVE",
"78 642 OFFCURVE",
"78 521 CURVE SMOOTH",
"78 500 LINE SMOOTH",
"78 180.69 OFFCURVE",
"240.31 -21 OFFCURVE",
"499 -21 CURVE SMOOTH"
);
},
{
closed = 1;
nodes = (
"362.333 139 OFFCURVE",
"275 282.667 OFFCURVE",
"275 500 CURVE SMOOTH",
"275 521 LINE SMOOTH",
"275 772.509 OFFCURVE",
"364.566 942 OFFCURVE",
"551 942 CURVE SMOOTH",
"664.333 942 OFFCURVE",
"745.333 884.667 OFFCURVE",
"796 794 CURVE",
"796 292 LINE",
"744 194.667 OFFCURVE",
"666.333 139 OFFCURVE",
"549 139 CURVE SMOOTH"
);
}
);
userData = {
assembly = "MPPEM[ ]	/* MeasurePixelPerEm */
PUSHB[ ]	/* 1 value pushed */
23 
LT[ ]	/* LessThan */
IF[ ]	/* If */
NPUSHB[ ]	/* 22 values pushed */
14 13 2 1 2 12 1 5 1 29 28 18 3 4 5 22 19 2 0 4 4 76 
ELSE[ ]	/* Else */
NPUSHB[ ]	/* 22 values pushed */
14 13 2 1 2 12 1 5 1 29 28 18 3 4 5 22 19 2 3 4 4 76 
EIF[ ]	/* EndIf */
MPPEM[ ]	/* MeasurePixelPerEm */
PUSHB[ ]	/* 1 value pushed */
23 
LT[ ]	/* LessThan */
IF[ ]	/* If */
NPUSHB[ ]	/* 29 values pushed */
0 2 2 33 77 0 5 5 1 97 0 1 1 40 77 7 1 4 4 0 97 3 6 2 0 0 38 0 78 
ELSE[ ]	/* Else */
NPUSHB[ ]	/* 33 values pushed */
0 2 2 33 77 0 5 5 1 97 0 1 1 40 77 0 3 3 32 77 7 1 4 4 0 97 6 1 0 0 38 0 78 
EIF[ ]	/* EndIf */
NPUSHB[ ]	/* 23 values pushed */
26 25 1 0 33 31 25 39 26 39 21 20 17 15 10 8 0 24 1 24 8 8 22 
CALL[ ]	/* CallFunction */";
};
width = 1218;
},
{
layerId = "CD48D813-7107-4EBE-8BC7-C661170EDB17";
paths = (
{
closed = 1;
nodes = (
"684.667 -21 OFFCURVE",
"812.333 54.333 OFFCURVE",
"883 173 CURVE",
"885 0 LINE",
"1100 0 LINE",
"1100 54 LINE",
"937 54 LINE",
"937 1560 LINE",
"883 1560 LINE",
"720 1560 LINE",
"720 1506 LINE",
"883 1506 LINE",
"883 883 LINE",
"809.667 1019 OFFCURVE",
"686.667 1102 OFFCURVE",
"516 1102 CURVE SMOOTH",
"345.333 1102 OFFCURVE",
"221.167 1007 OFFCURVE",
"156.5 839 CURVE SMOOTH",
"124.167 755 OFFCURVE",
"108 656 OFFCURVE",
"108 542 CURVE SMOOTH",
"108 521 LINE SMOOTH",
"108 231 OFFCURVE",
"229 -21 OFFCURVE",
"514 -21 CURVE SMOOTH"
);
},
{
closed = 1;
nodes = (
"283.667 33 OFFCURVE",
"164 222.333 OFFCURVE",
"164 521 CURVE SMOOTH",
"164 542 LINE SMOOTH",
"164 846.548 OFFCURVE",
"287.713 1048 OFFCURVE",
"515 1048 CURVE SMOOTH",
"721.667 1048 OFFCURVE",
"831 929.667 OFFCURVE",
"883 775 CURVE",
"883 268 LINE",
"827 125.333 OFFCURVE",
"701 33 OFFCURVE",
"513 33 CURVE SMOOTH"
);
}
);
width = 1218;
}
);
note = d;
unicode = 0064;
},
{
glyphname = e;
lastChange = "2025-05-05 12:37:12 +0000";
layers = (
{
layerId = "1AFB1E35-9546-41E1-B92B-6969383A0DDD";
paths = (
{
closed = 1;
nodes = (
"738.667 -21 OFFCURVE",
"876.667 29.667 OFFCURVE",
"970 99 CURVE",
"893 311 LINE",
"799.667 265.667 OFFCURVE",
"718 246 OFFCURVE",
"630 246 CURVE SMOOTH",
"500.661 246 OFFCURVE",
"430.435 317.23 OFFCURVE",
"414 422 CURVE",
"415 429 LINE",
"990 429 LINE",
"990 610 LINE SMOOTH",
"990 823.333 OFFCURVE",
"919.667 970.167 OFFCURVE",
"789 1045.5 CURVE SMOOTH",
"723.667 1083.167 OFFCURVE",
"643.667 1102 OFFCURVE",
"549 1102 CURVE SMOOTH",
"370 1103 OFFCURVE",
"235 1028 OFFCURVE",
"153 898 CURVE SMOOTH",
"94 805 OFFCURVE",
"63 683 OFFCURVE",
"63 541 CURVE SMOOTH",
"63 504 LINE SMOOTH",
"63 304 OFFCURVE",
"151.833 138.833 OFFCURVE",
"304.5 47.5 CURVE SMOOTH",
"380.833 1.833 OFFCURVE",
"470 -21 OFFCURVE",
"572 -21 CURVE SMOOTH"
);
},
{
closed = 1;
nodes = (
"411 651 LINE",
"419 727 OFFCURVE",
"434.833 788.5 OFFCURVE",
"475.5 822.5 CURVE SMOOTH",
"495.833 839.5 OFFCURVE",
"523 848 OFFCURVE",
"557 848 CURVE SMOOTH",
"650.758 848 OFFCURVE",
"681 786.98 OFFCURVE",
"681 672 CURVE SMOOTH",
"681 646 LINE",
"415 646 LINE",
"415 646 LINE"
);
}
);
width = 1059;
},
{
layerId = "759DCBF5-126F-43AE-ABB8-3EC70824EECD";
paths = (
{
closed = 1;
nodes = (
"745.667 -21 OFFCURVE",
"872.667 37.333 OFFCURVE",
"950 112 CURVE",
"873 240 LINE",
"799.667 173.333 OFFCURVE",
"700.333 133 OFFCURVE",
"567 133 CURVE SMOOTH",
"388.809 133 OFFCURVE",
"279.13 275.249 OFFCURVE",
"275 490 CURVE",
"278 495 LINE",
"980 495 LINE",
"980 618 LINE SMOOTH",
"980 825 OFFCURVE",
"906 976 OFFCURVE",
"767 1050 CURVE SMOOTH",
"704 1084 OFFCURVE",
"627 1102 OFFCURVE",
"537 1102 CURVE SMOOTH",
"370.333 1102 OFFCURVE",
"222.167 1001.5 OFFCURVE",
"137.5 839.5 CURVE SMOOTH",
"95.167 758.5 OFFCURVE",
"74 666.667 OFFCURVE",
"74 564 CURVE SMOOTH",
"74 520 LINE SMOOTH",
"74 306.667 OFFCURVE",
"158 138.833 OFFCURVE",
"306 47.5 CURVE SMOOTH",
"380 1.833 OFFCURVE",
"467 -21 OFFCURVE",
"567 -21 CURVE SMOOTH"
);
},
{
closed = 1;
nodes = (
"282 654 LINE",
"297 765 OFFCURVE",
"344 854 OFFCURVE",
"410 903 CURVE SMOOTH",
"448 931 OFFCURVE",
"491 947 OFFCURVE",
"537 947 CURVE SMOOTH",
"695.985 947 OFFCURVE",
"783 838.297 OFFCURVE",
"783 675 CURVE SMOOTH",
"783 649 LINE",
"284 649 LINE",
"284 649 LINE"
);
}
);
userData = {
assembly = "NPUSHB[ ]	/* 59 values pushed */
23 1 3 2 24 1 0 3 2 76 0 4 0 2 3 4 2 103 0 5 5 1 97 0 1 1 40 77 0 3 3 0 97 6 1 0 0 38 0 78 1 0 35 33 29 27 21 19 15 14 10 8 0 26 1 26 7 8 22 
CALL[ ]	/* CallFunction */";
};
width = 1059;
},
{
layerId = "CD48D813-7107-4EBE-8BC7-C661170EDB17";
paths = (
{
closed = 1;
nodes = (
"718.667 -21 OFFCURVE",
"827.667 37.667 OFFCURVE",
"917 123 CURVE",
"888 165 LINE",
"805.333 83.667 OFFCURVE",
"701.333 33 OFFCURVE",
"564 33 CURVE SMOOTH",
"321 33 OFFCURVE",
"166 244 OFFCURVE",
"166 500 CURVE SMOOTH",
"166 577 LINE",
"957 577 LINE",
"957 660 LINE SMOOTH",
"957 840 OFFCURVE",
"886.5 974.833 OFFCURVE",
"764.5 1047.5 CURVE SMOOTH",
"703.5 1083.833 OFFCURVE",
"632.333 1102 OFFCURVE",
"551 1102 CURVE SMOOTH",
"383 1102 OFFCURVE",
"245 1002.5 OFFCURVE",
"169 840.5 CURVE SMOOTH",
"131 759.5 OFFCURVE",
"112 667.333 OFFCURVE",
"112 564 CURVE SMOOTH",
"112 500 LINE SMOOTH",
"112 296 OFFCURVE",
"196 134.167 OFFCURVE",
"332 45.5 CURVE SMOOTH",
"400 1.167 OFFCURVE",
"477.333 -21 OFFCURVE",
"564 -21 CURVE SMOOTH"
);
},
{
closed = 1;
nodes = (
"174 637 LINE",
"186 793 OFFCURVE",
"257.667 922 OFFCURVE",
"367 994 CURVE SMOOTH",
"421.667 1030 OFFCURVE",
"483 1048 OFFCURVE",
"551 1048 CURVE SMOOTH",
"769 1048 OFFCURVE",
"903 880 OFFCURVE",
"903 664 CURVE SMOOTH",
"903 631 LINE",
"177 631 LINE",
"177 631 LINE"
);
}
);
width = 1059;
}
);
note = e;
unicode = 0065;
},
{
glyphname = f;
lastChange = "2025-05-05 12:22:04 +0000";
layers = (
{
layerId = "1AFB1E35-9546-41E1-B92B-6969383A0DDD";
paths = (
{
closed = 1;
nodes = (
"658 0 LINE",
"658 205 LINE",
"477 237 LINE",
"477 840 LINE",
"711 840 LINE",
"711 1082 LINE",
"477 1082 LINE",
"477 1191 LINE SMOOTH",
"477 1268.333 OFFCURVE",
"519.667 1311 OFFCURVE",
"605 1311 CURVE SMOOTH",
"647.667 1311 OFFCURVE",
"686.333 1305.667 OFFCURVE",
"721 1295 CURVE",
"745 1554 LINE",
"702.333 1567.333 OFFCURVE",
"618.667 1581 OFFCURVE",
"552 1581 CURVE SMOOTH",
"298.667 1581 OFFCURVE",
"151 1441.667 OFFCURVE",
"151 1191 CURVE SMOOTH",
"151 1082 LINE",
"6 1082 LINE",
"6 840 LINE",
"151 840 LINE",
"151 237 LINE",
"33 205 LINE",
"33 0 LINE",
"33 0 LINE"
);
}
);
width = 725;
},
{
layerId = "759DCBF5-126F-43AE-ABB8-3EC70824EECD";
paths = (
{
closed = 1;
nodes = (
"616 0 LINE",
"616 126 LINE",
"430 154 LINE",
"430 936 LINE",
"666 936 LINE",
"666 1082 LINE",
"430 1082 LINE",
"430 1219 LINE SMOOTH",
"430 1349.667 OFFCURVE",
"485 1420 OFFCURVE",
"601 1420 CURVE SMOOTH",
"637 1420 OFFCURVE",
"683 1415.333 OFFCURVE",
"707 1410 CURVE",
"731 1560 LINE",
"675 1573.333 OFFCURVE",
"621.333 1581 OFFCURVE",
"576 1581 CURVE SMOOTH",
"360 1581 OFFCURVE",
"233 1449.667 OFFCURVE",
"233 1219 CURVE SMOOTH",
"233 1082 LINE",
"64 1082 LINE",
"64 936 LINE",
"233 936 LINE",
"233 154 LINE",
"70 126 LINE",
"70 0 LINE",
"70 0 LINE"
);
}
);
userData = {
assembly = "NPUSHB[ ]	/* 55 values pushed */
14 1 4 3 15 1 2 4 27 26 3 2 4 0 1 3 76 0 4 4 3 97 0 3 3 39 77 6 1 1 1 2 95 5 1 2 2 34 77 0 0 0 32 0 78 17 19 37 35 17 19 16 7 8 29 
CALL[ ]	/* CallFunction */";
};
width = 725;
},
{
layerId = "CD48D813-7107-4EBE-8BC7-C661170EDB17";
paths = (
{
closed = 1;
nodes = (
"494 0 LINE",
"494 54 LINE",
"331 54 LINE",
"331 1027 LINE",
"617 1027 LINE",
"617 1082 LINE",
"331 1082 LINE",
"331 1260 LINE SMOOTH",
"331 1426.667 OFFCURVE",
"417 1527 OFFCURVE",
"561 1527 CURVE SMOOTH",
"611.667 1527 OFFCURVE",
"637.333 1522.667 OFFCURVE",
"680 1512 CURVE",
"688 1564 LINE",
"648 1576 OFFCURVE",
"604 1581 OFFCURVE",
"560 1581 CURVE SMOOTH",
"381.333 1581 OFFCURVE",
"277 1464 OFFCURVE",
"277 1260 CURVE SMOOTH",
"277 1082 LINE",
"89 1082 LINE",
"89 1027 LINE",
"277 1027 LINE",
"277 54 LINE",
"114 54 LINE",
"114 0 LINE",
"114 0 LINE"
);
}
);
width = 725;
}
);
note = f;
unicode = 0066;
},
{
glyphname = g;
lastChange = "2025-05-05 12:37:38 +0000";
layers = (
{
layerId = "1AFB1E35-9546-41E1-B92B-6969383A0DDD";
paths = (
{
closed = 1;
nodes = (
"725.667 -437 OFFCURVE",
"883 -353 OFFCURVE",
"967 -209 CURVE SMOOTH",
"1009 -137 OFFCURVE",
"1030 -53 OFFCURVE",
"1030 43 CURVE SMOOTH",
"1030 1082 LINE",
"734 1082 LINE",
"713 946 LINE",
"651.667 1044.667 OFFCURVE",
"571 1102 OFFCURVE",
"451 1102 CURVE SMOOTH",
"288.333 1102 OFFCURVE",
"169.667 1003.167 OFFCURVE",
"107 834.5 CURVE SMOOTH",
"75.667 750.167 OFFCURVE",
"60 651.667 OFFCURVE",
"60 539 CURVE SMOOTH",
"60 518 LINE SMOOTH",
"60 317 OFFCURVE",
"116 160 OFFCURVE",
"217 69 CURVE SMOOTH",
"281 11 OFFCURVE",
"364 -21 OFFCURVE",
"461 -21 CURVE SMOOTH",
"559.667 -21 OFFCURVE",
"634.667 21.333 OFFCURVE",
"692 96 CURVE",
"692 45 LINE SMOOTH",
"692 -92.333 OFFCURVE",
"630.667 -177 OFFCURVE",
"492 -177 CURVE SMOOTH",
"408 -177 OFFCURVE",
"300.333 -154.333 OFFCURVE",
"199 -113 CURVE",
"145 -355 LINE",
"251.667 -408.333 OFFCURVE",
"407 -437 OFFCURVE",
"515 -437 CURVE SMOOTH"
);
},
{
closed = 1;
nodes = (
"436 248 OFFCURVE",
"396 346 OFFCURVE",
"396 518 CURVE SMOOTH",
"396 539 LINE SMOOTH",
"396 718.2 OFFCURVE",
"440.464 833 OFFCURVE",
"560 833 CURVE SMOOTH",
"616 833 OFFCURVE",
"664 808 OFFCURVE",
"692 760 CURVE",
"692 307 LINE",
"664 267 OFFCURVE",
"616 248 OFFCURVE",
"560 248 CURVE SMOOTH"
);
},
{
closed = 1;
nodes = (
"1148 875 LINE",
"1148 1082 LINE",
"839 1082 LINE",
"990 840 LINE",
"990 840 LINE"
);
}
);
width = 1157;
},
{
layerId = "759DCBF5-126F-43AE-ABB8-3EC70824EECD";
paths = (
{
closed = 1;
nodes = (
"718 -437 OFFCURVE",
"844 -378 OFFCURVE",
"919 -272 CURVE SMOOTH",
"971 -198 OFFCURVE",
"999 -102 OFFCURVE",
"999 14 CURVE SMOOTH",
"999 1082 LINE",
"833 1082 LINE",
"815 946 LINE",
"745.667 1047.333 OFFCURVE",
"643 1102 OFFCURVE",
"507 1102 CURVE SMOOTH",
"328.333 1102 OFFCURVE",
"198.167 1000.667 OFFCURVE",
"129.5 826 CURVE SMOOTH",
"95.167 738.667 OFFCURVE",
"78 637 OFFCURVE",
"78 521 CURVE SMOOTH",
"78 500 LINE SMOOTH",
"78 293.333 OFFCURVE",
"149 131.833 OFFCURVE",
"277 44.5 CURVE SMOOTH",
"341 0.833 OFFCURVE",
"417 -21 OFFCURVE",
"505 -21 CURVE SMOOTH",
"633 -21 OFFCURVE",
"731.333 26.333 OFFCURVE",
"802 117 CURVE",
"802 14 LINE SMOOTH",
"802 -168.667 OFFCURVE",
"723 -271 OFFCURVE",
"547 -271 CURVE SMOOTH",
"452.333 -271 OFFCURVE",
"344.333 -242.667 OFFCURVE",
"271 -204 CURVE",
"220 -357 LINE",
"312 -406.333 OFFCURVE",
"445 -437 OFFCURVE",
"549 -437 CURVE SMOOTH"
);
},
{
closed = 1;
nodes = (
"366 139 OFFCURVE",
"275 282.667 OFFCURVE",
"275 500 CURVE SMOOTH",
"275 521 LINE SMOOTH",
"275 784.522 OFFCURVE",
"377.232 942 OFFCURVE",
"556 942 CURVE SMOOTH",
"670.667 942 OFFCURVE",
"751.333 884 OFFCURVE",
"802 792 CURVE",
"802 294 LINE",
"750 195.333 OFFCURVE",
"672.667 139 OFFCURVE",
"554 139 CURVE SMOOTH"
);
},
{
closed = 1;
nodes = (
"1133 956 LINE",
"1133 1082 LINE",
"892 1082 LINE",
"969 921 LINE",
"969 921 LINE"
);
}
);
userData = {
assembly = "MPPEM[ ]	/* MeasurePixelPerEm */
PUSHB[ ]	/* 1 value pushed */
25 
LT[ ]	/* LessThan */
IF[ ]	/* If */
NPUSHB[ ]	/* 25 values pushed */
49 26 2 6 3 50 37 36 3 5 6 11 1 2 5 4 1 1 2 3 1 0 1 5 76 
ELSE[ ]	/* Else */
NPUSHB[ ]	/* 25 values pushed */
49 26 2 6 4 50 37 36 3 5 6 11 1 2 5 4 1 1 2 3 1 0 1 5 76 
EIF[ ]	/* EndIf */
MPPEM[ ]	/* MeasurePixelPerEm */
PUSHB[ ]	/* 1 value pushed */
25 
LT[ ]	/* LessThan */
IF[ ]	/* If */
NPUSHB[ ]	/* 36 values pushed */
0 6 6 3 95 10 7 4 3 3 3 34 77 9 1 5 5 2 97 0 2 2 38 77 0 1 1 0 97 8 1 0 0 42 0 78 
ELSE[ ]	/* Else */
NPUSHB[ ]	/* 40 values pushed */
10 7 2 4 4 34 77 0 6 6 3 97 0 3 3 40 77 9 1 5 5 2 97 0 2 2 38 77 0 1 1 0 97 8 1 0 0 42 0 78 
EIF[ ]	/* EndIf */
NPUSHB[ ]	/* 31 values pushed */
48 48 34 33 1 0 48 51 48 51 41 39 33 47 34 47 28 27 24 22 15 13 8 6 0 32 1 32 11 8 22 
CALL[ ]	/* CallFunction */";
};
width = 1157;
},
{
layerId = "CD48D813-7107-4EBE-8BC7-C661170EDB17";
paths = (
{
closed = 1;
nodes = (
"693.333 -437 OFFCURVE",
"817.5 -360.833 OFFCURVE",
"883.5 -225.5 CURVE SMOOTH",
"916.5 -157.833 OFFCURVE",
"933 -78 OFFCURVE",
"933 14 CURVE SMOOTH",
"933 1082 LINE",
"887 1082 LINE",
"879 882 LINE",
"807 1018 OFFCURVE",
"682.667 1102 OFFCURVE",
"512 1102 CURVE SMOOTH",
"341.333 1102 OFFCURVE",
"217.167 1006.833 OFFCURVE",
"152.5 839.5 CURVE SMOOTH",
"120.167 755.833 OFFCURVE",
"104 656.667 OFFCURVE",
"104 542 CURVE SMOOTH",
"104 521 LINE SMOOTH",
"104 299.667 OFFCURVE",
"170.667 133 OFFCURVE",
"292 45 CURVE SMOOTH",
"352.667 1 OFFCURVE",
"425.333 -21 OFFCURVE",
"510 -21 CURVE SMOOTH",
"679.333 -21 OFFCURVE",
"806 53.667 OFFCURVE",
"878 171 CURVE",
"878 14 LINE SMOOTH",
"878 -232.667 OFFCURVE",
"752.667 -384 OFFCURVE",
"522 -384 CURVE SMOOTH",
"406 -384 OFFCURVE",
"323.333 -363.667 OFFCURVE",
"226 -321 CURVE",
"210 -375 LINE",
"295.333 -413.667 OFFCURVE",
"418.667 -437 OFFCURVE",
"524 -437 CURVE SMOOTH"
);
},
{
closed = 1;
nodes = (
"279.667 33 OFFCURVE",
"159 222.333 OFFCURVE",
"159 521 CURVE SMOOTH",
"159 542 LINE SMOOTH",
"159 846.071 OFFCURVE",
"284.884 1048 OFFCURVE",
"511 1048 CURVE SMOOTH",
"721.667 1048 OFFCURVE",
"827.333 925.667 OFFCURVE",
"878 767 CURVE",
"878 276 LINE",
"824.667 128 OFFCURVE",
"701 33 OFFCURVE",
"509 33 CURVE SMOOTH"
);
},
{
closed = 1;
nodes = (
"1076 1028 LINE",
"1076 1082 LINE",
"906 1082 LINE",
"913 1028 LINE",
"913 1028 LINE"
);
}
);
width = 1157;
}
);
note = g;
unicode = 0067;
},
{
glyphname = h;
lastChange = "2025-05-05 12:22:04 +0000";
layers = (
{
layerId = "1AFB1E35-9546-41E1-B92B-6969383A0DDD";
paths = (
{
closed = 1;
nodes = (
"625 0 LINE",
"625 205 LINE",
"522 237 LINE",
"522 766 LINE",
"554 812.667 OFFCURVE",
"604.667 833 OFFCURVE",
"666 833 CURVE SMOOTH",
"755.333 833 OFFCURVE",
"804 789.333 OFFCURVE",
"804 648 CURVE SMOOTH",
"804 237 LINE",
"701 205 LINE",
"701 0 LINE",
"1281 0 LINE",
"1281 205 LINE",
"1155 237 LINE",
"1155 646 LINE SMOOTH",
"1155 956.667 OFFCURVE",
"1017 1102 OFFCURVE",
"809 1102 CURVE SMOOTH",
"682.333 1102 OFFCURVE",
"586 1045.333 OFFCURVE",
"522 948 CURVE",
"522 1560 LINE",
"21 1560 LINE",
"21 1354 LINE",
"173 1322 LINE",
"173 237 LINE",
"46 205 LINE",
"46 0 LINE",
"46 0 LINE"
);
}
);
width = 1315;
},
{
layerId = "759DCBF5-126F-43AE-ABB8-3EC70824EECD";
paths = (
{
closed = 1;
nodes = (
"572 0 LINE",
"572 126 LINE",
"409 154 LINE",
"409 799 LINE",
"466.333 887 OFFCURVE",
"558 942 OFFCURVE",
"666 942 CURVE SMOOTH",
"818 942 OFFCURVE",
"895 858.667 OFFCURVE",
"895 680 CURVE SMOOTH",
"895 154 LINE",
"732 126 LINE",
"732 0 LINE",
"1255 0 LINE",
"1255 126 LINE",
"1092 154 LINE",
"1092 678 LINE SMOOTH",
"1092 966 OFFCURVE",
"958 1102 OFFCURVE",
"726 1102 CURVE SMOOTH",
"594 1102 OFFCURVE",
"483.667 1042 OFFCURVE",
"409 938 CURVE",
"409 1560 LINE",
"49 1560 LINE",
"49 1433 LINE",
"212 1405 LINE",
"212 154 LINE",
"49 126 LINE",
"49 0 LINE",
"49 0 LINE"
);
}
);
userData = {
assembly = "NPUSHB[ ]	/* 50 values pushed */
5 4 2 2 1 29 28 27 20 19 16 15 8 3 2 10 0 4 2 76 0 1 1 33 77 0 4 4 2 97 0 2 2 40 77 3 1 0 0 32 0 78 37 21 35 21 16 5 8 27 
CALL[ ]	/* CallFunction */";
};
width = 1315;
},
{
layerId = "CD48D813-7107-4EBE-8BC7-C661170EDB17";
paths = (
{
closed = 1;
nodes = (
"492 0 LINE",
"492 54 LINE",
"329 54 LINE",
"329 676 LINE",
"361 893.333 OFFCURVE",
"480.667 1048 OFFCURVE",
"714 1048 CURVE SMOOTH",
"888.667 1048 OFFCURVE",
"1002 944 OFFCURVE",
"1002 660 CURVE SMOOTH",
"1002 54 LINE",
"839 54 LINE",
"839 0 LINE",
"1220 0 LINE",
"1220 54 LINE",
"1057 54 LINE",
"1057 658 LINE SMOOTH",
"1057 964.667 OFFCURVE",
"938.333 1102 OFFCURVE",
"713 1102 CURVE SMOOTH",
"526.333 1102 OFFCURVE",
"395.667 1011.333 OFFCURVE",
"329 854 CURVE",
"329 1560 LINE",
"112 1560 LINE",
"112 1506 LINE",
"275 1506 LINE",
"275 54 LINE",
"112 54 LINE",
"112 0 LINE",
"112 0 LINE"
);
}
);
width = 1315;
}
);
note = h;
unicode = 0068;
},
{
glyphname = i;
lastChange = "2025-05-05 12:22:04 +0000";
layers = (
{
layerId = "1AFB1E35-9546-41E1-B92B-6969383A0DDD";
paths = (
{
closed = 1;
nodes = (
"628 0 LINE",
"628 205 LINE",
"506 237 LINE",
"506 1082 LINE",
"22 1082 LINE",
"22 876 LINE",
"168 844 LINE",
"168 237 LINE",
"45 205 LINE",
"45 0 LINE",
"45 0 LINE"
);
},
{
closed = 1;
nodes = (
"506 1287 LINE",
"506 1560 LINE",
"158 1560 LINE",
"158 1287 LINE",
"158 1287 LINE"
);
}
);
width = 652;
},
{
layerId = "759DCBF5-126F-43AE-ABB8-3EC70824EECD";
paths = (
{
closed = 1;
nodes = (
"590 0 LINE",
"590 126 LINE",
"427 154 LINE",
"427 1082 LINE",
"67 1082 LINE",
"67 955 LINE",
"230 927 LINE",
"230 154 LINE",
"67 126 LINE",
"67 0 LINE",
"67 0 LINE"
);
},
{
closed = 1;
nodes = (
"427 1349 LINE",
"427 1560 LINE",
"220 1560 LINE",
"220 1349 LINE",
"220 1349 LINE"
);
}
);
userData = {
assembly = "NPUSHB[ ]	/* 47 values pushed */
13 10 9 8 7 4 6 2 3 1 76 0 0 0 1 95 4 1 1 1 33 77 0 3 3 34 77 0 2 2 32 2 78 0 0 12 11 6 5 0 3 0 3 17 5 8 23 
CALL[ ]	/* CallFunction */";
};
width = 652;
},
{
layerId = "CD48D813-7107-4EBE-8BC7-C661170EDB17";
paths = (
{
closed = 1;
nodes = (
"519 0 LINE",
"519 54 LINE",
"356 54 LINE",
"356 1082 LINE",
"139 1082 LINE",
"139 1028 LINE",
"302 1028 LINE",
"302 54 LINE",
"139 54 LINE",
"139 0 LINE",
"139 0 LINE"
);
},
{
closed = 1;
nodes = (
"356 1420 LINE",
"356 1560 LINE",
"284 1560 LINE",
"284 1420 LINE",
"284 1420 LINE"
);
}
);
width = 652;
}
);
note = i;
unicode = 0069;
},
{
glyphname = j;
lastChange = "2025-05-05 12:22:04 +0000";
layers = (
{
layerId = "1AFB1E35-9546-41E1-B92B-6969383A0DDD";
paths = (
{
closed = 1;
nodes = (
"344.333 -437 OFFCURVE",
"485 -283.333 OFFCURVE",
"485 -10 CURVE SMOOTH",
"485 1082 LINE",
"24 1082 LINE",
"24 876 LINE",
"164 844 LINE",
"164 -10 LINE SMOOTH",
"164 -111.333 OFFCURVE",
"125.333 -169 OFFCURVE",
"56 -169 CURVE SMOOTH",
"17.333 -169 OFFCURVE",
"-1 -164 OFFCURVE",
"-33 -156 CURVE",
"-48 -421 LINE",
"2.667 -433 OFFCURVE",
"45.667 -437 OFFCURVE",
"103 -437 CURVE SMOOTH"
);
},
{
closed = 1;
nodes = (
"482 1287 LINE",
"482 1560 LINE",
"149 1560 LINE",
"149 1287 LINE",
"149 1287 LINE"
);
}
);
width = 525;
},
{
layerId = "759DCBF5-126F-43AE-ABB8-3EC70824EECD";
paths = (
{
closed = 1;
nodes = (
"260 -437 OFFCURVE",
"381 -311.667 OFFCURVE",
"381 -89 CURVE SMOOTH",
"381 1082 LINE",
"21 1082 LINE",
"21 955 LINE",
"184 927 LINE",
"184 -89 LINE SMOOTH",
"184 -209 OFFCURVE",
"134.667 -282 OFFCURVE",
"56 -282 CURVE SMOOTH",
"32 -282 OFFCURVE",
"-24.333 -275.667 OFFCURVE",
"-43 -269 CURVE",
"-56 -419 LINE",
"-18.667 -431 OFFCURVE",
"13.333 -437 OFFCURVE",
"56 -437 CURVE SMOOTH"
);
},
{
closed = 1;
nodes = (
"381 1349 LINE",
"381 1560 LINE",
"174 1560 LINE",
"174 1349 LINE",
"174 1349 LINE"
);
}
);
userData = {
assembly = "NPUSHB[ ]	/* 61 values pushed */
12 11 4 3 1 2 3 1 0 1 2 76 0 3 3 4 95 6 1 4 4 33 77 0 2 2 34 77 0 1 1 0 98 5 1 0 0 42 0 78 18 18 1 0 18 21 18 21 20 19 14 13 8 6 0 17 1 17 7 8 22 
CALL[ ]	/* CallFunction */";
};
width = 525;
},
{
layerId = "CD48D813-7107-4EBE-8BC7-C661170EDB17";
paths = (
{
closed = 1;
nodes = (
"288 -437 OFFCURVE",
"393 -311.667 OFFCURVE",
"393 -89 CURVE SMOOTH",
"393 1082 LINE",
"176 1082 LINE",
"176 1028 LINE",
"339 1028 LINE",
"339 -89 LINE SMOOTH",
"339 -277 OFFCURVE",
"254.667 -383 OFFCURVE",
"108 -383 CURVE SMOOTH",
"73.333 -383 OFFCURVE",
"33 -373 OFFCURVE",
"9 -365 CURVE",
"-4 -417 LINE",
"36 -430.333 OFFCURVE",
"68 -437 OFFCURVE",
"108 -437 CURVE SMOOTH"
);
},
{
closed = 1;
nodes = (
"387 1420 LINE",
"387 1560 LINE",
"315 1560 LINE",
"315 1420 LINE",
"315 1420 LINE"
);
}
);
width = 525;
}
);
note = j;
unicode = 006A;
},
{
glyphname = k;
lastChange = "2025-05-05 12:22:04 +0000";
layers = (
{
layerId = "1AFB1E35-9546-41E1-B92B-6969383A0DDD";
paths = (
{
closed = 1;
nodes = (
"598 0 LINE",
"598 205 LINE",
"498 237 LINE",
"498 319 LINE",
"622 425 LINE",
"762 218 LINE",
"763 214 LINE",
"699 191 LINE",
"699 0 LINE",
"1256 0 LINE",
"1256 205 LINE",
"1139 241 LINE",
"859 629 LINE",
"1101 835 LINE",
"1237 876 LINE",
"1237 1082 LINE",
"633 1082 LINE",
"633 879 LINE",
"737 861 LINE",
"737 860 LINE",
"498 646 LINE",
"498 1560 LINE",
"12 1560 LINE",
"12 1354 LINE",
"159 1322 LINE",
"159 237 LINE",
"35 205 LINE",
"35 0 LINE",
"35 0 LINE"
);
}
);
width = 1287;
},
{
layerId = "759DCBF5-126F-43AE-ABB8-3EC70824EECD";
paths = (
{
closed = 1;
nodes = (
"587 0 LINE",
"587 126 LINE",
"424 154 LINE",
"424 327 LINE",
"592 496 LINE",
"866 143 LINE",
"869 139 LINE",
"759 126 LINE",
"759 0 LINE",
"1248 0 LINE",
"1248 126 LINE",
"1092 150 LINE",
"719 623 LINE",
"1023 929 LINE",
"1162 955 LINE",
"1162 1082 LINE",
"696 1082 LINE",
"696 955 LINE",
"812 942 LINE",
"807 936 LINE",
"424 555 LINE",
"424 1560 LINE",
"64 1560 LINE",
"64 1433 LINE",
"227 1405 LINE",
"227 154 LINE",
"64 126 LINE",
"64 0 LINE",
"64 0 LINE"
);
}
);
userData = {
assembly = "NPUSHB[ ]	/* 47 values pushed */
17 16 2 3 2 26 23 21 20 15 14 11 10 9 8 6 5 2 13 0 3 2 76 0 2 2 33 77 0 3 3 34 77 1 1 0 0 32 0 78 21 21 24 19 4 8 26 
CALL[ ]	/* CallFunction */";
};
width = 1287;
},
{
layerId = "CD48D813-7107-4EBE-8BC7-C661170EDB17";
paths = (
{
closed = 1;
nodes = (
"512 0 LINE",
"512 54 LINE",
"349 54 LINE",
"349 357 LINE",
"574 594 LINE",
"959 59 LINE",
"957 54 LINE",
"831 54 LINE",
"831 0 LINE",
"1151 0 LINE",
"1151 54 LINE",
"1034 54 LINE",
"610 632 LINE",
"986 1028 LINE",
"1108 1028 LINE",
"1108 1082 LINE",
"787 1082 LINE",
"787 1028 LINE",
"906 1028 LINE",
"908 1022 LINE",
"349 430 LINE",
"349 1560 LINE",
"132 1560 LINE",
"132 1506 LINE",
"295 1506 LINE",
"295 54 LINE",
"132 54 LINE",
"132 0 LINE",
"132 0 LINE"
);
}
);
width = 1287;
}
);
note = k;
unicode = 006B;
},
{
glyphname = l;
lastChange = "2025-05-05 12:22:04 +0000";
layers = (
{
layerId = "1AFB1E35-9546-41E1-B92B-6969383A0DDD";
paths = (
{
closed = 1;
nodes = (
"642 0 LINE",
"642 205 LINE",
"515 237 LINE",
"515 1560 LINE",
"12 1560 LINE",
"12 1354 LINE",
"164 1322 LINE",
"164 237 LINE",
"36 205 LINE",
"36 0 LINE",
"36 0 LINE"
);
}
);
width = 653;
},
{
layerId = "759DCBF5-126F-43AE-ABB8-3EC70824EECD";
paths = (
{
closed = 1;
nodes = (
"587 0 LINE",
"587 126 LINE",
"424 154 LINE",
"424 1560 LINE",
"64 1560 LINE",
"64 1433 LINE",
"227 1405 LINE",
"227 154 LINE",
"64 126 LINE",
"64 0 LINE",
"64 0 LINE"
);
}
);
userData = {
assembly = "NPUSHB[ ]	/* 27 values pushed */
9 6 5 4 3 0 6 0 1 1 76 0 1 1 33 77 0 0 0 32 0 78 21 17 2 8 24 
CALL[ ]	/* CallFunction */";
};
width = 653;
},
{
layerId = "CD48D813-7107-4EBE-8BC7-C661170EDB17";
paths = (
{
closed = 1;
nodes = (
"522 0 LINE",
"522 54 LINE",
"359 54 LINE",
"359 1560 LINE",
"142 1560 LINE",
"142 1506 LINE",
"305 1506 LINE",
"305 54 LINE",
"142 54 LINE",
"142 0 LINE",
"142 0 LINE"
);
}
);
width = 653;
}
);
note = l;
unicode = 006C;
},
{
glyphname = m;
lastChange = "2025-05-05 12:22:04 +0000";
layers = (
{
layerId = "1AFB1E35-9546-41E1-B92B-6969383A0DDD";
paths = (
{
closed = 1;
nodes = (
"658 0 LINE",
"658 205 LINE",
"555 237 LINE",
"555 764 LINE",
"592.333 809.333 OFFCURVE",
"642 833 OFFCURVE",
"702 833 CURVE SMOOTH",
"779.333 833 OFFCURVE",
"818 796.667 OFFCURVE",
"818 670 CURVE SMOOTH",
"818 237 LINE",
"728 205 LINE",
"728 0 LINE",
"1257 0 LINE",
"1257 205 LINE",
"1167 237 LINE",
"1167 765 LINE",
"1204.333 809 OFFCURVE",
"1253.667 833 OFFCURVE",
"1315 833 CURVE SMOOTH",
"1389.667 833 OFFCURVE",
"1430 796.667 OFFCURVE",
"1430 670 CURVE SMOOTH",
"1430 237 LINE",
"1327 205 LINE",
"1327 0 LINE",
"1908 0 LINE",
"1908 205 LINE",
"1780 237 LINE",
"1780 670 LINE SMOOTH",
"1780 963.333 OFFCURVE",
"1652.333 1102 OFFCURVE",
"1443 1102 CURVE SMOOTH",
"1303 1102 OFFCURVE",
"1199.333 1038 OFFCURVE",
"1134 926 CURVE",
"1084.667 1044.667 OFFCURVE",
"985.667 1102 OFFCURVE",
"851 1102 CURVE SMOOTH",
"717.667 1102 OFFCURVE",
"616.667 1042 OFFCURVE",
"546 938 CURVE",
"535 1082 LINE",
"54 1082 LINE",
"54 876 LINE",
"206 844 LINE",
"206 237 LINE",
"78 205 LINE",
"78 0 LINE",
"78 0 LINE"
);
}
);
width = 1977;
},
{
layerId = "759DCBF5-126F-43AE-ABB8-3EC70824EECD";
paths = (
{
closed = 1;
nodes = (
"597 0 LINE",
"597 126 LINE",
"434 154 LINE",
"434 801 LINE",
"475.333 890.333 OFFCURVE",
"551 942 OFFCURVE",
"671 942 CURVE SMOOTH",
"813.667 942 OFFCURVE",
"891 851.667 OFFCURVE",
"891 649 CURVE SMOOTH",
"891 154 LINE",
"728 126 LINE",
"728 0 LINE",
"1251 0 LINE",
"1251 126 LINE",
"1088 154 LINE",
"1088 687 LINE",
"1101.333 833.667 OFFCURVE",
"1188.667 942 OFFCURVE",
"1326 942 CURVE SMOOTH",
"1470 942 OFFCURVE",
"1544 862.333 OFFCURVE",
"1544 649 CURVE SMOOTH",
"1544 154 LINE",
"1381 126 LINE",
"1381 0 LINE",
"1905 0 LINE",
"1905 126 LINE",
"1742 154 LINE",
"1742 647 LINE SMOOTH",
"1742 951 OFFCURVE",
"1605.333 1102 OFFCURVE",
"1384 1102 CURVE SMOOTH",
"1234.667 1102 OFFCURVE",
"1121 1024.667 OFFCURVE",
"1053 902 CURVE",
"1001 1035.333 OFFCURVE",
"895 1102 OFFCURVE",
"751 1102 CURVE SMOOTH",
"607 1102 OFFCURVE",
"496.333 1043.667 OFFCURVE",
"427 941 CURVE",
"414 1082 LINE",
"74 1082 LINE",
"74 955 LINE",
"237 927 LINE",
"237 154 LINE",
"74 126 LINE",
"74 0 LINE",
"74 0 LINE"
);
}
);
userData = {
assembly = "NPUSHB[ ]	/* 26 values pushed */
5 1 5 1 48 47 46 39 38 35 34 33 26 25 22 21 14 8 4 3 2 17 0 5 2 76 
MPPEM[ ]	/* MeasurePixelPerEm */
PUSHB[ ]	/* 1 value pushed */
25 
LT[ ]	/* LessThan */
IF[ ]	/* If */
NPUSHB[ ]	/* 21 values pushed */
7 1 5 5 1 97 3 2 2 1 1 34 77 6 4 2 0 0 32 0 78 
ELSE[ ]	/* Else */
NPUSHB[ ]	/* 25 values pushed */
0 1 1 34 77 7 1 5 5 2 97 3 1 2 2 40 77 6 4 2 0 0 32 0 78 
EIF[ ]	/* EndIf */
NPUSHB[ ]	/* 11 values pushed */
37 21 37 21 36 35 21 16 8 8 30 
CALL[ ]	/* CallFunction */";
};
width = 1977;
},
{
layerId = "CD48D813-7107-4EBE-8BC7-C661170EDB17";
paths = (
{
closed = 1;
nodes = (
"463 0 LINE",
"463 54 LINE",
"300 54 LINE",
"300 694 LINE",
"332 903.333 OFFCURVE",
"442 1048 OFFCURVE",
"666 1048 CURVE SMOOTH",
"854 1048 OFFCURVE",
"975 933.667 OFFCURVE",
"975 619 CURVE SMOOTH",
"975 54 LINE",
"812 54 LINE",
"812 0 LINE",
"1193 0 LINE",
"1193 54 LINE",
"1030 54 LINE",
"1030 682 LINE",
"1056.667 895.333 OFFCURVE",
"1168.667 1049 OFFCURVE",
"1398 1049 CURVE SMOOTH",
"1584.667 1049 OFFCURVE",
"1706 933.333 OFFCURVE",
"1706 620 CURVE SMOOTH",
"1706 55 LINE",
"1543 55 LINE",
"1543 1 LINE",
"1924 1 LINE",
"1924 55 LINE",
"1761 55 LINE",
"1761 618 LINE SMOOTH",
"1761 952.667 OFFCURVE",
"1634.667 1103 OFFCURVE",
"1396 1103 CURVE SMOOTH",
"1201.333 1103 OFFCURVE",
"1069.333 994 OFFCURVE",
"1012 810 CURVE",
"968 1008.667 OFFCURVE",
"850.667 1102 OFFCURVE",
"664 1102 CURVE SMOOTH",
"488 1102 OFFCURVE",
"364.333 1012.333 OFFCURVE",
"299 859 CURVE",
"292 1082 LINE",
"82 1082 LINE",
"82 1028 LINE",
"245 1028 LINE",
"245 54 LINE",
"82 54 LINE",
"82 0 LINE",
"82 0 LINE"
);
}
);
width = 1977;
}
);
note = m;
unicode = 006D;
},
{
glyphname = n;
lastChange = "2025-05-05 12:22:04 +0000";
layers = (
{
layerId = "1AFB1E35-9546-41E1-B92B-6969383A0DDD";
paths = (
{
closed = 1;
nodes = (
"625 0 LINE",
"625 205 LINE",
"535 237 LINE",
"535 763 LINE",
"569.667 809.667 OFFCURVE",
"614.667 833 OFFCURVE",
"680 833 CURVE SMOOTH",
"766.667 833 OFFCURVE",
"815 789 OFFCURVE",
"815 673 CURVE SMOOTH",
"815 237 LINE",
"713 205 LINE",
"713 0 LINE",
"1293 0 LINE",
"1293 205 LINE",
"1167 237 LINE",
"1167 672 LINE SMOOTH",
"1167 970.667 OFFCURVE",
"1041.667 1102 OFFCURVE",
"839 1102 CURVE SMOOTH",
"705.667 1102 OFFCURVE",
"600 1039 OFFCURVE",
"528 931 CURVE",
"516 1082 LINE",
"34 1082 LINE",
"34 876 LINE",
"184 844 LINE",
"184 237 LINE",
"58 205 LINE",
"58 0 LINE",
"58 0 LINE"
);
}
);
width = 1343;
},
{
layerId = "759DCBF5-126F-43AE-ABB8-3EC70824EECD";
paths = (
{
closed = 1;
nodes = (
"597 0 LINE",
"597 126 LINE",
"434 154 LINE",
"434 789 LINE",
"486 883.667 OFFCURVE",
"575.667 942 OFFCURVE",
"689 942 CURVE SMOOTH",
"843.667 942 OFFCURVE",
"918 869.667 OFFCURVE",
"918 679 CURVE SMOOTH",
"918 154 LINE",
"755 126 LINE",
"755 0 LINE",
"1278 0 LINE",
"1278 126 LINE",
"1115 154 LINE",
"1115 683 LINE SMOOTH",
"1115 968.333 OFFCURVE",
"981.333 1102 OFFCURVE",
"748 1102 CURVE SMOOTH",
"609.333 1102 OFFCURVE",
"499 1035.667 OFFCURVE",
"427 921 CURVE",
"413 1082 LINE",
"74 1082 LINE",
"74 955 LINE",
"237 927 LINE",
"237 154 LINE",
"74 126 LINE",
"74 0 LINE",
"74 0 LINE"
);
}
);
userData = {
assembly = "NPUSHB[ ]	/* 20 values pushed */
5 1 4 1 29 28 27 20 19 16 15 8 4 3 2 11 0 4 2 76 
MPPEM[ ]	/* MeasurePixelPerEm */
PUSHB[ ]	/* 1 value pushed */
25 
LT[ ]	/* LessThan */
IF[ ]	/* If */
NPUSHB[ ]	/* 18 values pushed */
0 4 4 1 97 2 1 1 1 34 77 3 1 0 0 32 0 78 
ELSE[ ]	/* Else */
NPUSHB[ ]	/* 22 values pushed */
0 1 1 34 77 0 4 4 2 97 0 2 2 40 77 3 1 0 0 32 0 78 
EIF[ ]	/* EndIf */
PUSHB[ ]	/* 8 values pushed */
37 21 35 21 16 5 8 27 
CALL[ ]	/* CallFunction */";
};
width = 1343;
},
{
layerId = "CD48D813-7107-4EBE-8BC7-C661170EDB17";
paths = (
{
closed = 1;
nodes = (
"499 0 LINE",
"499 54 LINE",
"336 54 LINE",
"336 676 LINE",
"365.333 893.333 OFFCURVE",
"477.667 1048 OFFCURVE",
"711 1048 CURVE SMOOTH",
"895 1048 OFFCURVE",
"1010 939 OFFCURVE",
"1010 639 CURVE SMOOTH",
"1010 54 LINE",
"847 54 LINE",
"847 0 LINE",
"1227 0 LINE",
"1227 54 LINE",
"1064 54 LINE",
"1064 637 LINE SMOOTH",
"1064 959.667 OFFCURVE",
"946 1102 OFFCURVE",
"710 1102 CURVE SMOOTH",
"526 1102 OFFCURVE",
"400.333 1013.667 OFFCURVE",
"335 859 CURVE",
"328 1082 LINE",
"119 1082 LINE",
"119 1028 LINE",
"282 1028 LINE",
"282 54 LINE",
"119 54 LINE",
"119 0 LINE",
"119 0 LINE"
);
}
);
width = 1343;
}
);
note = n;
unicode = 006E;
},
